<svg width="184" height="41" viewBox="0 0 184 41" fill="none" xmlns="http://www.w3.org/2000/svg">
<path d="M112.254 23.6973C113.887 23.6973 115.254 22.3306 115.254 20.6973C115.254 19.064 113.887 17.6973 112.254 17.6973C110.621 17.6973 109.254 19.064 109.254 20.6973C109.254 22.3306 110.621 23.6973 112.254 23.6973Z" fill="#BB8B62"/>
<path d="M170.577 11.6672C168.177 11.6672 166.621 12.5688 165.675 13.9544C164.729 12.4985 163.241 11.6672 161.246 11.6672C158.982 11.6672 157.494 12.5688 156.716 13.7462V12.1525H151.646V29.4796H156.716V19.7076C156.716 17.6623 157.663 16.4498 159.354 16.4498C160.976 16.4498 161.788 17.5582 161.788 19.2912V29.4796H166.858V19.7076C166.858 17.6623 167.805 16.4498 169.495 16.4498C171.117 16.4498 171.928 17.5582 171.928 19.2912V29.4796H177V18.8411C177 14.5086 174.464 11.6672 170.577 11.6672ZM141.167 24.9052C138.968 24.9052 137.278 23.2763 137.278 20.816C137.278 18.3558 138.968 16.7269 141.167 16.7269C143.363 16.7269 145.054 18.3558 145.054 20.816C145.054 23.2763 143.363 24.9052 141.167 24.9052ZM141.167 11.6672C136.197 11.6672 132.208 15.6522 132.208 20.816C132.208 25.9799 136.197 29.9649 141.167 29.9649C146.135 29.9649 150.124 25.9799 150.124 20.816C150.124 15.6522 146.135 11.6672 141.167 11.6672Z" fill="#1D1D1D"/>
<path d="M125.012 25.1472C122.815 25.1472 121.193 23.5183 121.193 21.127C121.193 18.7357 122.815 17.1068 125.012 17.1068C126.5 17.1068 127.717 17.8354 128.292 19.048L132.721 16.4133C131.267 13.7449 128.359 11.9781 125.081 11.9781C119.942 11.9781 116.122 15.9632 116.122 21.127C116.122 26.2908 119.942 30.2759 125.081 30.2759C128.393 30.2759 131.267 28.5077 132.721 25.8055L128.292 23.206C127.751 24.4186 126.5 25.1472 125.012 25.1472ZM91.3083 25.3554C88.9755 25.3554 87.285 23.7265 87.285 21.127C87.285 18.5275 88.9755 16.8986 91.3083 16.8986C93.641 16.8986 95.3315 18.5275 95.3315 21.127C95.3315 23.7265 93.641 25.3554 91.3083 25.3554ZM95.3315 14.0923C94.2159 12.7757 92.5597 11.9781 90.2942 11.9781C85.8661 11.9781 82.2147 15.9632 82.2147 21.127C82.2147 26.2908 85.8661 30.2759 90.2942 30.2759C92.5597 30.2759 94.2159 29.4783 95.3315 28.1617V29.7906H100.402V12.4634H95.3315V14.0923ZM78.3945 7.61185L73.3243 9.17042V12.4634H70.6197V17.4542H73.3243V23.5872C73.3243 28.4388 75.2508 30.4841 81.8772 29.7906V25.0783C79.646 25.2161 78.3945 25.0783 78.3945 23.5872V17.4542H81.8772V12.4634H78.3945V7.61185Z" fill="#1D1D1D"/>
<path d="M64.1368 29.4796H69.2071V12.1524H64.1368V29.4796Z" fill="#1D1D1D"/>
<path d="M102.763 29.4796H107.833V4.41162L102.763 5.99548V29.4796Z" fill="#1D1D1D"/>
<path d="M53.5228 25.043C51.1887 25.043 49.4968 23.4141 49.4968 20.8174C49.4968 18.2151 51.1887 16.5904 53.5228 16.5904C55.8528 16.5904 57.5447 18.2151 57.5447 20.8174C57.5447 23.4141 55.8528 25.043 53.5228 25.043ZM54.5369 11.6686C52.27 11.6686 50.6138 12.4633 49.4968 13.78V12.1539H44.4266V36.4116H49.4968V27.8493C50.6138 29.1659 52.27 29.9649 54.5369 29.9649C58.9663 29.9649 62.615 25.9785 62.615 20.8174C62.615 15.6508 58.9663 11.6686 54.5369 11.6686ZM32.9674 25.0444C30.636 25.0444 28.9455 23.4155 28.9455 20.816C28.9455 18.2165 30.636 16.5876 32.9674 16.5876C35.3001 16.5876 36.9907 18.2165 36.9907 20.816C36.9907 23.4155 35.3001 25.0444 32.9674 25.0444ZM36.9907 13.7814C35.8751 12.4647 34.2188 11.6672 31.9533 11.6672C27.5253 11.6672 23.8739 15.6522 23.8739 20.816C23.8739 25.9799 27.5253 29.9649 31.9533 29.9649C34.2188 29.9649 35.8751 29.1673 36.9907 27.8507V29.4796H42.0623V12.1525H36.9907V13.7814ZM15.8904 16.7958C17.3779 16.7958 18.595 17.5245 19.17 18.737L23.5981 16.1023C22.1449 13.4339 19.2372 11.6672 15.9577 11.6672C10.8202 11.6672 7 15.6522 7 20.816C7 25.9799 10.8202 29.9649 15.9577 29.9649C19.2715 29.9649 22.1449 28.1968 23.5981 25.4946L19.17 22.8951C18.6293 24.1076 17.3779 24.8363 15.8904 24.8363C13.6936 24.8363 12.0703 23.2074 12.0703 20.816C12.0703 18.4247 13.6936 16.7958 15.8904 16.7958Z" fill="#1D1D1D"/>
<path d="M66.7328 10.8611C68.389 10.8611 69.7749 9.43898 69.7749 7.74114C69.7749 6.04331 68.389 4.62259 66.7328 4.62259C65.0765 4.62259 63.6906 6.04331 63.6906 7.74114C63.6906 9.43898 65.0765 10.8611 66.7328 10.8611Z" fill="#1D1D1D"/>
</svg>
