<svg width="120" height="24" viewBox="0 0 120 24" fill="none" xmlns="http://www.w3.org/2000/svg">
    <path d="M12.1424 1.68018L15.2293 7.75419L15.3966 8.11503L15.7919 8.16013L22.65 9.13738L17.6927 13.8432L17.4038 14.1289L17.4798 14.5198L18.6507 21.1802L12.4921 18.0379L12.1424 17.8425L11.7926 18.0229L5.63406 21.1802L6.80495 14.5198L6.88099 14.1289L6.57686 13.8432L1.64999 9.13738L8.49286 8.16013L8.90343 8.11503L9.0707 7.75419L12.1424 1.68018Z" fill="currentColor"/>
    <path d="M36.1424 1.68018L39.2293 7.75419L39.3966 8.11503L39.7919 8.16013L46.65 9.13738L41.6927 13.8432L41.4038 14.1289L41.4798 14.5198L42.6507 21.1802L36.4921 18.0379L36.1424 17.8425L35.7926 18.0229L29.6341 21.1802L30.805 14.5198L30.881 14.1289L30.5769 13.8432L25.65 9.13738L32.4929 8.16013L32.9034 8.11503L33.0707 7.75419L36.1424 1.68018Z" fill="currentColor"/>
    <path d="M60.1424 1.68018L63.2293 7.75419L63.3966 8.11503L63.7919 8.16013L70.65 9.13738L65.6927 13.8432L65.4038 14.1289L65.4798 14.5198L66.6507 21.1802L60.4921 18.0379L60.1424 17.8425L59.7926 18.0229L53.6341 21.1802L54.805 14.5198L54.881 14.1289L54.5769 13.8432L49.65 9.13738L56.4929 8.16013L56.9034 8.11503L57.0707 7.75419L60.1424 1.68018Z" fill="currentColor"/>
    <path d="M84.1424 1.68018L87.2293 7.75419L87.3966 8.11503L87.7919 8.16013L94.65 9.13738L89.6927 13.8432L89.4038 14.1289L89.4798 14.5198L90.6507 21.1802L84.4921 18.0379L84.1424 17.8425L83.7926 18.0229L77.6341 21.1802L78.805 14.5198L78.881 14.1289L78.5769 13.8432L73.65 9.13738L80.4929 8.16013L80.9034 8.11503L81.0707 7.75419L84.1424 1.68018Z" fill="currentColor"/>
    <path d="M108.142 1.68018L111.229 7.75419L111.397 8.11503L111.792 8.16013L118.65 9.13738L113.693 13.8432L113.404 14.1289L113.48 14.5198L114.651 21.1802L108.492 18.0379L108.142 17.8425L107.793 18.0229L101.634 21.1802L102.805 14.5198L102.881 14.1289L102.577 13.8432L97.65 9.13738L104.493 8.16013L104.903 8.11503L105.071 7.75419L108.142 1.68018Z" fill="currentColor"/>
</svg>
