<svg xmlns="http://www.w3.org/2000/svg">
  <symbol viewBox="0 0 24 24" id="circleChecked">
    <path fill-rule="evenodd" clip-rule="evenodd" d="M2 12C2 17.5228 6.47715 22 12 22C17.5228 22 22 17.5228 22 12C22 6.47715 17.5228 2 12 2C6.47715 2 2 6.47715 2 12ZM20.1818 12C20.1818 16.5187 16.5187 20.1818 12 20.1818C7.48131 20.1818 3.81818 16.5187 3.81818 12C3.81818 7.48131 7.48131 3.81818 12 3.81818C16.5187 3.81818 20.1818 7.48131 20.1818 12Z" fill="currentColor"/>
    <path fill-rule="evenodd" clip-rule="evenodd" d="M10.5 13.2322L15.7929 7.93934L17.2071 9.35355L10.5 16.0607L6.79289 12.3536L8.20711 10.9393L10.5 13.2322Z" fill="currentColor"/>
  </symbol>

  <symbol viewBox="0 0 24 24" id="play_circle_filled">
    <path fill-rule="evenodd" clip-rule="evenodd" d="M2 12C2 6.48 6.48 2 12 2C17.52 2 22 6.48 22 12C22 17.52 17.52 22 12 22C6.48 22 2 17.52 2 12ZM16 12L10 7.5V16.5L16 12Z" fill="currentColor"></path>
  </symbol>

  <symbol viewBox="0 0 24 24" id="grid_round">
    <path d="M4 6C4 7.10457 4.89543 8 6 8C7.10457 8 8 7.10457 8 6C8 4.89543 7.10457 4 6 4C4.89543 4 4 4.89543 4 6Z" fill="currentColor"></path>
    <path d="M10 18C10 19.1046 10.8954 20 12 20C13.1046 20 14 19.1046 14 18C14 16.8954 13.1046 16 12 16C10.8954 16 10 16.8954 10 18Z" fill="currentColor"></path>
    <path d="M6 20C4.89543 20 4 19.1046 4 18C4 16.8954 4.89543 16 6 16C7.10457 16 8 16.8954 8 18C8 19.1046 7.10457 20 6 20Z" fill="currentColor"></path>
    <path d="M4 12C4 13.1046 4.89543 14 6 14C7.10457 14 8 13.1046 8 12C8 10.8954 7.10457 10 6 10C4.89543 10 4 10.8954 4 12Z" fill="currentColor"></path>
    <path d="M12 14C10.8954 14 10 13.1046 10 12C10 10.8954 10.8954 10 12 10C13.1046 10 14 10.8954 14 12C14 13.1046 13.1046 14 12 14Z" fill="currentColor"></path>
    <path d="M18 4C16.8954 4 16 4.89543 16 6C16 7.10457 16.8954 8 18 8C19.1046 8 20 7.10457 20 6C20 4.89543 19.1046 4 18 4Z" fill="currentColor"></path>
    <path d="M12 8C10.8954 8 10 7.10457 10 6C10 4.89543 10.8954 4 12 4C13.1046 4 14 4.89543 14 6C14 7.10457 13.1046 8 12 8Z" fill="currentColor"></path>
    <path d="M16 12C16 13.1046 16.8954 14 18 14C19.1046 14 20 13.1046 20 12C20 10.8954 19.1046 10 18 10C16.8954 10 16 10.8954 16 12Z" fill="currentColor"></path>
    <path d="M18 20C16.8954 20 16 19.1046 16 18C16 16.8954 16.8954 16 18 16C19.1046 16 20 16.8954 20 18C20 19.1046 19.1046 20 18 20Z" fill="currentColor"></path>
  </symbol>

  <symbol viewBox="0 0 24 24" id="eco">
    <path d="M19.2747 13.3287C19.2445 15.3374 17.5917 16.9414 15.5829 16.9112C13.5742 16.881 11.9702 15.2282 12.0004 13.2194C12.0066 12.8063 12.2261 12.0777 12.6725 11.1018C13.1002 10.1666 13.6751 9.13167 14.2605 8.15656C14.7936 7.26854 15.327 6.44409 15.7497 5.80973C16.1532 6.4565 16.6615 7.2966 17.1677 8.20023C17.7236 9.19248 18.2671 10.2442 18.6666 11.1918C19.0835 12.1807 19.2809 12.9156 19.2747 13.3287Z" fill="white" stroke="#00C46B" stroke-width="2"/>
    <path d="M13.9603 11.3203C15.5292 13.2478 15.2384 16.0821 13.3109 17.651C11.3834 19.2199 8.54901 18.9291 6.98015 17.0016C6.64415 16.5888 6.28006 15.7258 5.94114 14.4975C5.61415 13.3124 5.34615 11.9264 5.13403 10.5909C4.92251 9.25923 4.76956 7.99722 4.66945 7.06687C4.66809 7.0542 4.66674 7.0416 4.66539 7.02906C4.6774 7.03292 4.68947 7.0368 4.70159 7.04071C5.59224 7.32761 6.79692 7.73359 8.05794 8.21108C9.32251 8.6899 10.6253 9.23372 11.7193 9.7945C12.8532 10.3757 13.6243 10.9074 13.9603 11.3203Z" fill="white" stroke="#00C46B" stroke-width="2"/>
    <path d="M13.293 16.707L9.29297 12.707" stroke="#00C46B" stroke-width="2"/>
  </symbol>
</svg>
