<svg xmlns="http://www.w3.org/2000/svg">
  <symbol viewBox="0 0 112 21" id="trustpilot_rating">
    <path d="M10.5 14.1533L13.6937 13.3439L15.0281 17.4564L10.5 14.1533ZM17.85 8.8377H12.2281L10.5 3.54395L8.77184 8.8377H3.14996L7.69996 12.1189L5.97184 17.4127L10.5218 14.1314L13.3218 12.1189L17.85 8.8377Z" fill="white"></path>
    <path d="M33.25 14.1533L36.4437 13.3439L37.7781 17.4564L33.25 14.1533ZM40.6 8.8377H34.9781L33.25 3.54395L31.5218 8.8377H25.9L30.45 12.1189L28.7218 17.4127L33.2718 14.1314L36.0718 12.1189L40.6 8.8377Z" fill="white"></path>
    <path d="M56 14.1533L59.1937 13.3439L60.5281 17.4564L56 14.1533ZM63.35 8.8377H57.7281L56 3.54395L54.2718 8.8377H48.65L53.2 12.1189L51.4718 17.4127L56.0218 14.1314L58.8218 12.1189L63.35 8.8377Z" fill="white"></path>
    <path d="M78.75 14.1533L81.9437 13.3439L83.2781 17.4564L78.75 14.1533ZM86.1 8.8377H80.4781L78.75 3.54395L77.0218 8.8377H71.4L75.95 12.1189L74.2218 17.4127L78.7718 14.1314L81.5718 12.1189L86.1 8.8377Z" fill="white"></path>
    <path d="M101.5 14.1533L104.694 13.3439L106.028 17.4564L101.5 14.1533ZM108.85 8.8377H103.228L101.5 3.54395L99.7718 8.8377H94.15L98.7 12.1189L96.9718 17.4127L101.522 14.1314L104.322 12.1189L108.85 8.8377Z" fill="white"></path>
  </symbol>

  <symbol viewBox="0 0 107 27" id="trustpilot_logo">
    <path d="M27.69 9.62695L38.5743 9.62695L38.5743 11.6319L34.2887 11.6319L34.2887 22.9339L31.9397 22.9339L31.9397 11.6319L27.6721 11.6319L27.69 9.62695ZM38.1081 13.2997L40.1164 13.2997L40.1164 15.1626L40.1522 15.1626C40.2239 14.8965 40.3495 14.6481 40.5288 14.3997C40.7081 14.1513 40.9233 13.9207 41.1922 13.7255C41.4433 13.5126 41.7302 13.3529 42.0529 13.2287C42.3578 13.1045 42.6805 13.0335 43.0033 13.0335C43.2543 13.0335 43.4336 13.0513 43.5233 13.0513C43.613 13.069 43.7205 13.0868 43.8102 13.0868L43.8102 15.1272C43.6667 15.0917 43.5054 15.0739 43.344 15.0562C43.1826 15.0384 43.0392 15.0207 42.8778 15.0207C42.5191 15.0207 42.1785 15.0917 41.8557 15.2336C41.5329 15.3755 41.264 15.5885 41.0129 15.8546C40.7798 16.1385 40.5826 16.4756 40.4391 16.8837C40.2957 17.2917 40.2239 17.7708 40.2239 18.3031L40.2239 22.8807L38.0722 22.8807L38.1081 13.2997ZM53.6724 22.9339L51.5565 22.9339L51.5565 21.5855L51.5206 21.5855C51.2517 22.0822 50.8572 22.4548 50.3372 22.7565C49.8172 23.0581 49.2792 23.2 48.7413 23.2C47.4682 23.2 46.5357 22.8984 45.9619 22.2597C45.3881 21.6387 45.1012 20.6806 45.1012 19.4209L45.1012 13.2997L47.253 13.2997L47.253 19.2079C47.253 20.0596 47.4144 20.6628 47.7551 20.9999C48.0778 21.3548 48.544 21.5322 49.1358 21.5322C49.5841 21.5322 49.9606 21.4613 50.2655 21.3193C50.5703 21.1774 50.8213 20.9999 51.0006 20.7693C51.1979 20.5386 51.3234 20.2548 51.4131 19.9354C51.5027 19.616 51.5386 19.2612 51.5386 18.8886L51.5386 13.2997L53.6903 13.2997L53.6903 22.9339L53.6724 22.9339ZM57.3304 19.8467C57.4021 20.4677 57.6352 20.8935 58.0476 21.1596C58.46 21.408 58.9621 21.5322 59.5359 21.5322C59.7332 21.5322 59.9663 21.5145 60.2173 21.479C60.4683 21.4435 60.7194 21.3903 60.9346 21.3016C61.1677 21.2129 61.347 21.0887 61.4904 20.9112C61.6339 20.7338 61.7056 20.5209 61.6877 20.2548C61.6697 19.9886 61.5801 19.758 61.3828 19.5805C61.1856 19.4031 60.9525 19.2789 60.6656 19.1547C60.3787 19.0483 60.038 18.9595 59.6614 18.8886C59.2849 18.8176 58.9083 18.7289 58.5138 18.6402C58.1193 18.5515 57.7249 18.445 57.3483 18.3208C56.9717 18.1966 56.649 18.0369 56.3442 17.8063C56.0573 17.5934 55.8062 17.3272 55.6448 16.9901C55.4655 16.653 55.3759 16.2627 55.3759 15.7659C55.3759 15.2336 55.5014 14.8078 55.7703 14.4529C56.0214 14.0981 56.3621 13.8142 56.7566 13.6013C57.1511 13.3884 57.5993 13.2287 58.0835 13.14C58.5676 13.0513 59.0338 13.0158 59.4642 13.0158C59.9663 13.0158 60.4504 13.069 60.8987 13.1755C61.347 13.2819 61.7773 13.4416 62.1359 13.69C62.5125 13.9207 62.8173 14.24 63.0504 14.6126C63.3015 14.9852 63.4449 15.4465 63.5167 15.9788L61.2752 15.9788C61.1677 15.4643 60.9346 15.1272 60.5759 14.9497C60.1994 14.7723 59.787 14.6836 59.3028 14.6836C59.1594 14.6836 58.9621 14.7013 58.7649 14.7191C58.5497 14.7546 58.3704 14.79 58.1731 14.861C57.9938 14.932 57.8324 15.0384 57.7069 15.1626C57.5814 15.2868 57.5097 15.4643 57.5097 15.6772C57.5097 15.9433 57.5993 16.1385 57.7787 16.2982C57.958 16.4578 58.1911 16.582 58.4959 16.7062C58.7828 16.8127 59.1235 16.9014 59.5001 16.9724C59.8766 17.0434 60.2711 17.1321 60.6656 17.2208C61.0601 17.3095 61.4366 17.4159 61.8132 17.5401C62.1897 17.6643 62.5304 17.824 62.8173 18.0547C63.1042 18.2676 63.3553 18.5337 63.5346 18.8531C63.7139 19.1725 63.8036 19.5805 63.8036 20.0418C63.8036 20.6096 63.678 21.0887 63.4091 21.4967C63.1401 21.8871 62.7994 22.2242 62.387 22.4726C61.9746 22.721 61.4904 22.8984 60.9883 23.0226C60.4683 23.1291 59.9663 23.2 59.4642 23.2C58.8545 23.2 58.2807 23.1291 57.7607 22.9871C57.2407 22.8452 56.7745 22.6323 56.3979 22.3661C56.0214 22.0822 55.7166 21.7451 55.5014 21.3193C55.2862 20.9112 55.1607 20.4144 55.1428 19.8289L57.3124 19.8289L57.3124 19.8467L57.3304 19.8467ZM64.4132 13.2997L66.045 13.2997L66.045 10.3899L68.1967 10.3899L68.1967 13.2819L70.1333 13.2819L70.1333 14.861L68.1967 14.861L68.1967 20.0064C68.1967 20.237 68.2146 20.4144 68.2326 20.5919C68.2505 20.7516 68.3043 20.8935 68.3581 20.9999C68.4298 21.1064 68.5374 21.1951 68.6629 21.2483C68.8064 21.3016 68.9857 21.3371 69.2367 21.3371C69.3802 21.3371 69.5416 21.3371 69.685 21.3193C69.8285 21.3016 69.9898 21.2838 70.1333 21.2483L70.1333 22.8984C69.9002 22.9339 69.6671 22.9516 69.434 22.9694C69.2009 23.0049 68.9857 23.0049 68.7347 23.0049C68.1609 23.0049 67.7126 22.9516 67.3719 22.8452C67.0312 22.7387 66.7622 22.579 66.565 22.3839C66.3677 22.171 66.2422 21.9226 66.1705 21.6209C66.0988 21.3193 66.0629 20.9467 66.045 20.5564L66.045 14.8788L64.4132 14.8788L64.4132 13.2642L64.4132 13.2997ZM71.6395 13.2997L73.6658 13.2997L73.6658 14.6126L73.7016 14.6126C74.0064 14.0449 74.4189 13.6545 74.9568 13.4061C75.4947 13.1577 76.0685 13.0335 76.7141 13.0335C77.4851 13.0335 78.1486 13.1577 78.7224 13.4416C79.2962 13.7078 79.7624 14.0626 80.1389 14.5416C80.5155 15.003 80.8024 15.553 80.9817 16.174C81.161 16.795 81.2686 17.4692 81.2686 18.1611C81.2686 18.8176 81.179 19.4386 81.0176 20.0418C80.8383 20.6451 80.5872 21.1951 80.2465 21.6564C79.9058 22.1177 79.4755 22.4903 78.9375 22.7742C78.3996 23.0581 77.7899 23.2 77.0727 23.2C76.7679 23.2 76.4451 23.1645 76.1403 23.1113C75.8354 23.0581 75.5306 22.9694 75.2437 22.8452C74.9568 22.721 74.6878 22.5613 74.4547 22.3661C74.2037 22.171 74.0064 21.9403 73.8451 21.6919L73.8092 21.6919L73.8092 26.5001L71.6575 26.5001L71.6575 13.2997L71.6395 13.2997ZM79.1527 18.1257C79.1527 17.6998 79.0989 17.274 78.9734 16.8659C78.8658 16.4578 78.6865 16.103 78.4534 15.7836C78.2203 15.4643 77.9334 15.2159 77.6106 15.0207C77.2699 14.8255 76.8755 14.7368 76.4451 14.7368C75.5485 14.7368 74.8672 15.0384 74.4009 15.6594C73.9527 16.2804 73.7195 17.1143 73.7195 18.1434C73.7195 18.6402 73.7733 19.0837 73.8989 19.4918C74.0244 19.8999 74.1858 20.2548 74.4368 20.5564C74.6699 20.858 74.9568 21.0887 75.2975 21.2661C75.6382 21.4435 76.0148 21.5322 76.463 21.5322C76.9651 21.5322 77.3596 21.4258 77.7003 21.2306C78.041 21.0354 78.3099 20.7693 78.5431 20.4677C78.7582 20.1483 78.9196 19.7935 79.0093 19.3854C79.0989 18.9596 79.1527 18.5515 79.1527 18.1257V18.1257ZM82.9362 9.62696L85.088 9.62696L85.088 11.6319L82.9362 11.6319L82.9362 9.62696ZM82.9362 13.2997L85.088 13.2997L85.088 22.9339L82.9362 22.9339L82.9362 13.2997ZM87.0066 9.62696L89.1584 9.62696L89.1584 22.9339L87.0066 22.9339L87.0066 9.62696ZM95.7212 23.2C94.9502 23.2 94.2508 23.0758 93.6412 22.8097C93.0315 22.5436 92.5294 22.2064 92.0991 21.7629C91.6867 21.3193 91.3639 20.7693 91.1487 20.1483C90.9336 19.5273 90.808 18.8354 90.808 18.1079C90.808 17.3805 90.9156 16.7062 91.1487 16.0853C91.3639 15.4643 91.6867 14.932 92.0991 14.4707C92.5115 14.0271 93.0315 13.6723 93.6412 13.4239C94.2508 13.1755 94.9502 13.0335 95.7212 13.0335C96.4923 13.0335 97.1916 13.1577 97.8012 13.4239C98.4109 13.6723 98.913 14.0271 99.3433 14.4707C99.7557 14.9142 100.079 15.4643 100.294 16.0853C100.509 16.7062 100.634 17.3805 100.634 18.1079C100.634 18.8531 100.527 19.5273 100.294 20.1483C100.061 20.7693 99.7557 21.3016 99.3433 21.7629C98.9309 22.2064 98.4109 22.5613 97.8012 22.8097C97.1916 23.0581 96.5102 23.2 95.7212 23.2ZM95.7212 21.5145C96.1874 21.5145 96.6178 21.408 96.9585 21.2129C97.3171 21.0177 97.5861 20.7516 97.8192 20.4322C98.0523 20.1128 98.2137 19.7402 98.3212 19.3499C98.4288 18.9418 98.4826 18.5337 98.4826 18.1079C98.4826 17.6998 98.4288 17.2918 98.3212 16.8837C98.2137 16.4756 98.0523 16.1207 97.8192 15.8014C97.5861 15.482 97.2992 15.2336 96.9585 15.0384C96.5998 14.8433 96.1874 14.7368 95.7212 14.7368C95.255 14.7368 94.8247 14.8433 94.484 15.0384C94.1253 15.2336 93.8564 15.4997 93.6233 15.8014C93.3902 16.1207 93.2288 16.4756 93.1212 16.8837C93.0136 17.2918 92.9598 17.6998 92.9598 18.1079C92.9598 18.5337 93.0136 18.9418 93.1212 19.3499C93.2288 19.758 93.3902 20.1128 93.6233 20.4322C93.8564 20.7516 94.1433 21.0177 94.484 21.2129C94.8426 21.4258 95.255 21.5145 95.7212 21.5145ZM101.28 13.2997L102.912 13.2997L102.912 10.3899L105.063 10.3899L105.063 13.2819L107 13.2819L107 14.861L105.063 14.861L105.063 20.0064C105.063 20.237 105.081 20.4144 105.099 20.5919C105.117 20.7516 105.171 20.8935 105.225 20.9999C105.297 21.1064 105.404 21.1951 105.53 21.2483C105.673 21.3016 105.852 21.3371 106.103 21.3371C106.247 21.3371 106.408 21.3371 106.552 21.3193C106.695 21.3016 106.857 21.2838 107 21.2483L107 22.8984C106.767 22.9339 106.534 22.9516 106.301 22.9694C106.068 23.0049 105.852 23.0049 105.601 23.0049C105.028 23.0049 104.579 22.9516 104.239 22.8452C103.898 22.7387 103.629 22.579 103.432 22.3839C103.234 22.171 103.109 21.9226 103.037 21.6209C102.965 21.3193 102.93 20.9467 102.912 20.5564L102.912 14.8788L101.28 14.8788L101.28 13.2642L101.28 13.2997Z" fill="currentColor"></path>
    <path d="M25.7672 9.76163L15.923 9.76163L12.8926 0.500001L9.84426 9.76163L-8.08126e-07 9.74389L7.96148 15.4747L4.91317 24.7364L12.8746 19.0055L20.8361 24.7364L17.8057 15.4747L25.7672 9.76163Z" fill="#00B67A"></path>
    <path d="M18.4871 17.5682L17.8057 15.4746L12.8926 19.0054L18.4871 17.5682Z" fill="#005128"></path>
  </symbol>
</svg>
