<svg xmlns="http://www.w3.org/2000/svg">
  <symbol xmlns="http://www.w3.org/2000/svg" viewBox="0 0 160 61.44" id="reuteres">
    <path d="M56.29 0h-2.54v7h.93V4.5h1.61a2.17 2.17 0 001.61-.65 2.17 2.17 0 00.65-1.6 2.15 2.15 0 00-.65-1.6A2.17 2.17 0 0056.29 0zm1 3.24a1.28 1.28 0 01-1 .39h-1.61V.87h1.61a1.28 1.28 0 011 .39 1.36 1.36 0 01.38 1 1.38 1.38 0 01-.42.98zm4.28-1.37A2.6 2.6 0 0058.9 4.5a2.64 2.64 0 105.27 0 2.52 2.52 0 00-.77-1.87 2.56 2.56 0 00-1.87-.76zm1.26 3.9a1.77 1.77 0 01-3-1.27 1.72 1.72 0 01.51-1.27 1.8 1.8 0 012.51 0 1.72 1.72 0 01.45 1.27 1.72 1.72 0 01-.51 1.27zM70.89 2h.91l-1.55 5h-.89l-1.17-3.7L67 7h-.87l-1.55-5h.91l1.1 3.8L67.77 2h.84l1.18 3.81zm4-.13a2.52 2.52 0 00-1.89.75 2.59 2.59 0 00-.73 1.88A2.58 2.58 0 0073 6.39a2.64 2.64 0 001.94.74A2.44 2.44 0 0077.1 6l-.74-.42a1.56 1.56 0 01-1.44.73 1.93 1.93 0 01-1.2-.37 1.66 1.66 0 01-.61-1h4.19a2.63 2.63 0 000-.39 2.67 2.67 0 00-.7-1.86 2.28 2.28 0 00-1.76-.82zm-1.78 2.27a1.67 1.67 0 011.73-1.45 1.6 1.6 0 011 .37 1.67 1.67 0 01.56 1.08h-3.29zm7.65-2.23v.91a1.58 1.58 0 00-1.1.34 1.44 1.44 0 00-.46 1.19V7h-.87V2h.87v.84a1.57 1.57 0 011.56-.93zm2.92 0a2.52 2.52 0 00-1.89.75 2.59 2.59 0 00-.73 1.88 2.58 2.58 0 00.74 1.89 2.64 2.64 0 001.94.74A2.44 2.44 0 0085.94 6l-.74-.42a1.56 1.56 0 01-1.44.73 1.93 1.93 0 01-1.2-.37 1.66 1.66 0 01-.61-1h4.19a2.63 2.63 0 000-.39 2.67 2.67 0 00-.7-1.86 2.28 2.28 0 00-1.76-.82zm-1.73 2.23a1.67 1.67 0 011.73-1.45 1.6 1.6 0 011.05.37 1.67 1.67 0 01.56 1.08h-3.34zm9.35-1.28a2.12 2.12 0 00-1.89-1 2.39 2.39 0 00-1.79.77 2.57 2.57 0 00-.74 1.86 2.6 2.6 0 00.74 1.87 2.41 2.41 0 001.79.76 2.12 2.12 0 001.89-1V7h.87V0h-.87v2.86zm-.51 2.92a1.82 1.82 0 01-2.53 0 1.76 1.76 0 01-.51-1.28 1.72 1.72 0 01.51-1.27 1.8 1.8 0 012.53 0 1.72 1.72 0 01.51 1.27 1.76 1.76 0 01-.51 1.28zm8-3.91a2.12 2.12 0 00-1.89 1V0H96v7h.87v-.86a2.12 2.12 0 001.89 1 2.41 2.41 0 001.79-.76 2.6 2.6 0 00.74-1.87 2.56 2.56 0 00-.74-1.86 2.39 2.39 0 00-1.81-.78zm1.15 3.91a1.82 1.82 0 01-2.53 0 1.76 1.76 0 01-.51-1.28 1.76 1.76 0 011.78-1.79 1.7 1.7 0 011.26.52 1.72 1.72 0 01.51 1.27 1.76 1.76 0 01-.56 1.28zm6.6-3.78l-2 5.31a2.8 2.8 0 01-.9 1.29 1.86 1.86 0 01-1.32.4v-.81a1.32 1.32 0 001.35-1l.05-.19-2.18-5h.93l1.7 3.92L105.61 2h.93z" fill-opacity=".4"></path>
    <path d="M42.92 47.46a2 2 0 11-3.77-1 2.08 2.08 0 011.79-1 2 2 0 011.98 2zm-4.55 3.24a1.72 1.72 0 101.73 1.7 1.72 1.72 0 00-1.73-1.7zm-3.86 4.11A1.49 1.49 0 1036 56.25a1.49 1.49 0 00-1.49-1.43zm-4.25 2.79a1.21 1.21 0 101.21 1.21 1.19 1.19 0 00-1.21-1.21zm-4.21 1.45a1 1 0 101 1 1 1 0 00-1-.99zm-3.93.59a.9.9 0 10.9.9.94.94 0 00-.9-.89zm-4-.59a1 1 0 101 1 1 1 0 00-.96-.99zM14 57.57a1.19 1.19 0 101.21 1.18A1.27 1.27 0 0014 57.57zm-4.3-2.75a1.52 1.52 0 00-1.3.74 1.42 1.42 0 000 1.49 1.49 1.49 0 101.25-2.23zM5.85 50.7a1.73 1.73 0 101.73 1.73 1.75 1.75 0 00-1.73-1.73zm-.59-3.24a2 2 0 00-2-2 2 2 0 102 2zm-.56-6.22a2.35 2.35 0 10-2.35 2.35 2.37 2.37 0 002.35-2.35zM3.28 37a2 2 0 002-2 2 2 0 00-2-2 2.08 2.08 0 00-1.79 1 2 2 0 001.79 3zm2.57-5.23A1.74 1.74 0 007.55 30a1.79 1.79 0 00-1.7-1.73 1.71 1.71 0 00-1.52.87 1.73 1.73 0 000 1.73 1.78 1.78 0 001.52.87zm3.81-4.15a1.49 1.49 0 10-1.49-1.49 1.49 1.49 0 001.48 1.46zM14 24.84a1.21 1.21 0 001.21-1.21A1.25 1.25 0 0014 22.42a1.21 1.21 0 000 2.42zm4.21-1.42a1 1 0 001-1 1.06 1.06 0 00-1-1.08 1.05 1.05 0 00-.05 2.07zm3.93-.62a.9.9 0 10-.9-.9.9.9 0 00.85.89zm4 .56a1 1 0 001-1 1 1 0 00-1-1 1 1 0 00-.09 1.99zm4.21 1.45a1.21 1.21 0 001.21-1.21 1.16 1.16 0 00-1.21-1.18 1.19 1.19 0 10-.09 2.39zm4.3 2.82a1.49 1.49 0 10-1.49-1.49 1.49 1.49 0 001.4 1.48zm3.81 4.12A1.73 1.73 0 1036.64 30a1.73 1.73 0 001.73 1.74zm.77 2.2a2 2 0 103.77 1 2 2 0 00-2-2 2.08 2.08 0 00-1.86.98zM31.65 44.3a.9.9 0 00-.8.43 1 1 0 000 .93.84.84 0 00.8.43.91.91 0 00.87-.9.89.89 0 00-.87-.89zm-2.26 5.17a.9.9 0 000-1.79.9.9 0 00-.8.43 1 1 0 000 .93.87.87 0 00.8.43zM26 51.82a1 1 0 100-2 1 1 0 00-.87.49 1 1 0 000 1 1 1 0 00.87.51zm-2.63-.06a1.36 1.36 0 00-1.33-1.33 1.33 1.33 0 101.35 1.33zm-3.81-.62a1.52 1.52 0 10-1.52 1.52 1.52 1.52 0 001.55-1.52zm-5.11-.71a1.67 1.67 0 10-1.67-1.67 1.66 1.66 0 001.7 1.67zm-2.35-6.75a1.39 1.39 0 101.39 1.39 1.39 1.39 0 00-1.39-1.39zm-1.64-2.63a1.08 1.08 0 002.17 0A1.06 1.06 0 0011.54 40a1.1 1.1 0 00-1.08 1.05zm2-2.94a.9.9 0 00.9-.9.88.88 0 00-.9-.9.9.9 0 00.04 1.8zm2.29-3.34a.9.9 0 00.9-.9.94.94 0 00-.9-.9.9.9 0 00-.8.43 1 1 0 000 .93.87.87 0 00.84.44zm3.34-4.15a1 1 0 101 1 1 1 0 00-.96-1zm2.66 0a1.33 1.33 0 101.38-1.28 1.33 1.33 0 00-1.34 1.28zm3.78.69a1.52 1.52 0 101.52-1.52 1.52 1.52 0 00-1.48 1.51zm6.78 2.38a1.67 1.67 0 10-1.67 1.67 1.66 1.66 0 001.7-1.67zm.71 5a1.39 1.39 0 10-1.39-1.39 1.39 1.39 0 001.43 1.43zM29.2 42.9a.84.84 0 10-.84.84.84.84 0 00.88-.8zm-2.44 1.8A1.24 1.24 0 1028 45.94a1.2 1.2 0 00-1.24-1.24zm-3.19 1.67a1.3 1.3 0 101.3 1.3 1.31 1.31 0 00-1.29-1.3zm-3.77-.09a1.11 1.11 0 00-1 .59 1.09 1.09 0 000 1.14 1.14 1.14 0 002.13-.56 1.13 1.13 0 00-1.13-1.17zm-2.8-.22a.84.84 0 10-.84-.84.83.83 0 00.84.84zm-.5-3.5a.62.62 0 10-.62.62.62.62 0 00.64-.61zM15 39.6a.84.84 0 10.84-.84.83.83 0 00-.84.84zm2.48-1.79a1.24 1.24 0 10-1.24-1.24 1.24 1.24 0 001.24 1.23zm3.19-1.67a1.3 1.3 0 10-1.3-1.3 1.31 1.31 0 001.3 1.29zm2.75-.46a1.1 1.1 0 001 .56 1.15 1.15 0 000-2.29 1.2 1.2 0 00-1 .56 1.14 1.14 0 000 1.16zm3.77.74a.84.84 0 10.84.84.8.8 0 00-.83-.85zm1.18 4.18a.62.62 0 10-.62-.6.62.62 0 00.62.59zm5.32.8a1.08 1.08 0 10-1.08 1.08 1.1 1.1 0 001.09-1.09zm4.55 1.39a1.14 1.14 0 10-1.14 1.14 1.14 1.14 0 001.14-1.15zM36 47.86a1.1 1.1 0 001-1.09 1.08 1.08 0 00-1-1.08 1.08 1.08 0 100 2.17zm-2 1.24a.93.93 0 10.9.93 1 1 0 00-.9-.93zm-2.35 2.54a.86.86 0 00-.71.4.76.76 0 000 .8.82.82 0 00.71.4.8.8 0 00.8-.8.82.82 0 00-.8-.81zm-1.79 2.54a.68.68 0 10-.68.68.69.69 0 00.68-.69zm-3.5.37a.8.8 0 10.8.8.82.82 0 00-.8-.81zm-3.31.53A.93.93 0 1024 56a1 1 0 00-.95-.93zm-3.77-.37a1.18 1.18 0 101.18 1.18 1.18 1.18 0 00-1.18-1.19zm-4-1.42a1.39 1.39 0 101.39 1.39 1.37 1.37 0 00-1.38-1.41zm-1.89-1a1.67 1.67 0 00-1.61-1.64 1.73 1.73 0 00-1.45.8 1.62 1.62 0 000 1.67 1.6 1.6 0 001.45.8 1.64 1.64 0 001.62-1.67zm-2.75-3.81a1.78 1.78 0 00-1.79-1.79 1.79 1.79 0 101.79 1.76zm-3.55-3.15a1.42 1.42 0 10-1.32-1.52 1.42 1.42 0 001.32 1.52zm1.16-5.63A1.14 1.14 0 107 40.78a1.14 1.14 0 001.25-1.08zm1.1-4.06a1.08 1.08 0 10-1.08 1.08 1.1 1.1 0 001.07-1.08zm.87-2.29a.92.92 0 00.9-.93.91.91 0 00-.9-.93.86.86 0 00-.8.46 1 1 0 000 .93 1 1 0 00.79.47zm2.35-2.54a.78.78 0 00.8-.8.82.82 0 00-.8-.8.8.8 0 00-.01 1.6zm1.79-2.54a.68.68 0 101.36 0 .67.67 0 00-.72-.68.69.69 0 00-.64.68zm3.5-.34a.8.8 0 10-.8-.8.8.8 0 00.79.8zm3.31-.56a.92.92 0 00.9-.93 1 1 0 00-.9-.93.86.86 0 00-.8.46 1 1 0 000 .93 1 1 0 00.79.47zm3.77.37a1.2 1.2 0 001.18-1.21 1.18 1.18 0 00-1.18-1.18 1.19 1.19 0 100 2.4zm3.87 1.36a1.42 1.42 0 001.42-1.42 1.44 1.44 0 00-1.42-1.42 1.42 1.42 0 100 2.85zm2 1a1.65 1.65 0 001.64 1.64 1.63 1.63 0 001.64-1.64 1.65 1.65 0 00-1.64-1.64 1.63 1.63 0 00-1.63 1.67zm3 3a1.71 1.71 0 000 1.79 1.84 1.84 0 001.58.9A1.79 1.79 0 0037.13 34a1.79 1.79 0 00-3.34-.9zm3.22 4a1.43 1.43 0 00-1.24.68 1.46 1.46 0 000 1.42 1.36 1.36 0 001.24.68 1.39 1.39 0 00-.03-2.76zm4.86 1.73a2.35 2.35 0 102.35 2.35 2.39 2.39 0 00-2.38-2.33z" fill="#ec6519"></path>
    <path d="M160 44.83c0 2.35-1.45 4.89-6.19 4.83a26.1 26.1 0 01-5.29-.62.5.5 0 01-.43-.46V46.9a.42.42 0 01.43-.43h.06a40.68 40.68 0 005.29.43c2.1 0 2.72-.74 2.72-2.1 0-1.73-4.18-2.72-6.22-3.56a4.16 4.16 0 01-2.75-4.08c0-2.6 2.07-4.46 6.41-4.46a23.49 23.49 0 015.08.62.47.47 0 01.43.43v1.73a.4.4 0 01-.4.43h-.06a45 45 0 00-5.17-.43c-1.73 0-3 .62-3 1.67 0 .77.9 1.49 1.92 1.89s2.41 1 4 1.58c1.9.8 3.17 1.98 3.17 4.21zm-45.79-11.95h-12.6a.45.45 0 00-.46.43v1.86a.43.43 0 00.46.43h4.67V49a.48.48 0 00.46.46h2.32a.48.48 0 00.46-.46V35.6h4.67a.43.43 0 00.46-.43v-1.86a.45.45 0 00-.44-.43zm-15.56 0h-2.33a.45.45 0 00-.46.43v9.72c0 2.66-1.24 3.93-3.74 3.93s-3.74-1.27-3.74-3.93v-9.68a.45.45 0 00-.46-.43h-2.33a.45.45 0 00-.46.43v9.72c0 5 3.25 6.62 7 6.62s7-1.61 7-6.59v-9.75a.45.45 0 00-.49-.44zm29.18.15a29.74 29.74 0 00-5-.34c-3.87 0-5.94 0-5.94 4.8v7.4c0 4.83 2.07 4.8 5.94 4.8a29.74 29.74 0 005-.34.42.42 0 00.46-.49v-1.47a.48.48 0 00-.46-.46h-5.91c-1.76 0-1.86-.06-1.86-2v-2.64h7.49a.48.48 0 00.46-.46v-1.7a.48.48 0 00-.46-.46h-7.49v-2.15c0-1.95.06-2 1.86-2h5.91a.48.48 0 00.46-.46v-1.5a.43.43 0 00-.47-.49zm-46.2 0a29.73 29.73 0 00-5-.34c-3.87 0-5.94 0-5.94 4.8v7.4c0 4.83 2.07 4.8 5.94 4.8a29.73 29.73 0 005-.34.42.42 0 00.46-.49v-1.47a.48.48 0 00-.46-.46h-5.92c-1.76 0-1.86-.06-1.86-2v-2.64h7.49a.48.48 0 00.46-.46v-1.7a.48.48 0 00-.46-.46h-7.48v-2.15c0-1.95.06-2 1.86-2h5.91a.48.48 0 00.46-.52v-1.44a.43.43 0 00-.47-.49zm64 16a.44.44 0 01.06.19.26.26 0 01-.28.28h-2.85a.64.64 0 01-.46-.46l-3.37-5.66h-.53c-.62 0-2.51-.06-3-.09v5.79a.45.45 0 01-.43.46h-2.35a.48.48 0 01-.46-.46V33.75a.69.69 0 01.74-.71 48 48 0 015.54-.31c3.62 0 6.93 1.3 6.93 5.29v.18a4.5 4.5 0 01-3.17 4.58zm-3.74-11c0-1.76-1.36-2.51-3.71-2.51-.49 0-2.63 0-3 .09v5l3 .06c2.41 0 3.71-.46 3.71-2.51V38zM68.1 49a.39.39 0 010 .19.26.26 0 01-.28.28H65a.64.64 0 01-.46-.47l-3.37-5.66h-.52c-.62 0-2.51-.06-3-.09v5.79a.45.45 0 01-.43.46h-2.39a.48.48 0 01-.46-.46V33.75a.69.69 0 01.74-.75 48 48 0 015.54-.31c3.62 0 6.93 1.3 6.93 5.29v.22a4.5 4.5 0 01-3.16 4.58zm-3.74-11c0-1.76-1.33-2.51-3.68-2.51-.49 0-2.63 0-3 .09v5l3 .06c2.38 0 3.68-.46 3.68-2.51V38z" fill="#404040"></path>
  </symbol>
  <symbol viewBox="0 0 83 21" fill="none" id="trustpilot-logo">
    <path class="logoName" d="M21.556 7.135h8.297V8.68h-3.267v8.707h-1.79V8.68h-3.253l.013-1.545zm7.942 2.83h1.53V11.4h.028c.055-.205.15-.396.287-.588.137-.19.3-.368.506-.519a2.24 2.24 0 0 1 .656-.383 1.91 1.91 0 0 1 .724-.15c.192 0 .329.014.397.014.068.013.15.027.219.027v1.572c-.11-.027-.233-.041-.356-.055-.123-.013-.232-.027-.355-.027-.273 0-.533.055-.78.164a2 2 0 0 0-.642.478 2.593 2.593 0 0 0-.437.793c-.11.315-.164.684-.164 1.094v3.526h-1.64l.027-7.381zm11.865 7.422H39.75V16.35h-.028c-.205.382-.505.67-.902.902a2.381 2.381 0 0 1-1.216.341c-.97 0-1.682-.232-2.12-.724-.437-.478-.655-1.216-.655-2.187V9.965h1.64v4.552c0 .656.123 1.12.383 1.38.246.274.601.41 1.052.41.342 0 .63-.054.861-.163.233-.11.424-.246.56-.424.151-.178.247-.397.315-.643a3.01 3.01 0 0 0 .096-.806V9.965h1.64v7.422h-.013zm2.788-2.378c.055.479.232.806.547 1.012.314.19.697.287 1.134.287.15 0 .328-.014.52-.041.191-.028.383-.069.547-.137a.96.96 0 0 0 .423-.3.7.7 0 0 0 .15-.507.736.736 0 0 0-.232-.519 1.938 1.938 0 0 0-.547-.328 4.746 4.746 0 0 0-.765-.205c-.287-.055-.574-.123-.875-.192-.3-.068-.601-.15-.888-.245a2.547 2.547 0 0 1-.766-.397 1.704 1.704 0 0 1-.533-.629c-.136-.26-.205-.56-.205-.943 0-.41.096-.738.3-1.011a2.18 2.18 0 0 1 .753-.657c.3-.164.642-.287 1.011-.355.37-.068.725-.096 1.053-.096a4.7 4.7 0 0 1 1.093.123c.342.082.67.205.943.397.287.178.52.424.697.71.192.288.301.643.356 1.053h-1.709c-.082-.396-.26-.656-.533-.793a2.201 2.201 0 0 0-.97-.205c-.11 0-.26.014-.41.028a2.42 2.42 0 0 0-.451.109 1.07 1.07 0 0 0-.356.232.547.547 0 0 0-.15.397.6.6 0 0 0 .205.478c.136.123.314.219.547.314.218.083.478.15.765.206.287.054.588.123.889.191.3.068.587.15.874.246.287.096.547.219.766.396.218.165.41.37.547.615.136.247.205.561.205.916 0 .438-.096.807-.301 1.121-.205.301-.465.56-.78.752a3.86 3.86 0 0 1-1.065.424 5.74 5.74 0 0 1-1.162.137c-.465 0-.902-.055-1.299-.165a3.309 3.309 0 0 1-1.039-.478 2.297 2.297 0 0 1-.683-.806c-.164-.315-.26-.698-.273-1.149h1.653v.014h.014zm5.4-5.044h1.243V7.723h1.64v2.228h1.477v1.217h-1.477v3.964c0 .178.014.314.028.451a.945.945 0 0 0 .096.315c.054.082.136.15.232.19.11.042.246.07.437.07.11 0 .233 0 .342-.014.11-.014.232-.028.342-.055v1.271a7.026 7.026 0 0 1-.533.055c-.178.027-.342.027-.533.027-.438 0-.78-.04-1.04-.123a1.492 1.492 0 0 1-.614-.355 1.27 1.27 0 0 1-.301-.588 4.668 4.668 0 0 1-.096-.82v-4.374H49.55V9.938v.027zm5.508 0h1.545v1.012h.027a2.03 2.03 0 0 1 .957-.93 3.1 3.1 0 0 1 1.34-.287c.587 0 1.093.096 1.53.314a2.87 2.87 0 0 1 1.08.848c.287.355.506.779.643 1.258.136.478.218.997.218 1.53 0 .506-.068.985-.191 1.45a4.02 4.02 0 0 1-.588 1.243 2.91 2.91 0 0 1-.998.862c-.41.218-.874.328-1.421.328-.233 0-.479-.028-.711-.069a3.03 3.03 0 0 1-.684-.205 2.455 2.455 0 0 1-.601-.369 2.084 2.084 0 0 1-.465-.52h-.027v3.705h-1.64V9.965h-.014zm5.727 3.718a3.33 3.33 0 0 0-.136-.97 2.476 2.476 0 0 0-.397-.834 2.187 2.187 0 0 0-.642-.588c-.26-.15-.56-.219-.889-.219-.683 0-1.203.233-1.558.711-.342.479-.52 1.12-.52 1.914 0 .383.042.724.137 1.039.096.314.219.587.41.82.178.232.397.41.656.547.26.136.547.205.889.205.383 0 .683-.082.943-.233.26-.15.465-.355.643-.587a2.41 2.41 0 0 0 .355-.834c.068-.328.11-.643.11-.97zm2.884-6.548h1.64V8.68h-1.64V7.135zm0 2.83h1.64v7.422h-1.64V9.965zm3.103-2.83h1.64v10.252h-1.64V7.135zm6.644 10.458c-.588 0-1.121-.096-1.586-.301a3.598 3.598 0 0 1-1.176-.807 3.512 3.512 0 0 1-.724-1.244 4.86 4.86 0 0 1-.26-1.572c0-.56.082-1.08.26-1.558a3.65 3.65 0 0 1 .724-1.244 3.28 3.28 0 0 1 1.176-.806 4.15 4.15 0 0 1 1.585-.301c.588 0 1.121.096 1.586.3.465.192.848.465 1.176.807.314.342.56.766.724 1.244.164.478.26.998.26 1.558 0 .574-.082 1.094-.26 1.572a3.87 3.87 0 0 1-.724 1.244 3.29 3.29 0 0 1-1.176.807c-.465.191-.984.3-1.585.3zm0-1.3c.355 0 .683-.081.943-.231.273-.15.478-.356.656-.602.177-.246.3-.533.382-.834a3.746 3.746 0 0 0 0-1.9 2.45 2.45 0 0 0-.382-.834 2.078 2.078 0 0 0-.656-.587 1.929 1.929 0 0 0-.944-.233 1.89 1.89 0 0 0-.943.233c-.273.15-.478.355-.656.587-.177.247-.3.52-.382.834a3.724 3.724 0 0 0 0 1.9c.081.315.205.588.382.834.178.246.397.451.656.602.274.164.588.232.944.232zm4.237-6.328h1.244V7.723h1.64v2.228h1.476v1.217h-1.476v3.964c0 .178.014.314.028.451a.945.945 0 0 0 .095.315c.055.082.137.15.233.19.109.042.246.07.437.07.11 0 .232 0 .342-.014.109-.014.232-.028.341-.055v1.271a7.026 7.026 0 0 1-.533.055c-.177.027-.341.027-.533.027-.437 0-.779-.04-1.039-.123a1.494 1.494 0 0 1-.615-.355 1.271 1.271 0 0 1-.3-.588 4.667 4.667 0 0 1-.096-.82v-4.374h-1.244V9.938v.027z"
      fill="currentColor"></path>
    <path d="M19.642 7.135h-7.504L9.828 0 7.504 7.135 0 7.122l6.07 4.415-2.325 7.135 6.07-4.415 6.068 4.415-2.31-7.135 6.07-4.402z" fill="#00B67A"></path>
    <path d="M14.093 13.15l-.52-1.613-3.745 2.72 4.265-1.107z" fill="#005128"></path>
  </symbol>
  <symbol viewBox="0 0 119 23" fill="none" id="trustpilot-rating">
    <path fill="#51B37F" d="M0 .841h22.076v22.076H0zm24.145 0h22.076v22.076H24.145zm24.146 0h22.076v22.076H48.291zm24.145 0h22.076v22.076H72.436z"></path>
    <path fill="#DCDCE5" d="M96.581.841h22.076v22.076H96.581z"></path>
    <path fill="#51B37F" d="M96.581.841h12.076v22.076H96.581z"></path>
    <path fill-rule="evenodd" clip-rule="evenodd" d="M12.665 9.992h5.271l-4.263 3.092-2.63 1.91 2.995-.777-.365-1.133 1.623 5.012-4.263-3.101-4.263 3.101 1.632-5.012L4.14 9.983l5.271.01 1.633-5.013 1.622 5.012zm24.145 0h5.272l-4.263 3.092-2.631 1.91 2.995-.777-.364-1.133 1.622 5.012-4.263-3.101-4.263 3.101 1.633-5.012-4.264-3.101 5.272.01 1.632-5.013 1.622 5.012zm24.146 0h5.271l-4.263 3.092-2.63 1.91 2.995-.777-.365-1.133 1.623 5.012-4.264-3.101-4.263 3.101 1.633-5.012-4.263-3.101 5.27.01 1.633-5.013 1.623 5.012zm24.145 0h5.271l-4.263 3.092-2.63 1.91 2.995-.777-.365-1.133 1.623 5.012-4.263-3.101-4.263 3.101 1.632-5.012-4.263-3.101 5.271.01 1.632-5.013 1.623 5.012zm24.146 0h5.271l-4.263 3.092-2.631 1.91 2.996-.777-.365-1.133 1.622 5.012-4.263-3.101-4.263 3.101 1.633-5.012-4.264-3.101 5.272.01 1.632-5.013 1.623 5.012z"
      fill="#fff"></path>
  </symbol>
  <symbol viewBox="0 0 129 24" fill="none" id="trustpilot-rating-4">
    <rect width="24" height="24" fill="#89CC41"/><rect x="26.2498" y="6.10352e-05" width="24" height="24" fill="#89CC41"/><rect x="52.4999" y="6.10352e-05" width="24" height="24" fill="#89CC41"/><rect x="78.7499" y="6.10352e-05" width="24" height="24" fill="#89CC41"/><rect x="105" y="6.10352e-05" width="24" height="24" fill="#DBDBE5"/><path fill-rule="evenodd" clip-rule="evenodd" d="M13.7692 9.94903L19.4999 9.94903L14.8652 13.3103L12.0051 15.3875L15.2619 14.542L14.8652 13.3103L16.6293 18.7592L11.9946 15.3876L7.36 18.7592L9.13453 13.3103L4.49988 9.93859L10.2306 9.94903L12.0051 4.50006L13.7692 9.94903Z" fill="white"/><path fill-rule="evenodd" clip-rule="evenodd" d="M40.0192 9.94903L45.7499 9.94903L41.1152 13.3103L38.2551 15.3875L41.5119 14.542L41.1152 13.3103L42.8793 18.7592L38.2446 15.3876L33.61 18.7592L35.3845 13.3103L30.7499 9.93859L36.4806 9.94903L38.2551 4.50006L40.0192 9.94903Z" fill="white"/><path fill-rule="evenodd" clip-rule="evenodd" d="M66.2693 9.94903L72 9.94903L67.3653 13.3103L64.5052 15.3875L67.762 14.542L67.3653 13.3103L69.1294 18.7592L64.4948 15.3876L59.8601 18.7592L61.6346 13.3103L57 9.93859L62.7307 9.94903L64.5052 4.50006L66.2693 9.94903Z" fill="white"/><path fill-rule="evenodd" clip-rule="evenodd" d="M92.5191 9.94903L98.2497 9.94903L93.6151 13.3103L90.755 15.3875L94.0117 14.542L93.6151 13.3103L95.3792 18.7592L90.7445 15.3876L86.1099 18.7592L87.8844 13.3103L83.2498 9.93859L88.9804 9.94903L90.755 4.50006L92.5191 9.94903Z" fill="white"/><path fill-rule="evenodd" clip-rule="evenodd" d="M118.769 9.94903L124.5 9.94903L119.865 13.3103L117.005 15.3875L120.262 14.542L119.865 13.3103L121.629 18.7592L116.995 15.3876L112.36 18.7592L114.135 13.3103L109.5 9.93859L115.231 9.94903L117.005 4.50006L118.769 9.94903Z" fill="white"/>
  </symbol>
  <symbol xmlns="http://www.w3.org/2000/svg" viewBox="0 0 194.33 54.91" id="deloitte">
    <path d="M3.62 3.83h3.5v.42a3 3 0 01-.94 2.28 3.45 3.45 0 01-2.49.9 3.59 3.59 0 01-2.65-1 3.55 3.55 0 01-1-2.58 3.51 3.51 0 011-2.57A3.55 3.55 0 013.62.17a3.48 3.48 0 011.83.47A3.28 3.28 0 016.7 1.86l-.8.47a2.22 2.22 0 00-.91-.91 2.59 2.59 0 00-1.37-.35A2.67 2.67 0 00.92 3.8a2.65 2.65 0 00.77 1.94 2.72 2.72 0 002 .78A2.67 2.67 0 005.4 6a2.12 2.12 0 00.79-1.34H3.62v-.83zm5.41-.69V2.3h-.87v5h.87V4.65a1.44 1.44 0 01.46-1.19 1.58 1.58 0 011.13-.34v-.91a1.57 1.57 0 00-1.59.93zm6.36-.21a2.52 2.52 0 01.77 1.87 2.52 2.52 0 01-.77 1.87 2.63 2.63 0 01-4.5-1.87 2.64 2.64 0 014.5-1.87zm-.1 1.87A1.74 1.74 0 0013.52 3a1.7 1.7 0 00-1.25.51 1.72 1.72 0 00-.51 1.27 1.72 1.72 0 00.51 1.27 1.8 1.8 0 002.51 0 1.72 1.72 0 00.51-1.25zm5.33.2a1.73 1.73 0 01-.4 1.25 1.42 1.42 0 01-1 .4 1.23 1.23 0 01-.91-.33 1.31 1.31 0 01-.33-1v-3h-.91v3.05a2.11 2.11 0 00.55 1.51 1.87 1.87 0 001.41.55 1.78 1.78 0 001.59-.85v.72h.87v-5h-.87V5zm6.74-2a2.56 2.56 0 01.76 1.8 2.6 2.6 0 01-.74 1.87 2.41 2.41 0 01-1.76.76 2.12 2.12 0 01-1.89-1V9.3h-.9v-7h.87v.86a2.12 2.12 0 011.89-1 2.39 2.39 0 011.79.78zm-.11 1.8a1.72 1.72 0 00-.51-1.27 1.8 1.8 0 00-2.53 0 1.72 1.72 0 00-.51 1.27 1.76 1.76 0 00.51 1.28 1.82 1.82 0 002.53 0 1.76 1.76 0 00.51-1.28zm1.1-2.08h.75l.65-2.43h-1zm4.39 1.92q-.42-.14-.83-.24a2.84 2.84 0 01-.7-.28.54.54 0 01-.29-.47.55.55 0 01.26-.49 1.08 1.08 0 01.63-.16 1 1 0 011.07.64l.74-.43a1.72 1.72 0 00-.72-.76 2.07 2.07 0 00-1.08-.28 1.93 1.93 0 00-1.27.42 1.34 1.34 0 00-.5 1.07 1.17 1.17 0 00.29.82 1.65 1.65 0 00.7.46q.41.14.82.25a2.4 2.4 0 01.7.28.52.52 0 01.29.46.57.57 0 01-.28.52 1.42 1.42 0 01-.71.16 1.44 1.44 0 01-.79-.21 1.05 1.05 0 01-.45-.57l-.75.43a1.79 1.79 0 00.74.85 2.34 2.34 0 001.25.32A2.1 2.1 0 0033.19 7a1.31 1.31 0 00.53-1.09 1.19 1.19 0 00-.29-.83 1.53 1.53 0 00-.7-.44zM41.49 1a2.15 2.15 0 01.65 1.6 2.17 2.17 0 01-.65 1.6 2.17 2.17 0 01-1.61.65h-1.61V7.3h-.93v-7h2.54a2.17 2.17 0 011.61.7zm-.27 1.55a1.36 1.36 0 00-.38-1 1.28 1.28 0 00-1-.39h-1.57v2.77h1.61a1.28 1.28 0 001-.39 1.38 1.38 0 00.34-.99zm5.69-.25h.87v5h-.87v-.86a2.12 2.12 0 01-1.89 1 2.41 2.41 0 01-1.79-.76 2.6 2.6 0 01-.74-1.87 2.56 2.56 0 01.74-1.86 2.39 2.39 0 011.79-.77 2.12 2.12 0 011.89 1V2.3zm0 2.5A1.76 1.76 0 0045.13 3a1.69 1.69 0 00-1.26.52 1.72 1.72 0 00-.51 1.27 1.76 1.76 0 00.51 1.28 1.82 1.82 0 002.53 0 1.76 1.76 0 00.51-1.27zm3.06-1.66V2.3h-.87v5h.87V4.65a1.44 1.44 0 01.46-1.19 1.58 1.58 0 011.1-.34v-.91a1.57 1.57 0 00-1.56.93zM56.24 3a2.67 2.67 0 01.7 1.86 2.63 2.63 0 010 .39h-4.22a1.66 1.66 0 00.61 1 1.93 1.93 0 001.2.37 1.56 1.56 0 001.44-.73l.74.41a2.44 2.44 0 01-2.2 1.13 2.64 2.64 0 01-1.94-.74 2.58 2.58 0 01-.74-1.89 2.59 2.59 0 01.73-1.88 2.52 2.52 0 011.89-.75 2.28 2.28 0 011.79.83zm-.18 1.44a1.67 1.67 0 00-.56-1.08A1.6 1.6 0 0054.45 3a1.67 1.67 0 00-1.73 1.44h3.34zm4.37-2.27a1.78 1.78 0 00-1.62.83v-.7h-.87v5h.87V4.65a1.69 1.69 0 01.4-1.24 1.4 1.4 0 011-.41 1.21 1.21 0 01.91.34 1.27 1.27 0 01.33.94v3h.87V4.23a2.07 2.07 0 00-.53-1.5 1.85 1.85 0 00-1.36-.56zM64.97.9l-.87.26V2.3h-1v.84h1v2.71a1.39 1.39 0 00.52 1.27 2.6 2.6 0 001.67.18v-.78h-.74a.64.64 0 01-.45-.16.8.8 0 01-.14-.53V3.14h1.33V2.3h-1.32V.9zm5.91 3.3h2.95v-.87h-2.95V1.18h3.2V.3h-4.13v7h4.18v-.88h-3.25V4.2zm6.77-2a1.78 1.78 0 00-1.62.8v-.7h-.87v5h.87V4.65a1.69 1.69 0 01.4-1.24 1.4 1.4 0 011-.41 1.21 1.21 0 01.91.34 1.27 1.27 0 01.33.94v3h.95V4.23a2.07 2.07 0 00-.53-1.5 1.85 1.85 0 00-1.47-.56zM82.2.9l-.87.26V2.3h-1v.84h1v2.71a1.39 1.39 0 00.53 1.27 2.6 2.6 0 001.67.18v-.78h-.74a.64.64 0 01-.45-.16.8.8 0 01-.14-.53V3.14h1.33V2.3H82.2V.9zM85 .22a.55.55 0 00-.38.18.56.56 0 00-.17.41.56.56 0 00.17.41.57.57 0 00.42.17.56.56 0 00.41-.17.56.56 0 00.17-.41.56.56 0 00-.21-.41.54.54 0 00-.41-.18zm-.44 7.08h.87v-5h-.87v5zM88.15.9l-.87.26V2.3h-1v.84h1v2.71a1.39 1.39 0 00.53 1.27 2.6 2.6 0 001.67.18v-.78h-.74a.64.64 0 01-.45-.16.8.8 0 01-.14-.53V3.14h1.33V2.3h-1.34V.9zm4.47 5.32L90.96 2.3h-.93l2.18 5-.09.19a1.32 1.32 0 01-1.35 1v.81a1.86 1.86 0 001.32-.4 2.81 2.81 0 00.9-1.29l2-5.31h-.89zm5.6 1.08h.87v-5h-.83v5zm.44-7.08a.55.55 0 00-.42.18.56.56 0 00-.17.41.56.56 0 00.17.41.57.57 0 00.42.17.56.56 0 00.41-.17.56.56 0 00.21-.41.56.56 0 00-.17-.41.54.54 0 00-.41-.18zm4.31 4.42c-.27-.09-.55-.17-.82-.24a2.84 2.84 0 01-.7-.28.54.54 0 01-.29-.47.55.55 0 01.26-.49 1.08 1.08 0 01.67-.16 1 1 0 011.07.64l.73-.41a1.72 1.72 0 00-.72-.76 2.07 2.07 0 00-1.08-.28 1.93 1.93 0 00-1.27.42 1.34 1.34 0 00-.5 1.07 1.18 1.18 0 00.29.82 1.65 1.65 0 00.7.46c.27.09.55.18.82.25a2.4 2.4 0 01.7.28.52.52 0 01.29.46.57.57 0 01-.28.52 1.42 1.42 0 01-.71.16 1.44 1.44 0 01-.79-.21 1.06 1.06 0 01-.45-.57l-.75.43a1.79 1.79 0 00.74.85 2.34 2.34 0 001.25.32 2.1 2.1 0 001.34-.45 1.31 1.31 0 00.53-1.09 1.19 1.19 0 00-.29-.83 1.53 1.53 0 00-.7-.44zm8.65-2.34h.87v5h-.87v-.86a2.12 2.12 0 01-1.89 1 2.41 2.41 0 01-1.79-.76 2.6 2.6 0 01-.74-1.87 2.57 2.57 0 01.74-1.86 2.39 2.39 0 011.79-.77 2.12 2.12 0 011.89 1V2.3zm0 2.5a1.72 1.72 0 00-.51-1.27 1.8 1.8 0 00-2.53 0 1.72 1.72 0 00-.51 1.27 1.76 1.76 0 00.55 1.28 1.82 1.82 0 002.53 0 1.76 1.76 0 00.47-1.28zm5.68.2a1.73 1.73 0 01-.4 1.25 1.42 1.42 0 01-1 .4 1.23 1.23 0 01-.91-.33 1.31 1.31 0 01-.33-1v-3h-.87v3.05a2.11 2.11 0 00.53 1.51 1.87 1.87 0 001.41.55 1.78 1.78 0 001.62-.85v.72h.87v-5h-.87V5zm6.32-4.7h.87v7h-.87v-.86a2.12 2.12 0 01-1.89 1 2.41 2.41 0 01-1.79-.76 2.6 2.6 0 01-.74-1.87 2.56 2.56 0 01.74-1.86 2.39 2.39 0 011.79-.77 2.12 2.12 0 011.89 1V.3zm0 4.5a1.76 1.76 0 00-1.76-1.8 1.69 1.69 0 00-1.26.52 1.72 1.72 0 00-.51 1.27 1.76 1.76 0 00.53 1.29 1.82 1.82 0 002.53 0 1.76 1.76 0 00.47-1.28zm2.63-4.58a.55.55 0 00-.42.18.56.56 0 00-.17.41.56.56 0 00.17.41.57.57 0 00.42.17.56.56 0 00.41-.17.56.56 0 00.17-.41.56.56 0 00-.15-.41.54.54 0 00-.41-.18zm-.42 7.08h.87v-5h-.87v5zm3.59-6.4l-.87.26V2.3h-1v.84h1v2.71a1.39 1.39 0 00.53 1.27 2.6 2.6 0 001.67.18v-.78h-.74a.64.64 0 01-.45-.16.8.8 0 01-.14-.53V3.14h1.33V2.3h-1.33V.9zm6.2 2.1a2.67 2.67 0 01.7 1.86 2.63 2.63 0 010 .39h-4.19a1.66 1.66 0 00.61 1 1.94 1.94 0 001.2.37 1.56 1.56 0 001.44-.73l.74.41a2.44 2.44 0 01-2.2 1.13 2.64 2.64 0 01-1.94-.74 2.58 2.58 0 01-.74-1.89 2.59 2.59 0 01.73-1.88 2.52 2.52 0 011.89-.75 2.28 2.28 0 011.76.83zm-.18 1.49a1.67 1.67 0 00-.56-1.08 1.6 1.6 0 00-1-.37 1.67 1.67 0 00-1.73 1.45h3.34zm6-4.14h.87v7h-.87v-.91a2.12 2.12 0 01-1.89 1 2.41 2.41 0 01-1.79-.76 2.6 2.6 0 01-.74-1.87 2.56 2.56 0 01.74-1.86 2.39 2.39 0 011.86-.78 2.12 2.12 0 011.89 1V.3zm0 4.5A1.76 1.76 0 00139.7 3a1.69 1.69 0 00-1.26.52 1.72 1.72 0 00-.51 1.27 1.76 1.76 0 00.51 1.28 1.82 1.82 0 002.53 0 1.76 1.76 0 00.51-1.27zm9.24-1.86a2.57 2.57 0 01.74 1.86 2.6 2.6 0 01-.74 1.87 2.41 2.41 0 01-1.79.76 2.12 2.12 0 01-1.89-1v.82h-.87v-7h.87v2.86a2.12 2.12 0 011.89-1 2.39 2.39 0 011.83.78zm-.06 1.81a1.72 1.72 0 00-.51-1.27 1.8 1.8 0 00-2.53 0 1.72 1.72 0 00-.51 1.27 1.76 1.76 0 00.51 1.28 1.82 1.82 0 002.53 0 1.76 1.76 0 00.51-1.28zm3.76 1.42l-1.76-3.92h-.9l2.18 5-.09.19a1.32 1.32 0 01-1.35 1v.81a1.86 1.86 0 001.32-.4 2.8 2.8 0 00.9-1.29l2-5.31h-.93zM164.12.3h.87v7h-.87v-.86a2.12 2.12 0 01-1.89 1 2.41 2.41 0 01-1.79-.76 2.6 2.6 0 01-.82-1.88 2.57 2.57 0 01.74-1.86 2.39 2.39 0 011.79-.77 2.12 2.12 0 011.89 1V.3zm0 4.5a1.72 1.72 0 00-.5-1.27 1.8 1.8 0 00-2.53 0 1.72 1.72 0 00-.51 1.27 1.76 1.76 0 00.51 1.28 1.82 1.82 0 002.53 0 1.76 1.76 0 00.47-1.28zm6.29-1.8a2.67 2.67 0 01.7 1.86 2.63 2.63 0 010 .39h-4.19a1.66 1.66 0 00.61 1 1.93 1.93 0 001.2.37 1.56 1.56 0 001.44-.73l.74.42a2.44 2.44 0 01-2.2 1.13 2.64 2.64 0 01-1.94-.74 2.58 2.58 0 01-.74-1.89 2.59 2.59 0 01.73-1.88 2.52 2.52 0 011.86-.76 2.28 2.28 0 011.79.83zm-.18 1.49a1.67 1.67 0 00-.61-1.13 1.6 1.6 0 00-1-.36 1.7 1.7 0 00-1.16.4 1.69 1.69 0 00-.57 1h3.34zm1.88 2.86h.87V0h-.87v7.3zm6.42-4.37a2.52 2.52 0 01.77 1.87 2.52 2.52 0 01-.77 1.87 2.63 2.63 0 01-4.5-1.87 2.64 2.64 0 014.49-1.92zm-.11 1.82a1.74 1.74 0 00-1.8-1.8 1.7 1.7 0 00-1.25.51 1.72 1.72 0 00-.51 1.27 1.72 1.72 0 00.51 1.27 1.8 1.8 0 002.51 0 1.72 1.72 0 00.54-1.25zm1.9 2.5h.87v-5h-.87v5zm.44-7.08a.55.55 0 00-.42.18.56.56 0 00-.17.41.56.56 0 00.17.41.57.57 0 00.42.17.56.56 0 00.41-.17.56.56 0 00.17-.41.56.56 0 00-.17-.41.54.54 0 00-.41-.18zm3.15.68l-.87.26V2.3h-1v.84h1v2.71a1.39 1.39 0 00.53 1.27 2.6 2.6 0 001.67.18v-.78h-.74a.64.64 0 01-.45-.16.8.8 0 01-.14-.53V3.14h1.33V2.3h-1.33V.9zm3.49 0l-.87.26V2.3h-1v.84h1v2.71a1.39 1.39 0 00.53 1.27 2.6 2.6 0 001.67.18v-.78h-.74a.64.64 0 01-.45-.16.8.8 0 01-.14-.53V3.14h1.33V2.3h-1.33V.9zm6.91 4.3h-4.19a1.65 1.65 0 00.61 1 1.93 1.93 0 001.2.37 1.56 1.56 0 001.44-.73l.74.42a2.44 2.44 0 01-2.2 1.13 2.64 2.64 0 01-1.94-.74 2.58 2.58 0 01-.74-1.89 2.59 2.59 0 01.73-1.88 2.52 2.52 0 011.89-.75 2.28 2.28 0 011.77.87 2.67 2.67 0 01.7 1.86 2.63 2.63 0 01-.02.34zm-.85-.76a1.67 1.67 0 00-.56-1.08 1.6 1.6 0 00-1-.37 1.67 1.67 0 00-1.73 1.45h3.34z" fill-opacity=".4"></path>
    <path d="M159.62 51.24a3.67 3.67 0 113.67 3.67 3.68 3.68 0 01-3.67-3.67z" fill="#86bc24"></path>
    <path d="M36.88 29.1h-8.59v25.41h8q6.2 0 9.62-3.44t3.42-9.8q0-5.91-3.25-9t-9.2-3.17zm4.09 18a5.34 5.34 0 01-4.48 1.82H35V34.64h2a4.93 4.93 0 014.1 1.69 8.22 8.22 0 011.35 5.18q-.05 3.73-1.48 5.55zM71.62 29h6.39v25.51h-6.39V29zm23 7.42a9.58 9.58 0 00-4.82-1.19 9 9 0 00-6.85 2.57q-2.44 2.57-2.44 7.2A10.09 10.09 0 0083 52.19a8.74 8.74 0 006.62 2.65 8.92 8.92 0 006.84-2.6A10.17 10.17 0 0098.94 45a11.2 11.2 0 00-1.13-5.18 8 8 0 00-3.19-3.41zm-2.75 12.3A2.15 2.15 0 0189.73 50a2.21 2.21 0 01-2.11-1.29 8.6 8.6 0 01-.67-3.71 8.26 8.26 0 01.67-3.68 2.43 2.43 0 014.23 0 8.44 8.44 0 01.59 3.68 8.9 8.9 0 01-.61 3.71zm9.65-13.16h6.39v19h-6.39v-19zm0-6.56h6.39v4.27h-6.39V29zm19.33 20.68a9.31 9.31 0 003.09-.65v4.77a12.35 12.35 0 01-2.46.81 13.53 13.53 0 01-2.74.24q-3.22 0-4.64-1.62a7.36 7.36 0 01-1.42-5v-7.77h-2.24v-4.9h2.18v-4.84l6.44-1.12v6h4.08v4.9h-4.08v7.38a1.58 1.58 0 001.75 1.79zm14.79 0a9.31 9.31 0 003.09-.65v4.77a12.35 12.35 0 01-2.46.81 13.52 13.52 0 01-2.74.24q-3.22 0-4.64-1.62a7.34 7.34 0 01-1.42-5v-7.77h-2.24v-4.9h2.24v-4.92l6.44-1v6h4.08v4.9h-4.08v7.38a1.58 1.58 0 001.71 1.75zm22.43-5.79a8.6 8.6 0 00-2.28-6.43 8.84 8.84 0 00-6.46-2.23 8.75 8.75 0 00-6.76 2.57q-2.37 2.57-2.37 7.37 0 4.65 2.56 7.17a9.8 9.8 0 007.18 2.52 21 21 0 003.82-.3 11.05 11.05 0 003.08-1.08l-1-4.27a12.62 12.62 0 01-5.16 1 4.38 4.38 0 01-2.92-.9 3.28 3.28 0 01-1.14-2.51h11.42v-2.91zm-11.29-1.2a3.46 3.46 0 01.84-2.29 2.63 2.63 0 011.89-.73 2.47 2.47 0 012 .82 3.29 3.29 0 01.76 2.19h-5.49zm-86.4-7.47a8.74 8.74 0 00-6.76 2.57q-2.37 2.57-2.37 7.37 0 4.65 2.56 7.17a9.8 9.8 0 007.18 2.52 21 21 0 003.82-.3 11.08 11.08 0 003.09-1.08l-1-4.27a12.6 12.6 0 01-5.16 1 4.38 4.38 0 01-2.92-.9 3.28 3.28 0 01-1.14-2.49h11.44v-2.92a8.6 8.6 0 00-2.28-6.43 8.85 8.85 0 00-6.46-2.24zm-2.55 7.46a3.46 3.46 0 01.89-2.28 2.62 2.62 0 011.9-.73 2.47 2.47 0 012 .82 3.3 3.3 0 01.76 2.19h-5.55z" fill="#0f0b0b"></path>
  </symbol>
  <symbol viewBox="0 0 111 69" fill="none" id="fscs">
    <path d="M29.15 57.863h-.891v-5.49h3.104v.748H29.15v1.724h2.07v.776h-2.07v2.242zm2.96-5.26a.546.546 0 0 1 .144-.373.488.488 0 0 1 .373-.115.53.53 0 0 1 .374.115.495.495 0 0 1 .144.373.475.475 0 0 1-.144.345.557.557 0 0 1-.747 0 .476.476 0 0 1-.144-.345zm.948 5.26h-.89v-4.167h.89v4.167zm4.857 0h-.89v-2.558c.02-.256-.05-.51-.202-.718a.778.778 0 0 0-.603-.23.985.985 0 0 0-.834.344c-.2.338-.29.73-.258 1.121v2.07h-.891v-4.196h.69l.114.546h.058c.133-.204.323-.364.546-.46.241-.118.507-.177.776-.173 1.006 0 1.494.518 1.494 1.523v2.73zm3.736 0l-.172-.575h-.029a1.61 1.61 0 0 1-.603.517c-.247.1-.51.15-.776.144a1.193 1.193 0 0 1-1.294-1.293 1.136 1.136 0 0 1 .489-.977 2.504 2.504 0 0 1 1.466-.345l.718-.029v-.23a.943.943 0 0 0-.172-.603.702.702 0 0 0-.575-.202 2.039 2.039 0 0 0-.604.087 7.995 7.995 0 0 0-.574.23l-.288-.633a2.86 2.86 0 0 1 .747-.258 3.51 3.51 0 0 1 .748-.087c.43-.026.855.096 1.207.345a1.408 1.408 0 0 1 .402 1.092v2.788h-.69v.029zm-1.322-.604c.282.012.558-.08.776-.258a.936.936 0 0 0 .288-.748v-.373l-.546.029c-.318.002-.63.071-.92.2a.608.608 0 0 0-.287.575.584.584 0 0 0 .172.432.992.992 0 0 0 .517.143zm6.783.604h-.891v-2.558c.021-.256-.05-.51-.201-.718a.778.778 0 0 0-.604-.23.986.986 0 0 0-.833.344c-.2.338-.291.73-.259 1.121v2.07h-.89v-4.196h.689l.115.546h.057c.133-.204.323-.364.546-.46.242-.118.508-.177.776-.173 1.006 0 1.495.518 1.495 1.523v2.73zm2.816.086a1.785 1.785 0 0 1-1.437-.546 2.363 2.363 0 0 1-.488-1.58 2.305 2.305 0 0 1 .517-1.61 1.922 1.922 0 0 1 1.494-.575c.404-.001.805.077 1.179.23l-.259.719a2.83 2.83 0 0 0-.92-.23c-.718 0-1.092.488-1.092 1.437-.021.372.069.742.259 1.063a.908.908 0 0 0 .776.345c.393.007.78-.092 1.12-.288v.776c-.157.102-.332.17-.517.202-.208.038-.42.058-.632.057zm2.012-5.346a.545.545 0 0 1 .144-.373.488.488 0 0 1 .373-.115.53.53 0 0 1 .374.115.497.497 0 0 1 .143.373.476.476 0 0 1-.143.345.558.558 0 0 1-.747 0 .386.386 0 0 1-.144-.345zm.948 5.26h-.89v-4.167h.89v4.167zm3.765 0l-.172-.575h-.03c-.154.22-.362.398-.603.517-.246.1-.51.15-.776.144a1.192 1.192 0 0 1-1.293-1.293 1.136 1.136 0 0 1 .489-.977 2.504 2.504 0 0 1 1.465-.345l.719-.029v-.23a.943.943 0 0 0-.173-.603.702.702 0 0 0-.574-.202 2.039 2.039 0 0 0-.604.087 4.78 4.78 0 0 0-.575.23l-.287-.633c.236-.12.487-.207.747-.258.246-.054.496-.083.747-.087a1.89 1.89 0 0 1 1.207.345 1.41 1.41 0 0 1 .403 1.092v2.788h-.69v.029zm-1.293-.604c.281.012.557-.08.776-.258a.935.935 0 0 0 .287-.748v-.373l-.546.029a2.3 2.3 0 0 0-.92.2.608.608 0 0 0-.287.575.586.586 0 0 0 .172.432.695.695 0 0 0 .518.143zm3.966.604h-.891V52h.89v5.863zm6.38-1.495a1.409 1.409 0 0 1-.517 1.15 2.229 2.229 0 0 1-1.466.431 3.35 3.35 0 0 1-1.523-.287V56.8c.261.113.53.209.804.287.252.076.513.115.776.115.275.029.55-.043.776-.201a.665.665 0 0 0 .259-.546.717.717 0 0 0-.23-.518 3.702 3.702 0 0 0-.948-.517 2.615 2.615 0 0 1-1.064-.69 1.507 1.507 0 0 1-.316-.948 1.353 1.353 0 0 1 .489-1.092 2.072 2.072 0 0 1 1.322-.402 3.924 3.924 0 0 1 1.58.344l-.287.748a3.523 3.523 0 0 0-1.322-.317.912.912 0 0 0-.661.202.614.614 0 0 0-.23.488.798.798 0 0 0 .086.374.915.915 0 0 0 .288.287c.239.136.488.251.747.345.312.123.61.277.89.46.174.126.313.294.403.488.098.207.147.433.144.661zm2.701 1.581a2.037 2.037 0 0 1-1.523-.575 2.089 2.089 0 0 1-.546-1.552 2.354 2.354 0 0 1 .517-1.61 1.723 1.723 0 0 1 1.409-.574 1.754 1.754 0 0 1 1.293.489c.334.38.509.874.488 1.38v.488h-2.758a1.27 1.27 0 0 0 .316.92 1.068 1.068 0 0 0 .862.316 4.77 4.77 0 0 0 .69-.058c.235-.06.465-.136.69-.23v.719a3.056 3.056 0 0 1-.662.23 6.122 6.122 0 0 1-.776.057zm-.143-3.65a.824.824 0 0 0-.661.259c-.172.226-.28.494-.316.776h1.896a1.052 1.052 0 0 0-.258-.776.91.91 0 0 0-.661-.259zm4.799-.661c.144-.007.289.003.431.029l-.086.833a1.699 1.699 0 0 0-.403-.057 1.136 1.136 0 0 0-1.178 1.236v2.184h-.89v-4.167h.689l.115.747h.057c.135-.24.322-.446.546-.604.215-.136.465-.206.719-.2zm2.097 4.225l-1.58-4.167h.92l.833 2.414c.12.316.206.643.259.977h.029a8.67 8.67 0 0 1 .258-.977l.834-2.414h.948l-1.58 4.167h-.92zm3.047-5.26a.545.545 0 0 1 .144-.373.488.488 0 0 1 .374-.115.53.53 0 0 1 .373.115.497.497 0 0 1 .144.373.476.476 0 0 1-.144.345.558.558 0 0 1-.747 0 .386.386 0 0 1-.144-.345zm.92 5.26h-.891v-4.167h.89v4.167zm2.873.086a1.784 1.784 0 0 1-1.436-.546 2.363 2.363 0 0 1-.489-1.58 2.305 2.305 0 0 1 .518-1.61 1.924 1.924 0 0 1 1.494-.575 3.09 3.09 0 0 1 1.178.23l-.258.719a2.831 2.831 0 0 0-.92-.23c-.719 0-1.092.488-1.092 1.437-.021.372.069.742.259 1.063a.907.907 0 0 0 .775.345 2.17 2.17 0 0 0 1.121-.288v.776c-.157.102-.333.17-.517.202-.209.037-.42.056-.632.057zm3.88 0a2.037 2.037 0 0 1-1.523-.575 2.09 2.09 0 0 1-.546-1.552 2.355 2.355 0 0 1 .518-1.61 1.724 1.724 0 0 1 1.408-.574 1.754 1.754 0 0 1 1.293.489c.334.38.509.874.489 1.38v.488h-2.76a1.27 1.27 0 0 0 .317.92 1.068 1.068 0 0 0 .862.316 4.77 4.77 0 0 0 .69-.058c.235-.06.466-.136.69-.23v.719a3.037 3.037 0 0 1-.662.23 7.017 7.017 0 0 1-.776.057zm-.172-3.65a.824.824 0 0 0-.66.259 1.62 1.62 0 0 0-.317.776h1.897a1.053 1.053 0 0 0-.259-.776.866.866 0 0 0-.66-.259zm5.489 2.385a1.15 1.15 0 0 1-.43.949c-.376.243-.82.354-1.265.316a2.844 2.844 0 0 1-1.322-.259v-.776c.42.212.88.33 1.35.345.546 0 .805-.172.805-.488a.351.351 0 0 0-.086-.259 3.308 3.308 0 0 0-.287-.23 2.203 2.203 0 0 0-.575-.258 2.647 2.647 0 0 1-.977-.547 1.002 1.002 0 0 1-.26-.718.974.974 0 0 1 .432-.833 2.046 2.046 0 0 1 1.178-.288 3.21 3.21 0 0 1 1.38.288l-.288.66a3.547 3.547 0 0 0-1.12-.287c-.46 0-.69.144-.69.403a.45.45 0 0 0 .172.344c.255.151.525.277.805.374.263.094.514.22.747.374.137.102.254.229.345.373a.98.98 0 0 1 .086.517zm-60.61 4.915a1.424 1.424 0 0 0-1.207.546 2.401 2.401 0 0 0-.431 1.523c-.037.542.115 1.08.43 1.523a1.504 1.504 0 0 0 1.237.517 5.59 5.59 0 0 0 .69-.057c.23-.057.43-.115.689-.172v.775a3.92 3.92 0 0 1-1.466.26c-.804 0-1.437-.23-1.868-.72-.43-.488-.66-1.178-.66-2.097a3.468 3.468 0 0 1 .315-1.495 2.17 2.17 0 0 1 .92-.977 2.77 2.77 0 0 1 1.408-.345 3.423 3.423 0 0 1 1.552.345l-.316.747a3.428 3.428 0 0 0-.575-.23 1.772 1.772 0 0 0-.718-.143zm6.063 2.73a2.228 2.228 0 0 1-.517 1.58 1.902 1.902 0 0 1-1.465.575 2.049 2.049 0 0 1-1.035-.258 1.928 1.928 0 0 1-.69-.748 2.42 2.42 0 0 1-.23-1.149 2.277 2.277 0 0 1 .518-1.58 1.903 1.903 0 0 1 1.465-.576 1.883 1.883 0 0 1 1.437.575c.362.446.546 1.008.518 1.581zm-3.046 0c0 .948.345 1.437 1.064 1.437.69 0 1.063-.489 1.063-1.437 0-.948-.345-1.437-1.063-1.437a.88.88 0 0 0-.805.374c-.19.32-.28.69-.259 1.063zm7.473 2.069h-.891V63.84a1.265 1.265 0 0 0-.173-.718.712.712 0 0 0-.575-.23.82.82 0 0 0-.747.345 1.92 1.92 0 0 0-.23 1.12v2.07h-.89V62.23h.69l.114.546h.057c.119-.195.287-.354.49-.46.221-.114.468-.173.718-.172.632 0 1.063.23 1.264.66h.058c.12-.21.3-.38.517-.488a1.71 1.71 0 0 1 .776-.172 1.4 1.4 0 0 1 1.092.373c.254.327.377.737.345 1.15v2.701H42.8v-2.557a1.264 1.264 0 0 0-.173-.719.712.712 0 0 0-.574-.23.876.876 0 0 0-.748.316 1.548 1.548 0 0 0-.23.977v2.242zm5.891.086a1.503 1.503 0 0 1-1.236-.574h-.057c.029.344.057.574.057.632v1.695h-.89v-6.006h.718c.029.086.057.259.115.546h.057a1.374 1.374 0 0 1 1.236-.632 1.446 1.446 0 0 1 1.207.575c.316.464.467 1.02.431 1.58a2.524 2.524 0 0 1-.431 1.58 1.397 1.397 0 0 1-1.207.604zm-.201-3.592a.973.973 0 0 0-.776.316c-.184.29-.265.635-.23.977v.144a2.05 2.05 0 0 0 .23 1.092.907.907 0 0 0 .776.345.794.794 0 0 0 .718-.374c.19-.32.28-.69.259-1.063a1.813 1.813 0 0 0-.259-1.063.794.794 0 0 0-.718-.374zm4.627 3.592a2.037 2.037 0 0 1-1.523-.574 2.089 2.089 0 0 1-.546-1.552 2.355 2.355 0 0 1 .517-1.61 1.724 1.724 0 0 1 1.408-.574 1.754 1.754 0 0 1 1.293.488c.334.38.51.874.489 1.38v.488h-2.759a1.27 1.27 0 0 0 .316.92 1.067 1.067 0 0 0 .862.316 4.83 4.83 0 0 0 .69-.058c.235-.059.466-.136.69-.23v.719c-.21.102-.433.18-.661.23a6.123 6.123 0 0 1-.776.057zm-.144-3.65a.824.824 0 0 0-.66.26 1.617 1.617 0 0 0-.317.775h1.897a1.054 1.054 0 0 0-.259-.776.91.91 0 0 0-.66-.258zm6.351 3.564h-.89V63.84a1.07 1.07 0 0 0-.202-.718.725.725 0 0 0-.603-.23 1.023 1.023 0 0 0-.834.345c-.2.338-.29.73-.258 1.12v2.07h-.891V62.23h.69l.114.546h.058c.133-.204.323-.364.546-.46.242-.117.507-.176.776-.172 1.006 0 1.494.517 1.494 1.523v2.73zm3.938-1.178a1.15 1.15 0 0 1-.431.948c-.375.243-.82.354-1.265.316a2.844 2.844 0 0 1-1.322-.258v-.776c.42.212.88.33 1.35.345.547 0 .805-.173.805-.489a.351.351 0 0 0-.086-.258 3.273 3.273 0 0 0-.287-.23 2.2 2.2 0 0 0-.575-.26 2.647 2.647 0 0 1-.977-.545 1.002 1.002 0 0 1-.259-.719.973.973 0 0 1 .431-.833 2.046 2.046 0 0 1 1.179-.287c.475-.008.946.09 1.38.287l-.288.661a3.547 3.547 0 0 0-1.121-.287c-.46 0-.69.143-.69.402a.45.45 0 0 0 .173.345c.255.15.524.276.804.373.263.095.514.22.748.374.136.103.253.23.345.374.075.161.104.34.086.517zm3.506 1.178l-.173-.575h-.028c-.155.22-.363.398-.604.518-.246.1-.51.149-.776.143a1.193 1.193 0 0 1-1.293-1.293 1.136 1.136 0 0 1 .489-.977 2.504 2.504 0 0 1 1.465-.345l.719-.029v-.23a.943.943 0 0 0-.173-.603.703.703 0 0 0-.575-.201 2.039 2.039 0 0 0-.603.086 4.78 4.78 0 0 0-.575.23l-.287-.632a2.86 2.86 0 0 1 .747-.259 3.72 3.72 0 0 1 .747-.086c.43-.026.856.095 1.207.345a1.41 1.41 0 0 1 .403 1.092v2.788l-.69.028zm-1.322-.603c.281.011.558-.08.776-.259a.936.936 0 0 0 .287-.747v-.374l-.546.029c-.317.003-.63.071-.92.201a.608.608 0 0 0-.287.575.584.584 0 0 0 .172.431.696.696 0 0 0 .518.144zm4.656-.029c.216.006.431-.033.632-.115v.66a2.99 2.99 0 0 1-.374.116c-.16.035-.324.054-.488.057-.834 0-1.265-.43-1.265-1.322v-2.241h-.575v-.403l.604-.316.287-.89h.546v.919h1.179v.66h-1.179v2.214a.566.566 0 0 0 .173.46.612.612 0 0 0 .46.2zm1.351-4.627a.546.546 0 0 1 .143-.374.488.488 0 0 1 .374-.115.53.53 0 0 1 .373.115.497.497 0 0 1 .144.374.476.476 0 0 1-.144.345.558.558 0 0 1-.747 0 .388.388 0 0 1-.144-.345zm.919 5.26h-.891V62.23h.89v4.167zm4.885-2.07a2.228 2.228 0 0 1-.517 1.58 1.903 1.903 0 0 1-1.465.575 2.049 2.049 0 0 1-1.035-.258 1.928 1.928 0 0 1-.69-.748 2.42 2.42 0 0 1-.23-1.149 2.277 2.277 0 0 1 .518-1.58 1.902 1.902 0 0 1 1.465-.576 1.883 1.883 0 0 1 1.437.575c.361.446.546 1.008.517 1.581zm-3.046 0c0 .948.345 1.437 1.064 1.437.69 0 1.063-.489 1.063-1.437 0-.948-.345-1.437-1.063-1.437a.88.88 0 0 0-.805.374c-.19.32-.28.69-.259 1.063zm7.645 2.069h-.891V63.84a1.07 1.07 0 0 0-.201-.718.725.725 0 0 0-.604-.23 1.023 1.023 0 0 0-.833.345c-.2.338-.29.73-.259 1.12v2.07h-.89V62.23h.689l.115.546h.057c.133-.204.323-.364.546-.46.242-.117.508-.176.776-.172 1.006 0 1.495.517 1.495 1.523v2.73zm6.322-1.494a1.409 1.409 0 0 1-.517 1.15 2.229 2.229 0 0 1-1.466.43 3.349 3.349 0 0 1-1.523-.287v-.862c.262.113.53.209.805.287.251.076.513.115.776.115.274.03.55-.042.776-.201a.666.666 0 0 0 .258-.546.717.717 0 0 0-.23-.517 3.702 3.702 0 0 0-.948-.518 2.615 2.615 0 0 1-1.063-.69 1.507 1.507 0 0 1-.316-.948 1.356 1.356 0 0 1 .488-1.092 2.072 2.072 0 0 1 1.322-.402 3.924 3.924 0 0 1 1.58.345l-.287.747a3.523 3.523 0 0 0-1.322-.316.912.912 0 0 0-.66.201.613.613 0 0 0-.23.489.796.796 0 0 0 .086.373.914.914 0 0 0 .287.288c.24.135.489.25.747.344.312.123.61.277.891.46.174.126.312.295.403.489a1.6 1.6 0 0 1 .143.66zm2.587 1.58a1.785 1.785 0 0 1-1.437-.546 2.363 2.363 0 0 1-.489-1.58 2.305 2.305 0 0 1 .518-1.61 1.922 1.922 0 0 1 1.494-.574c.404-.002.805.076 1.178.23l-.258.718a2.832 2.832 0 0 0-.92-.23c-.718 0-1.092.489-1.092 1.437-.021.372.069.743.259 1.063a.907.907 0 0 0 .776.345c.392.008.78-.092 1.12-.287v.776a1.39 1.39 0 0 1-.517.2 3.53 3.53 0 0 1-.632.058zm5.718-.086h-.89V63.84c.021-.255-.05-.51-.201-.718a.725.725 0 0 0-.604-.23.928.928 0 0 0-.804.345c-.2.338-.291.73-.26 1.12v2.07h-.89v-5.863h.89v1.495c0 .23-.028.488-.056.776h.057a1.25 1.25 0 0 1 .489-.46c.23-.121.487-.18.747-.173 1.006 0 1.523.518 1.523 1.523v2.673zm2.961.086a2.036 2.036 0 0 1-1.523-.574 2.092 2.092 0 0 1-.546-1.552 2.355 2.355 0 0 1 .517-1.61 1.723 1.723 0 0 1 1.408-.574 1.754 1.754 0 0 1 1.294.488c.334.38.508.874.488 1.38v.488H96.6a1.269 1.269 0 0 0 .316.92 1.069 1.069 0 0 0 .862.316 4.77 4.77 0 0 0 .69-.058c.236-.059.466-.136.69-.23v.719c-.21.102-.433.18-.661.23a6.122 6.122 0 0 1-.776.057zm-.172-3.65a.824.824 0 0 0-.661.26 1.617 1.617 0 0 0-.317.775h1.897a1.054 1.054 0 0 0-.258-.776.826.826 0 0 0-.661-.258zm6.207 3.564h-.891V63.84a1.257 1.257 0 0 0-.172-.718.722.722 0 0 0-.575-.23.82.82 0 0 0-.747.345 1.918 1.918 0 0 0-.23 1.12v2.07h-.891V62.23h.69l.115.546h.057a1.25 1.25 0 0 1 .489-.46c.222-.114.468-.173.718-.172.632 0 1.064.23 1.265.66h.057c.12-.21.3-.38.517-.488.242-.117.508-.176.776-.172a1.402 1.402 0 0 1 1.093.373c.253.327.376.737.344 1.15v2.701h-.891v-2.557a1.256 1.256 0 0 0-.172-.719.713.713 0 0 0-.575-.23.874.874 0 0 0-.747.316 1.536 1.536 0 0 0-.23.977v2.242zm5.604.086a2.036 2.036 0 0 1-1.523-.574 2.096 2.096 0 0 1-.546-1.552 2.357 2.357 0 0 1 .517-1.61 1.734 1.734 0 0 1 1.409-.574 1.75 1.75 0 0 1 1.293.488c.334.38.509.874.488 1.38v.488h-2.759a1.28 1.28 0 0 0 .317.92 1.067 1.067 0 0 0 .862.316c.231-.003.461-.022.689-.058a4.81 4.81 0 0 0 .69-.23v.719a2.96 2.96 0 0 1-.661.23 6.116 6.116 0 0 1-.776.057zm-.143-3.65a.823.823 0 0 0-.661.26 1.622 1.622 0 0 0-.317.775h1.897a1.056 1.056 0 0 0-.258-.776.916.916 0 0 0-.661-.258z"
      fill="#6C0088"></path>
    <path fill-rule="evenodd" clip-rule="evenodd" d="M33.723 15.762c-.092.323-.184.611-.277.917h8.647l-1.833 6.048h-8.642l-.277.916-4.705 14.968s-1.832 5.62-2.81 8.064c-2.077 4.949-5.315 8.187-9.652 9.592a16.844 16.844 0 0 1-5.01.733 23.409 23.409 0 0 1-9.042-1.955L0 54.984l1.955-6.17.428.183c1.221.488 5.498 2.2 9.347.916 2.566-.855 4.582-2.932 5.926-6.231 1.405-3.3 2.932-8.248 2.932-8.248l.233-.733h-10.74l1.893-5.987h10.748l1.593-5.132.269-.855H10.203l1.893-6.048h14.392c.21-.673.718-2.3 1.004-3.3 1.893-6.108 5.192-10.202 9.897-12.157 5.926-2.443 12.096-.61 14.479.245a4.06 4.06 0 0 1 .427.183L50.34 7.76l-.122-.062c-1.344-.55-5.926-2.077-9.958-.366-2.994 1.283-5.193 4.093-6.537 8.43zm15.151 1.955a11.607 11.607 0 0 1 5.376-1.16c2.727-.01 5.42.596 7.881 1.771l-1.588 5.01-.123.305-.366-.183a13.537 13.537 0 0 0-5.743-1.466 4.11 4.11 0 0 0-2.627.855 2.6 2.6 0 0 0-1.038 2.26c-.024.74.19 1.468.61 2.078a11.2 11.2 0 0 0 2.933 2.382 12.412 12.412 0 0 1 3.727 3.605 8.92 8.92 0 0 1 1.222 4.643 8.394 8.394 0 0 1-3.055 6.781c-2.016 1.65-4.765 2.505-8.186 2.505a15.715 15.715 0 0 1-8.981-2.81l1.588-5.01.306.183c2.566 1.405 4.948 2.139 7.148 2.139a6.015 6.015 0 0 0 3.42-.856 2.389 2.389 0 0 0 1.223-2.2c.018-.5-.065-.998-.245-1.465a4.646 4.646 0 0 0-.733-1.161 23.379 23.379 0 0 0-2.505-2.016 12.202 12.202 0 0 1-3.97-3.971 8.037 8.037 0 0 1-1.161-4.277 8.62 8.62 0 0 1 1.282-4.704 8.458 8.458 0 0 1 3.605-3.238zm22.726 22.3c.856 1.038 2.322 1.587 4.277 1.587a18.345 18.345 0 0 0 6.781-1.527l.183-.06v5.558l-.122.062a22.605 22.605 0 0 1-8.125 1.588c-3.421 0-6.17-1.038-8.064-3.055-1.894-2.077-2.872-4.948-2.872-8.675a22.866 22.866 0 0 1 2.139-9.774 15.903 15.903 0 0 1 5.681-6.843 14.557 14.557 0 0 1 8.126-2.321c1.518-.03 3.035.113 4.52.427 1.25.306 2.46.756 3.605 1.344l-1.772 5.682-.122-.061a16.192 16.192 0 0 0-3.482-1.589 10.623 10.623 0 0 0-2.75-.366 7.8 7.8 0 0 0-4.704 1.588 11.34 11.34 0 0 0-3.36 4.765 17.864 17.864 0 0 0-1.283 6.782c0 2.2.428 3.849 1.344 4.887zm31.463-23.46a11.608 11.608 0 0 0-5.376 1.16 8.458 8.458 0 0 0-3.605 3.238A8.919 8.919 0 0 0 92.8 25.66a8.036 8.036 0 0 0 1.16 4.277 12.204 12.204 0 0 0 3.971 3.97c.88.615 1.717 1.288 2.505 2.017.301.348.548.74.733 1.16.18.468.263.967.245 1.467a2.39 2.39 0 0 1-1.222 2.2 6.015 6.015 0 0 1-3.421.854c-2.2 0-4.582-.733-7.148-2.138l-.306-.183-1.588 5.01a15.715 15.715 0 0 0 8.98 2.81c3.422 0 6.171-.856 8.187-2.505a8.398 8.398 0 0 0 3.054-6.781 8.916 8.916 0 0 0-1.221-4.643 12.42 12.42 0 0 0-3.727-3.605 11.187 11.187 0 0 1-2.933-2.382 3.47 3.47 0 0 1-.61-2.078 2.598 2.598 0 0 1 1.038-2.26 4.11 4.11 0 0 1 2.627-.855c1.999.058 3.96.559 5.743 1.466l.366.183.123-.305 1.588-5.01a18.354 18.354 0 0 0-7.881-1.771z"
      fill="#6C0088"></path>
  </symbol>
   <symbol fill="none" viewBox="0 0 124 22" id="trustpilot-rating-4.3">
    <path d="M23.25 0H0V22H23.25V0Z" fill="#00B67A"></path>
    <path d="M48.4375 0H25.1875V22H48.4375V0Z" fill="#00B67A"></path>
    <path d="M73.625 0H50.375V22H73.625V0Z" fill="#00B67A"></path>
    <path d="M98.8125 0H75.5625V22H98.8125V0Z" fill="#00B67A"></path>
    <path d="M124 0H112.375V22H124V0Z" fill="#DCDCE6"></path>
    <path d="M112.375 0H100.75V22H112.375V0Z" fill="#00B67A"></path>
    <path d="M11.625 14.8271L15.1609 13.9792L16.6383 18.2875L11.625 14.8271ZM19.7625 9.25836H13.5383L11.625 3.71252L9.71172 9.25836H3.4875L8.525 12.6959L6.61172 18.2417L11.6492 14.8042L14.7492 12.6959L19.7625 9.25836Z" fill="white"></path>
    <path d="M36.8125 14.8271L40.3484 13.9792L41.8258 18.2875L36.8125 14.8271ZM44.95 9.25836H38.7258L36.8125 3.71252L34.8992 9.25836H28.675L33.7125 12.6959L31.7992 18.2417L36.8367 14.8042L39.9367 12.6959L44.95 9.25836Z" fill="white"></path>
    <path d="M62 14.8271L65.5359 13.9792L67.0133 18.2875L62 14.8271ZM70.1375 9.25836H63.9133L62 3.71252L60.0867 9.25836H53.8625L58.9 12.6959L56.9867 18.2417L62.0242 14.8042L65.1242 12.6959L70.1375 9.25836Z" fill="white"></path>
    <path d="M87.1875 14.8271L90.7234 13.9792L92.2008 18.2875L87.1875 14.8271ZM95.325 9.25836H89.1008L87.1875 3.71252L85.2742 9.25836H79.05L84.0875 12.6959L82.1742 18.2417L87.2117 14.8042L90.3117 12.6959L95.325 9.25836Z" fill="white"></path>
    <path d="M112.375 14.8271L115.911 13.9792L117.388 18.2875L112.375 14.8271ZM120.513 9.25836H114.288L112.375 3.71252L110.462 9.25836H104.237L109.275 12.6959L107.362 18.2417L112.399 14.8042L115.499 12.6959L120.513 9.25836Z" fill="white"></path>
  </symbol>
  <symbol viewBox="0 0 192 68" fill="none" id="ios-rating">
    <path d="M51.473 17.906h1.418L54.467 21h2.004l-1.781-3.357c.972-.381 1.535-1.319 1.535-2.403 0-1.67-1.114-2.695-3.059-2.695h-3.463V21h1.77v-3.094zm0-3.978h1.505c.88 0 1.43.527 1.43 1.347 0 .838-.521 1.348-1.412 1.348h-1.523v-2.695zm7.84 7.172c.784 0 1.564-.393 1.915-1.06h.035V21h1.653v-4.318c0-1.266-1.049-2.098-2.66-2.098-1.664 0-2.702.838-2.766 2.057h1.564c.082-.463.487-.78 1.125-.78.645 0 1.055.34 1.055.926v.416l-1.582.094c-1.564.094-2.443.756-2.443 1.898 0 1.131.908 1.905 2.103 1.905zm.562-1.237c-.58 0-.967-.293-.967-.761 0-.446.363-.733 1.002-.78l1.324-.082v.457c0 .68-.615 1.166-1.36 1.166zm4.845-6.591v1.447h-.884v1.289h.884v3.299c0 1.224.575 1.716 2.051 1.716.346 0 .639-.029.814-.07v-1.26a2.78 2.78 0 0 1-.415.03c-.505 0-.739-.229-.739-.71v-3.005h1.16v-1.29h-1.16v-1.447h-1.71zm4.928.597c.498 0 .89-.398.89-.879a.88.88 0 0 0-.89-.879.88.88 0 0 0-.89.88c0 .48.392.878.89.878zM68.798 21h1.711v-6.281H68.8V21zm3.094 0h1.71v-3.604c0-.814.487-1.377 1.254-1.377.768 0 1.155.47 1.155 1.29V21h1.71v-4.049c0-1.47-.784-2.35-2.179-2.35-.967 0-1.629.458-1.963 1.237h-.035v-1.12h-1.652V21zm10.025 2.367c1.88 0 3.135-.96 3.135-2.455V14.72h-1.688v1.096h-.03c-.327-.721-1.036-1.196-1.939-1.196-1.593 0-2.578 1.225-2.578 3.217 0 1.963 1.014 3.146 2.549 3.146.908 0 1.647-.457 1.94-1.125h.035v1.102c0 .727-.493 1.213-1.377 1.213-.65 0-1.143-.293-1.278-.727H79.01c.135 1.12 1.254 1.922 2.907 1.922zm.03-3.703c-.85 0-1.378-.668-1.378-1.816 0-1.143.533-1.858 1.377-1.858.856 0 1.4.727 1.4 1.858 0 1.136-.544 1.816-1.4 1.816zm4.358-3.1c0 .944.615 1.553 1.828 1.811l1.073.223c.615.14.832.328.832.662 0 .41-.399.674-1.043.674-.68 0-1.073-.293-1.178-.844h-1.67c.111 1.236 1.113 2.045 2.848 2.045 1.617 0 2.748-.815 2.748-2.051 0-.92-.54-1.436-1.852-1.711l-1.072-.229c-.633-.134-.867-.351-.867-.673 0-.416.392-.686.984-.686.633 0 1.014.346 1.066.856h1.577c-.035-1.23-1.032-2.057-2.643-2.057-1.6 0-2.63.785-2.63 1.98zM97.31 21.1c.785 0 1.564-.393 1.916-1.06h.035V21h1.652v-4.318c0-1.266-1.049-2.098-2.66-2.098-1.664 0-2.701.838-2.766 2.057h1.565c.082-.463.486-.78 1.125-.78.644 0 1.055.34 1.055.926v.416l-1.582.094c-1.565.094-2.444.756-2.444 1.898 0 1.131.908 1.905 2.104 1.905zm.562-1.237c-.58 0-.967-.293-.967-.761 0-.446.364-.733 1.002-.78l1.325-.082v.457c0 .68-.616 1.166-1.36 1.166zM102.26 21h1.711v-3.604c0-.814.486-1.377 1.253-1.377.768 0 1.155.47 1.155 1.29V21h1.711v-4.049c0-1.47-.785-2.35-2.18-2.35-.967 0-1.629.458-1.963 1.237h-.035v-1.12h-1.652V21zm9.486.1c.925 0 1.652-.487 1.957-1.178h.029V21h1.688v-8.455h-1.711v3.252h-.036c-.304-.697-1.007-1.178-1.916-1.178-1.576 0-2.572 1.236-2.572 3.229 0 2.01.99 3.252 2.561 3.252zm.58-5.11c.849 0 1.394.727 1.394 1.87 0 1.148-.545 1.863-1.394 1.863-.862 0-1.389-.71-1.389-1.864 0-1.148.527-1.869 1.389-1.869zm9.011 1.916h1.418L124.331 21h2.004l-1.781-3.357c.972-.381 1.535-1.319 1.535-2.403 0-1.67-1.113-2.695-3.059-2.695h-3.463V21h1.77v-3.094zm0-3.978h1.506c.879 0 1.43.527 1.43 1.347 0 .838-.522 1.348-1.413 1.348h-1.523v-2.695zm10.113 5.15c-.158.48-.639.791-1.266.791-.873 0-1.441-.615-1.441-1.512v-.105h4.33v-.521c0-1.91-1.154-3.147-2.982-3.147-1.858 0-3.03 1.3-3.03 3.305 0 2.01 1.161 3.246 3.094 3.246 1.553 0 2.678-.826 2.865-2.057h-1.57zm-1.342-3.228c.762 0 1.283.55 1.319 1.353h-2.666c.058-.785.597-1.353 1.347-1.353zm9.738-1.131h-1.787l-1.301 4.77h-.035l-1.306-4.77h-1.834L135.756 21h1.934l2.156-6.281zm1.717-.85a.884.884 0 0 0 .891-.879.88.88 0 0 0-.891-.879.88.88 0 0 0-.891.88c0 .48.393.878.891.878zm-.85 7.131h1.711v-6.281h-1.711V21zm7.254-1.922c-.158.48-.639.791-1.266.791-.873 0-1.441-.615-1.441-1.512v-.105h4.33v-.521c0-1.91-1.154-3.147-2.982-3.147-1.858 0-3.03 1.3-3.03 3.305 0 2.01 1.16 3.246 3.094 3.246 1.553 0 2.678-.826 2.865-2.057h-1.57zm-1.342-3.228c.762 0 1.283.55 1.319 1.353h-2.667c.059-.785.598-1.353 1.348-1.353zm12.867-1.131h-1.687l-.955 4.658h-.036l-1.119-4.658h-1.64l-1.114 4.658h-.035l-.949-4.658h-1.723l1.67 6.281h1.799l1.131-4.441h.035L156.006 21h1.822l1.664-6.281zm.767 1.845c0 .944.616 1.553 1.829 1.811l1.072.223c.615.14.832.328.832.662 0 .41-.399.674-1.043.674-.68 0-1.072-.293-1.178-.844h-1.67c.112 1.236 1.114 2.045 2.848 2.045 1.617 0 2.748-.815 2.748-2.051 0-.92-.539-1.436-1.852-1.711l-1.072-.229c-.633-.134-.867-.351-.867-.673 0-.416.393-.686.984-.686.633 0 1.014.346 1.067.856h1.576c-.035-1.23-1.031-2.057-2.643-2.057-1.599 0-2.631.785-2.631 1.98z"
      fill="#1D1D1F"></path>
    <path d="M9.644 64h3.503v-3.235h2.32v-2.942h-2.32V46.385h-5.2c-3.614 5.31-5.53 8.387-7.068 11.304v3.076h8.765V64zm-5.555-6.177c1.404-2.624 3.003-5.127 5.555-8.801h.073v8.899H4.089v-.098zm15.577 6.324a1.964 1.964 0 0 0 1.965-1.966 1.956 1.956 0 0 0-1.965-1.965A1.949 1.949 0 0 0 17.7 62.18c0 1.087.867 1.966 1.966 1.966zm11.633.244c4.199 0 7.14-2.1 7.14-5.152 0-2.32-1.696-4.028-4.1-4.504v-.073c2.062-.513 3.454-2.027 3.454-3.919 0-2.759-2.673-4.748-6.494-4.748-3.821 0-6.506 2.002-6.506 4.736 0 1.916 1.403 3.43 3.479 3.93v.074c-2.405.464-4.114 2.173-4.114 4.492 0 3.052 2.93 5.164 7.14 5.164zm0-10.84c-1.672 0-2.857-1.001-2.857-2.442 0-1.452 1.184-2.453 2.857-2.453 1.66 0 2.856 1 2.856 2.453 0 1.44-1.196 2.442-2.856 2.442zm0 8.154c-1.941 0-3.296-1.147-3.296-2.746 0-1.575 1.355-2.723 3.296-2.723 1.94 0 3.284 1.136 3.284 2.723 0 1.599-1.343 2.746-3.284 2.746z"
      fill="#4C4C50"></path>
    <path d="M32.74 23.38a16.311 16.311 0 0 1-1.613 2.899c-.848 1.21-1.543 2.046-2.078 2.511-.83.763-1.718 1.154-2.67 1.176-.683 0-1.507-.195-2.466-.589-.963-.392-1.847-.587-2.656-.587-.848 0-1.758.195-2.73.587-.975.395-1.76.6-2.36.62-.913.04-1.823-.363-2.73-1.207-.58-.505-1.305-1.372-2.174-2.6-.932-1.31-1.698-2.831-2.298-4.565C8.322 19.753 8 17.94 8 16.185c0-2.01.434-3.744 1.305-5.197a7.653 7.653 0 0 1 2.732-2.764A7.35 7.35 0 0 1 15.73 7.18c.725 0 1.676.225 2.857.665 1.178.443 1.935.667 2.266.667.248 0 1.088-.262 2.513-.785 1.347-.485 2.484-.686 3.416-.607 2.524.204 4.42 1.2 5.681 2.992-2.257 1.367-3.374 3.283-3.352 5.74.02 1.915.715 3.508 2.08 4.772a6.834 6.834 0 0 0 2.078 1.363 22.43 22.43 0 0 1-.53 1.391zM26.951.6c0 1.5-.548 2.901-1.64 4.198-1.319 1.541-2.914 2.432-4.643 2.292a4.678 4.678 0 0 1-.035-.569c0-1.44.627-2.982 1.74-4.242.556-.638 1.264-1.169 2.12-1.592C25.35.27 26.16.039 26.92 0c.022.2.031.401.031.6z"
      fill="#000"></path>
    <path fill-rule="evenodd" clip-rule="evenodd" d="M78.988 33l-.986 2.536h-2.254l1.868 1.374-.738 2.57 2.113-1.69 2.113 1.69-.741-2.572 1.868-1.372h-2.254L78.99 33h-.003zm-7.184 0l-.986 2.536h-2.254l1.865 1.374-.738 2.57 2.113-1.69 2.113 1.69-.741-2.572 1.868-1.372H72.79L71.804 33zm-7.187 0l-.986 2.536h-2.254l1.865 1.374-.735 2.57 2.113-1.69 2.113 1.69-.741-2.572 1.867-1.372h-2.253L64.62 33h-.003zm-7.19 0l-.986 2.536h-2.254l1.868 1.374-.741 2.57 2.113-1.69 2.113 1.69-.738-2.572 1.865-1.372h-2.254L57.427 33zm-7.187 0l-.986 2.536H47l1.868 1.374-.741 2.57 2.113-1.69 2.113 1.69-.738-2.572 1.865-1.372h-2.254L50.24 33z"
      fill="#FF9501"></path>
    <path fill-rule="evenodd" clip-rule="evenodd" d="M78.988 39l-.986 2.536h-2.254l1.868 1.374-.738 2.57 2.113-1.69 2.113 1.69-.741-2.572 1.868-1.372h-2.254L78.99 39h-.003zm-7.184 0l-.986 2.536h-2.254l1.865 1.374-.738 2.57 2.113-1.69 2.113 1.69-.741-2.572 1.868-1.372H72.79L71.804 39zm-7.187 0l-.986 2.536h-2.254l1.865 1.374-.735 2.57 2.113-1.69 2.113 1.69-.741-2.572 1.867-1.372h-2.253L64.62 39h-.003zm-7.19 0l-.986 2.536h-2.254l1.868 1.374-.741 2.57 2.113-1.69 2.113 1.69-.738-2.572 1.865-1.372h-2.254L57.427 39zm21.561 7l-.986 2.536h-2.254l1.868 1.374-.738 2.57 2.113-1.69 2.113 1.69-.741-2.572 1.868-1.372h-2.254L78.99 46h-.003zm-7.184 0l-.986 2.536h-2.254l1.865 1.374-.738 2.57 2.113-1.69 2.113 1.69-.741-2.572 1.868-1.372H72.79L71.804 46zm-7.187 0l-.986 2.536h-2.254l1.865 1.374-.735 2.57 2.113-1.69 2.113 1.69-.741-2.572 1.867-1.372h-2.253L64.62 46h-.003zm14.371 7l-.986 2.536h-2.254l1.868 1.374-.738 2.57 2.113-1.69 2.113 1.69-.741-2.572 1.868-1.372h-2.254L78.99 53h-.003zm-7.184 0l-.986 2.536h-2.254l1.865 1.374-.738 2.57 2.113-1.69 2.113 1.69-.741-2.572 1.868-1.372H72.79L71.804 53z"
      fill="#FF9501"></path>
    <path fill-rule="evenodd" clip-rule="evenodd" d="M78.988 59.16l-.986 2.536h-2.254l1.868 1.375-.738 2.569 2.113-1.69 2.113 1.69-.741-2.572 1.868-1.372h-2.254l-.986-2.536h-.003z" fill="#FF9501"></path>
    <rect x="90" y="35" width="96" height="2" rx="1" fill="#EFEFF4"></rect>
    <rect x="90" y="42" width="96" height="2" rx="1" fill="#EFEFF4"></rect>
    <rect x="90" y="48" width="96" height="2" rx="1" fill="#EFEFF4"></rect>
    <rect x="90" y="55" width="96" height="2" rx="1" fill="#EFEFF4"></rect>
    <rect x="90" y="62" width="96" height="2" rx="1" fill="#EFEFF4"></rect>
    <rect x="90" y="35" width="81.032" height="2" rx="1" fill="#8E8E93"></rect>
    <rect x="90" y="42" width="9.29" height="2" rx="1" fill="#8E8E93"></rect>
    <rect x="90" y="48" width="1.548" height="2" rx=".774" fill="#8E8E93"></rect>
    <rect x="90" y="62" width="3.613" height="2" rx="1" fill="#8E8E93"></rect>
  </symbol>
   <symbol version="1.0" xmlns="http://www.w3.org/2000/svg" preserveAspectRatio="xMidYMid meet" viewBox="0 0 1920.000000 320.000000" id="tradingview">
    <g transform="translate(0.000000,320.000000) scale(0.100000,-0.100000)" fill="#000000" stroke="none">
      <path d="M9705 2594 c-110 -60 -157 -192 -105 -293 74 -146 266 -169 369 -44
58 70 66 150 24 234 -41 80 -94 113 -186 116 -52 3 -80 -1 -102 -13z"></path>
      <path d="M15032 2589 c-69 -34 -122 -120 -122 -196 0 -44 31 -117 63 -151 103
-111 295 -77 361 63 21 43 20 137 0 178 -58 114 -191 161 -302 106z"></path>
      <path d="M8970 2214 l0 -386 -47 42 c-93 82 -197 120 -329 120 -211 0 -409
-129 -509 -334 -60 -121 -78 -197 -78 -326 0 -197 62 -349 198 -486 116 -117
245 -174 396 -174 114 0 247 51 315 121 21 21 42 39 46 39 4 0 8 -29 8 -65 l0
-65 170 0 170 0 0 950 0 950 -170 0 -170 0 0 -386z m-175 -560 c61 -21 137
-94 167 -161 18 -40 22 -67 22 -158 1 -98 -2 -116 -25 -165 -35 -75 -67 -111
-131 -145 -44 -24 -68 -30 -139 -33 -78 -4 -92 -2 -148 23 -137 62 -211 219
-181 385 40 218 224 325 435 254z"></path>
      <path d="M0 2150 l0 -350 350 0 350 0 0 -550 0 -550 350 0 350 0 0 900 0 900
-700 0 -700 0 0 -350z"></path>
      <path d="M1906 2490 c-63 -16 -153 -70 -197 -117 -22 -24 -55 -74 -72 -111
-29 -61 -32 -76 -32 -163 0 -90 2 -99 37 -171 45 -91 103 -147 196 -191 61
-29 76 -32 162 -32 86 0 101 3 162 32 93 44 151 100 196 191 35 72 37 81 37
172 0 91 -2 100 -37 172 -68 136 -188 217 -336 224 -42 2 -94 -1 -116 -6z"></path>
      <path d="M2735 2463 c-9 -21 -171 -409 -360 -863 -189 -454 -351 -842 -360
-863 l-15 -37 401 2 401 3 369 885 c203 487 371 891 374 898 3 9 -80 12 -395
12 l-400 0 -15 -37z"></path>
      <path d="M4280 2325 l0 -175 240 0 240 0 0 -725 0 -725 185 0 185 0 0 725 0
725 240 0 240 0 0 175 0 175 -665 0 -665 0 0 -175z"></path>
      <path d="M13000 2496 c0 -2 166 -406 369 -898 l368 -893 165 -3 c127 -2 167 1
171 10 3 7 170 411 371 897 201 486 366 885 366 887 0 3 -91 3 -202 2 l-202
-3 -248 -615 c-136 -338 -249 -619 -251 -624 -2 -5 -108 249 -237 565 -128
316 -243 598 -256 627 l-23 52 -195 0 c-108 0 -196 -2 -196 -4z"></path>
      <path d="M6923 1975 c-268 -72 -455 -335 -455 -639 0 -189 61 -351 178 -476
109 -115 226 -175 369 -187 136 -11 281 36 361 118 21 21 42 39 46 39 4 0 8
-29 8 -65 l0 -65 170 0 170 0 0 630 0 630 -170 0 -170 0 0 -66 0 -66 -47 42
c-56 49 -127 88 -198 106 -64 18 -195 17 -262 -1z m329 -321 c64 -21 131 -83
165 -152 26 -52 28 -67 28 -167 0 -98 -3 -116 -26 -165 -35 -74 -67 -110 -131
-145 -49 -28 -61 -30 -153 -30 -89 0 -105 3 -151 27 -109 57 -166 164 -167
308 -1 255 200 405 435 324z"></path>
      <path d="M10867 1979 c-67 -16 -145 -59 -192 -105 l-45 -46 0 66 0 66 -175 0
-175 0 0 -630 0 -630 175 0 175 0 0 353 c0 382 3 413 57 505 49 85 174 136
275 112 61 -15 108 -55 139 -118 24 -47 24 -50 27 -449 l3 -403 175 0 174 0 0
404 c0 457 -6 512 -65 634 -60 121 -161 204 -290 238 -56 15 -200 17 -258 3z"></path>
      <path d="M12146 1975 c-159 -44 -312 -173 -383 -325 -47 -99 -62 -153 -69
-258 -8 -115 15 -227 72 -341 167 -338 579 -444 848 -218 l49 41 -5 -85 c-7
-108 -37 -185 -91 -242 -64 -65 -124 -90 -231 -95 -140 -7 -256 28 -363 108
l-52 40 -54 -72 c-29 -40 -72 -98 -94 -129 l-42 -57 57 -42 c183 -137 500
-194 752 -134 178 43 321 151 394 297 65 132 66 139 66 855 l0 642 -170 0
-170 0 0 -66 0 -67 -49 46 c-57 53 -109 81 -188 102 -70 18 -210 18 -277 0z
m339 -322 c71 -24 156 -110 180 -183 76 -224 -72 -440 -300 -440 -126 0 -238
68 -292 178 -24 49 -28 69 -28 142 0 70 5 95 26 141 73 157 239 222 414 162z"></path>
      <path d="M16022 1970 c-232 -62 -409 -240 -469 -470 -22 -87 -22 -254 1 -340
52 -199 170 -343 348 -424 109 -50 167 -61 313 -60 152 0 219 15 344 76 62 31
103 60 157 114 41 40 74 77 74 81 0 5 -57 51 -126 102 l-125 94 -47 -46 c-26
-25 -74 -59 -107 -74 -55 -26 -70 -28 -175 -28 -106 0 -120 2 -172 28 -68 34
-131 101 -152 164 -9 26 -16 50 -16 55 0 4 214 8 475 8 l475 0 0 113 c0 301
-136 504 -395 593 -109 37 -293 44 -403 14z m302 -294 c59 -27 100 -65 127
-118 37 -72 52 -68 -276 -68 l-295 0 15 37 c64 153 267 224 429 149z"></path>
      <path d="M6179 1964 c-68 -20 -139 -73 -179 -133 l-35 -52 -3 90 -3 91 -169 0
-170 0 0 -630 0 -630 170 0 170 0 0 318 c0 187 4 343 11 377 19 105 67 177
144 218 44 23 165 30 238 13 l37 -8 0 175 0 175 -31 6 c-51 10 -131 6 -180
-10z"></path>
      <path d="M9630 1330 l0 -630 170 0 170 0 0 630 0 630 -170 0 -170 0 0 -630z"></path>
      <path d="M14960 1330 l0 -630 175 0 175 0 0 630 0 630 -175 0 -175 0 0 -630z"></path>
      <path d="M16894 1945 c3 -8 96 -292 208 -630 l202 -615 175 2 175 3 116 355
116 355 120 -358 119 -357 174 2 174 3 207 628 207 627 -186 0 -187 0 -113
-387 c-63 -214 -117 -393 -120 -400 -4 -7 -63 166 -133 385 l-126 397 -135 3
-136 3 -45 -143 c-25 -79 -81 -257 -125 -397 -44 -139 -82 -255 -83 -257 -4
-3 -29 80 -174 569 l-67 227 -185 0 c-158 0 -183 -2 -178 -15z"></path>
    </g>
  </symbol>
  <symbol xmlns="http://www.w3.org/2000/svg" viewBox="0 0 168 55.41" id="investing">
    <path d="M43.18 0h5v.88h-2.02V7h-.92V.88h-2.06V0zm6.07 2.84V2h-.87v5h.87V4.35a1.44 1.44 0 01.46-1.19 1.58 1.58 0 011.1-.34v-.91a1.57 1.57 0 00-1.56.93zm5.86 1.81a1.73 1.73 0 01-.4 1.25 1.42 1.42 0 01-1 .4 1.23 1.23 0 01-.96-.3 1.31 1.31 0 01-.33-1V2h-.87v3.07a2.11 2.11 0 00.53 1.51 1.87 1.87 0 001.41.55 1.78 1.78 0 001.62-.85V7H56V2h-.89v2.65zm4.74-.31q-.41-.14-.85-.24a2.84 2.84 0 01-.7-.28.54.54 0 01-.3-.47.55.55 0 01.26-.49 1.08 1.08 0 01.63-.18 1 1 0 011.11.64l.73-.41a1.72 1.72 0 00-.73-.76 2.07 2.07 0 00-1.08-.28 1.93 1.93 0 00-1.27.42 1.34 1.34 0 00-.5 1.07 1.17 1.17 0 00.29.82 1.65 1.65 0 00.7.46q.41.14.82.25a2.4 2.4 0 01.7.28.52.52 0 01.29.46.57.57 0 01-.28.52 1.42 1.42 0 01-.71.16 1.44 1.44 0 01-.79-.21 1.06 1.06 0 01-.45-.57L57 6a1.79 1.79 0 00.74.85 2.34 2.34 0 001.26.28 2.1 2.1 0 001.34-.41 1.31 1.31 0 00.53-1.09 1.19 1.19 0 00-.29-.83 1.53 1.53 0 00-.73-.46zM63.07.6l-.87.26V2h-1v.84h1v2.71a1.39 1.39 0 00.53 1.27A2.6 2.6 0 0064.4 7v-.78h-.74a.64.64 0 01-.45-.16.8.8 0 01-.14-.53V2.84h1.33V2h-1.33V.6zm6.24 2A2.67 2.67 0 0170 4.51a2.63 2.63 0 010 .39h-4.22a1.66 1.66 0 00.61 1 1.93 1.93 0 001.2.37A1.56 1.56 0 0069 5.58l.77.42a2.44 2.44 0 01-2.2 1.13 2.64 2.64 0 01-1.94-.74 2.58 2.58 0 01-.74-1.89 2.59 2.59 0 01.73-1.88 2.52 2.52 0 011.89-.75 2.28 2.28 0 011.79.78zm-.19 1.54a1.67 1.67 0 00-.56-1.08 1.6 1.6 0 00-1-.37 1.67 1.67 0 00-1.73 1.45h3.34zm6-4.14H76v7h-.87v-.86a2.12 2.12 0 01-1.89 1 2.41 2.41 0 01-1.79-.76 2.6 2.6 0 01-.74-1.87 2.56 2.56 0 01.74-1.86 2.39 2.39 0 011.79-.77 2.12 2.12 0 011.89 1V0zm0 4.5a1.76 1.76 0 00-1.78-1.79 1.7 1.7 0 00-1.26.52 1.72 1.72 0 00-.51 1.27 1.76 1.76 0 00.51 1.28 1.82 1.82 0 002.53 0 1.76 1.76 0 00.52-1.28zm9.24-1.86a2.57 2.57 0 01.74 1.86 2.6 2.6 0 01-.74 1.87 2.41 2.41 0 01-1.79.76 2.12 2.12 0 01-1.89-1V9h-.86V2h.87v.86a2.12 2.12 0 011.89-1 2.39 2.39 0 011.79.78zm-.12 1.86a1.72 1.72 0 00-.51-1.27 1.8 1.8 0 00-2.53 0 1.72 1.72 0 00-.51 1.27 1.76 1.76 0 00.51 1.28 1.82 1.82 0 002.53 0 1.76 1.76 0 00.51-1.28zm6-2.5h.87v5h-.82v-.86a2.12 2.12 0 01-1.89 1 2.41 2.41 0 01-1.79-.76 2.6 2.6 0 01-.74-1.87 2.56 2.56 0 01.74-1.86 2.39 2.39 0 011.79-.77 2.12 2.12 0 011.89 1V2zm0 2.5a1.72 1.72 0 00-.51-1.27 1.8 1.8 0 00-2.53 0 1.72 1.72 0 00-.51 1.27 1.76 1.76 0 00.51 1.28 1.82 1.82 0 002.53 0 1.76 1.76 0 00.56-1.28zm3.06-1.66V2h-.82v5h.87V4.35a1.44 1.44 0 01.46-1.19 1.58 1.58 0 011.1-.34v-.91a1.57 1.57 0 00-1.56.93zM97.27.6l-.87.26V2h-1v.84h1v2.71a1.39 1.39 0 00.53 1.27A2.6 2.6 0 0098.6 7v-.78h-.74a.64.64 0 01-.45-.16.8.8 0 01-.14-.53V2.84h1.33V2h-1.33V.6zm4.88 1.27a1.78 1.78 0 00-1.62.85V2h-.87v5h.87V4.35a1.69 1.69 0 01.4-1.24 1.4 1.4 0 011-.41 1.21 1.21 0 01.91.34 1.27 1.27 0 01.33.94V7h.87V3.93a2.07 2.07 0 00-.53-1.5 1.85 1.85 0 00-1.36-.56zm7.29.78a2.67 2.67 0 01.7 1.86 2.63 2.63 0 010 .39h-4.19a1.65 1.65 0 00.61 1 1.93 1.93 0 001.2.37 1.56 1.56 0 001.44-.73l.7.46a2.44 2.44 0 01-2.2 1.13 2.64 2.64 0 01-1.94-.74A2.58 2.58 0 01105 4.5a2.59 2.59 0 01.73-1.88 2.52 2.52 0 011.89-.75 2.28 2.28 0 011.81.78zm-.18 1.49a1.67 1.67 0 00-.56-1.08 1.6 1.6 0 00-1-.37 1.7 1.7 0 00-1.16.4 1.69 1.69 0 00-.57 1h3.34zm2.74-1.3V2h-.87v5h.87V4.35a1.44 1.44 0 01.46-1.19 1.57 1.57 0 011.1-.34v-.91a1.57 1.57 0 00-1.56.93z" fill-opacity=".4"></path>
    <path d="M125.84 33.33c0-.68-.2-.74-.8-.54a36.4 36.4 0 01-3.4.94 1 1 0 00-1 1.42 5.63 5.63 0 00-3.21-2.31 6.71 6.71 0 00-7.53 3.6 10.09 10.09 0 00-.27 8.3 6.25 6.25 0 005.75 4.14 6.4 6.4 0 005.28-2.08c-.06.76-.07 1.52-.18 2.27a2.92 2.92 0 01-2.32 2.75 3.11 3.11 0 01-3.57-1.6.62.62 0 00-.87-.39c-1.16.35-2.32.72-3.51 1-.66.15-.69.42-.44.93a5.74 5.74 0 003.39 3 11.66 11.66 0 006.52.34c3.93-.88 6-3.26 6.07-7.28.14-4.82.07-9.66.09-14.49zM117 44.73h-.23c-1.93-.33-2.92-2.71-2.27-5.43a3 3 0 014.11-2.3c1.3.43 2.1 1.93 2.1 3.94.01 2.55-1.39 4.06-3.71 3.79zm-93-6.85c.1 3.69 0 7.38.08 11.07 0 .61-.26.67-.75.66h-3.76c-.7 0-.91-.18-.9-.89v-7.3c0-.61 0-1.22-.09-1.82-.14-1.47-.73-2.24-1.82-2.41a2.9 2.9 0 00-3.38 1.69 4.72 4.72 0 00-.32 1.89v8c0 .61-.12.87-.8.85-1.29-.05-2.59 0-3.88 0a.63.63 0 01-.77-.78V34.69a.68.68 0 01.56-.81c1.53-.4 3.06-.83 4.68-1.28v2.59a1.37 1.37 0 00.8-.67 6.86 6.86 0 017.92-1 4.92 4.92 0 012.53 4.36zm21.86-4.78a8.51 8.51 0 00-6 7.44c-.25 4.33 1.4 7.31 5.06 8.78a11.93 11.93 0 0010-.72c1.77-.87 1.75-.91 1.09-2.7-.26-.7-.53-1.4-.87-2.27a7.75 7.75 0 01-5.37 2.81 4.15 4.15 0 01-3.66-1.15c-.5-.54-.68-.92.33-1.17 2.76-.7 5.49-1.49 8.23-2.26s2.69-.86 1.94-3.52c-1.24-4.5-5.84-6.74-10.75-5.24zm5.85 5.7c-.1.65-.92.49-1.43.65-1.66.51-3.35.94-5 1.41-.31-3 1.94-5.17 4.39-4.38a3 3 0 011.16.69 2.12 2.12 0 01.88 1.63zm55.93-1.3c.17 3.83.08 7.68.12 11.52 0 .57-.29.59-.71.58h-3.88c-.68 0-.8-.24-.8-.85v-7.64a11.72 11.72 0 00-.1-1.59c-.23-1.62-.83-2.27-2.12-2.36a2.79 2.79 0 00-3.18 2 5.82 5.82 0 00-.25 1.8v7.75c0 .66-.11.94-.86.9-1.29-.07-2.58 0-3.88 0a.54.54 0 01-.61-.61V34.63a.64.64 0 01.54-.72c1.35-.36 2.71-.71 4.05-1.13.61-.19.63.09.62.54v2.11a6.69 6.69 0 016.64-2.59c2.69.4 4.31 1.96 4.43 4.66zM73.2 43.74a4.86 4.86 0 01-2.56 5.07 9.79 9.79 0 01-5.17 1.24 11.07 11.07 0 01-5.18-1 5.2 5.2 0 01-2.83-3.25c-.14-.48-.12-.78.48-.89a13.15 13.15 0 002-.54c1.13-.4 2-.73 2.64.9s3.41 1.77 4.72.7a1.36 1.36 0 00-.42-2.43 36.2 36.2 0 00-4.29-1.11c-.69-.2-1.39-.37-2.06-.62a4 4 0 01-2.81-3.65 4.12 4.12 0 012.42-4.39 11.6 11.6 0 0110.59.23 3.83 3.83 0 01.81.63 2.51 2.51 0 011.08 2c-.11.59-1.09.44-1.67.68s-1 .23-1.42.4c-.86.32-1.48.44-2-.66s-3.08-1.32-4-.55a1 1 0 00.12 1.71 7.06 7.06 0 002.78.95c1.11.24 2.25.4 3.34.71a4.35 4.35 0 013.43 3.87zM40.78 34q-2.08 6.3-4.22 12.6c-.33 1-.43 2.23-1.1 2.8s-2 .17-3.09.19-2.16.29-2.9-.15-.75-1.74-1.06-2.67q-2.11-6.24-4.2-12.5c-.12-.35-.2-.72-.33-1.16h5a.73.73 0 01.8.73c.81 3 1.64 5.92 2.47 8.88.1.36.21.71.39 1.35l1.87-6.56v-.22c.46-1.36.66-2.79 1.26-4.1 1.59 0 3.19 0 4.78-.06 1.02-.05.43.57.33.87zm42.47-.29c-.07.25-.15.51-.22.77-.57 2.1-.57 2.12-2.76 2.18-.59 0-.78.17-.77.77v6.28c0 1.63.39 2 2 2s1.77 0 1.3 1.75c-.63 2.32-.63 2.32-3.06 2.32-4.39 0-5.64-1.22-5.66-5.61s0-8.75 0-13.12a1 1 0 01.92-1.2 34 34 0 003.62-1c.83-.28 1 0 .94.76v2.85a.52.52 0 00.64.65h2.62c.43-.03.56.15.43.59zM5.92 28.3v20.29c0 .76-.13 1.07-1 1-1.36-.08-2.73 0-4.1 0-.57.03-.82-.12-.82-.8V29.64a.76.76 0 01.65-.87c1.72-.45 3.43-.93 5.13-1.39a1.38 1.38 0 01.14.92zm83.66 20.41c0 .7-.17.93-.89.9-1.25-.06-2.51 0-3.76 0a.61.61 0 01-.77-.76V34.7a.72.72 0 01.67-.83c1.32-.33 2.65-.66 3.94-1.1.77-.26.81 0 .8.64v7.64c0 2.54-.04 5.11.01 7.66zm78.42.21c0 .45-.06.7-.6.69s-.74-.13-.73-.7v-6.84a2.33 2.33 0 00-3.46-2.24 2.76 2.76 0 00-1.65 2.41 61.62 61.62 0 00-.16 6.49c0 .32.25.81-.4.87s-.89 0-.87-.77c.05-1.9 0-3.8 0-5.7v-1.14c-.09-1-.36-2-1.52-2.28a2.8 2.8 0 00-3.18 1.29 5.77 5.77 0 00-.61 3v4.79c0 .41.1.81-.58.83s-.7-.35-.69-.84v-8.9a.93.93 0 011.18-1.12v1.81c1-1.24 1.94-2 3.39-2.06a3.13 3.13 0 013.12 2 3.89 3.89 0 013.53-2 3 3 0 013.22 3.1c.01 2.39.01 4.88.01 7.31zm-22.52-10.24c-2.21.63-3.54 2.69-3.52 5.49v.91a5.06 5.06 0 003.9 4.73 4.53 4.53 0 005.23-2.65A6.8 6.8 0 00151 41a4.6 4.6 0 00-5.52-2.32zm4 8.78a3.21 3.21 0 01-5.25 0 6 6 0 010-6.43 3.21 3.21 0 015.38.13 5.23 5.23 0 01.85 3.13 5.12 5.12 0 01-1.03 3.17zm-9.11-.38a4.17 4.17 0 01-5.74 2.48 5.6 5.6 0 01-3.1-5.61c.12-2.69 1.42-4.6 3.6-5.25a6.16 6.16 0 011-.18c2.21 0 3.63.88 4.18 2.45.1.3.57.78-.17 1a.71.71 0 01-1.08-.46 2.94 2.94 0 00-5.21-.61 5.85 5.85 0 000 6.52 3.08 3.08 0 003 1.34 2.91 2.91 0 002.41-2.15c.17-.51.21-.95.94-.71s.26.79.13 1.18zM130 48.46c0 .63.14 1.16-.84 1.18s-.91-.54-.94-1.19 0-1.09.92-1.09.96.49.86 1.1z" fill="#030303"></path>
    <path d="M84.16 29.45c0-2.13 0-2.13 2-2.69l2.09-.56c1.32-.36 1.35-.36 1.32 1.06 0 1 .43 2.27-.21 3s-1.8.65-2.74.94h-.11c-2.35.66-2.35.66-2.35-1.75z" fill="#fea708"></path>
  </symbol>
  <symbol fill="none" xmlns="http://www.w3.org/2000/svg" viewBox="0 0 26 30" id="apple-min">
    <path d="M24.74 23.38a16.311 16.311 0 01-1.613 2.899c-.848 1.21-1.543 2.046-2.078 2.511-.83.763-1.718 1.154-2.67 1.176-.683 0-1.507-.195-2.467-.589-.962-.392-1.846-.587-2.655-.587-.848 0-1.758.195-2.73.587-.975.395-1.76.6-2.36.62-.913.04-1.823-.363-2.73-1.207-.58-.505-1.305-1.372-2.174-2.6-.932-1.31-1.698-2.831-2.298-4.565C.322 19.753 0 17.94 0 16.185c0-2.01.434-3.744 1.305-5.197a7.653 7.653 0 012.732-2.764A7.35 7.35 0 017.73 7.18c.725 0 1.676.225 2.857.665 1.178.443 1.935.667 2.266.667.248 0 1.089-.262 2.513-.785 1.347-.485 2.484-.686 3.416-.607 2.524.204 4.42 1.2 5.681 2.992-2.257 1.367-3.374 3.283-3.352 5.74.02 1.915.715 3.508 2.08 4.772a6.834 6.834 0 002.078 1.363 22.43 22.43 0 01-.53 1.391zM18.951.6c0 1.5-.548 2.901-1.64 4.198-1.319 1.541-2.914 2.432-4.643 2.292a4.678 4.678 0 01-.035-.569c0-1.44.627-2.982 1.74-4.242.557-.638 1.264-1.169 2.12-1.592C17.35.27 18.16.039 18.92 0c.022.2.031.401.031.6z" fill="#000"></path>
  </symbol>
  <symbol fill="none" xmlns="http://www.w3.org/2000/svg" viewBox="0 0 31 31" id="trust-min">
    <path fill="#00002E" d="M0 0h31v31H0z"></path>
    <path d="M25.138 13.74h-7.293L15.6 6.804l-2.258 6.934-7.293-.013 5.898 4.29-2.258 6.935 5.898-4.29 5.898 4.29-2.245-6.934 5.898-4.278z" fill="#00B67A"></path>
    <path d="M19.745 19.584l-.505-1.567-3.64 2.643 4.145-1.076z" fill="#005128"></path>
  </symbol>

   <symbol fill="none" xmlns="http://www.w3.org/2000/svg" viewBox="0 0 61 12" id="trustpilot-yellow">
    <rect width="11.3529" height="11.3623" fill="#FFCE00"></rect>
    <rect x="12.2988" y="1.52588e-05" width="11.3529" height="11.3623" fill="#FFCE00"></rect>
    <rect x="24.5981" y="1.52588e-05" width="11.3529" height="11.3623" fill="#FFCE00"></rect>
    <rect x="36.897" y="1.52588e-05" width="11.3529" height="11.3623" fill="#FFCE00"></rect>
    <rect x="49.196" y="1.52588e-05" width="11.3529" height="11.3623" fill="#DCDCE6"></rect>
    <rect x="49.196" y="1.52588e-05" width="5.67647" height="11.3623" fill="#FFCE00"></rect>
    <path fill-rule="evenodd" clip-rule="evenodd" d="M6.56927 4.60743L9.46084 4.60743L7.12231 6.28141L5.67915 7.31594L7.32244 6.89485L7.12231 6.28141L8.01242 8.99513L5.67389 7.31595L3.33536 8.99513L4.23074 6.28141L1.89221 4.60223L4.78377 4.60743L5.67916 1.89371L6.56927 4.60743Z" fill="white"></path>
    <path fill-rule="evenodd" clip-rule="evenodd" d="M18.8682 4.60743L21.7598 4.60743L19.4213 6.28141L17.9781 7.31594L19.6214 6.89485L19.4213 6.28141L20.3114 8.99513L17.9728 7.31595L15.6343 8.99513L16.5297 6.28141L14.1912 4.60223L17.0827 4.60743L17.9781 1.89371L18.8682 4.60743Z" fill="white"></path>
    <path fill-rule="evenodd" clip-rule="evenodd" d="M43.4662 4.60743L46.3578 4.60743L44.0193 6.28141L42.5761 7.31594L44.2194 6.89485L44.0193 6.28141L44.9094 8.99513L42.5709 7.31595L40.2323 8.99513L41.1277 6.28141L38.7892 4.60223L41.6807 4.60743L42.5761 1.89371L43.4662 4.60743Z" fill="white"></path>
    <path fill-rule="evenodd" clip-rule="evenodd" d="M31.1671 4.60743L34.0586 4.60743L31.7201 6.28141L30.2769 7.31594L31.9202 6.89485L31.7201 6.28141L32.6102 8.99513L30.2717 7.31595L27.9331 8.99513L28.8285 6.28141L26.49 4.60223L29.3816 4.60743L30.2769 1.89371L31.1671 4.60743Z" fill="white"></path>
    <path fill-rule="evenodd" clip-rule="evenodd" d="M55.7653 4.60743L58.6569 4.60743L56.3184 6.28141L54.8752 7.31594L56.5185 6.89485L56.3184 6.28141L57.2085 8.99513L54.8699 7.31595L52.5314 8.99513L53.4268 6.28141L51.0883 4.60223L53.9798 4.60743L54.8752 1.89371L55.7653 4.60743Z" fill="white"></path>
  </symbol>

   <symbol fill="none" xmlns="http://www.w3.org/2000/svg" viewBox="0 0 109 21" id="tradingview-rating">
    <path d="M10.0174 0L12.5493 6.53257L19.5445 6.92185L14.114 11.3485L15.9055 18.1216L10.0174 14.3249L4.12932 18.1216L5.92073 11.3485L0.490286 6.92185L7.48552 6.53257L10.0174 0Z" fill="#2862FF"></path>
    <path d="M32.0522 0L34.5841 6.53257L41.5793 6.92185L36.1488 11.3485L37.9403 18.1216L32.0522 14.3249L26.1641 18.1216L27.9555 11.3485L22.5251 6.92185L29.5203 6.53257L32.0522 0Z" fill="#2862FF"></path>
    <path d="M54.087 0L56.6188 6.53257L63.6141 6.92185L58.1836 11.3485L59.975 18.1216L54.087 14.3249L48.1989 18.1216L49.9903 11.3485L44.5599 6.92185L51.5551 6.53257L54.087 0Z" fill="#2862FF"></path>
    <path d="M76.1218 0L78.6536 6.53257L85.6489 6.92185L80.2184 11.3485L82.0098 18.1216L76.1218 14.3249L70.2337 18.1216L72.0251 11.3485L66.5947 6.92185L73.5899 6.53257L76.1218 0Z" fill="#2862FF"></path>
    <path d="M98.7557 0.692281L100.988 6.45743L101.047 6.6078L101.208 6.61676L107.376 6.96034L102.587 10.8674L102.462 10.9692L102.504 11.125L104.083 17.1028L98.8913 13.7521L98.7557 13.6646L98.6201 13.7521L93.428 17.1028L95.0078 11.125L95.0489 10.9692L94.9241 10.8674L90.135 6.96034L96.3039 6.61676L96.4649 6.6078L96.5231 6.45743L98.7557 0.692281Z" fill="#DFDFDF" stroke="#2862FF" stroke-width="0.5"></path>
    <mask id="mask0_46_2148" maskUnits="userSpaceOnUse" x="89" y="0" width="20" height="18">
      <path d="M98.98 0.00012207L101.453 6.38521L108.284 6.7657L102.981 11.0924L104.73 17.7126L98.98 14.0016L93.2296 17.7126L94.9791 11.0924L89.6756 6.7657L96.5073 6.38521L98.98 0.00012207Z" fill="#D9D9D9"></path>
    </mask>
  </symbol>

   <symbol fill="none" xmlns="http://www.w3.org/2000/svg" viewBox="0 0 63 11" id="tradingview-small">
    <path d="M5.5 0L6.89011 3.58667L10.7308 3.80041L7.74925 6.23082L8.73282 9.94959L5.5 7.865L2.26718 9.94959L3.25075 6.23082L0.269189 3.80041L4.10989 3.58667L5.5 0Z" fill="#2862FF"></path>
    <path d="M18.5 0L19.8901 3.58667L23.7308 3.80041L20.7492 6.23082L21.7328 9.94959L18.5 7.865L15.2672 9.94959L16.2508 6.23082L13.2692 3.80041L17.1099 3.58667L18.5 0Z" fill="#2862FF"></path>
    <path d="M31.5 0L33.1429 3.58667L37.6819 3.80041L34.1582 6.23082L35.3206 9.94959L31.5 7.865L27.6794 9.94959L28.8418 6.23082L25.3181 3.80041L29.8571 3.58667L31.5 0Z" fill="#2862FF"></path>
    <path d="M45 0L46.5165 3.58667L50.7063 3.80041L47.4537 6.23082L48.5267 9.94959L45 7.865L41.4733 9.94959L42.5463 6.23082L39.2937 3.80041L43.4835 3.58667L45 0Z" fill="#2862FF"></path>
    <path d="M57.5 0.691786L58.657 3.67702L58.7153 3.82733L58.8762 3.83629L62.0729 4.01418L59.5913 6.03705L59.4663 6.1389L59.5076 6.29475L60.3262 9.38993L57.6355 7.65489L57.5 7.56753L57.3645 7.65489L54.6738 9.38993L55.4924 6.29475L55.5337 6.1389L55.4087 6.03705L52.9271 4.01418L56.1238 3.83629L56.2847 3.82733L56.343 3.67702L57.5 0.691786Z" fill="#DFDFDF" stroke="#2862FF" stroke-width="0.5"></path>
    <mask id="mask0_46_2158" maskUnits="userSpaceOnUse" x="52" y="0" width="11" height="10">
      <path d="M57.5 0.691786L58.657 3.67702L58.7153 3.82733L58.8762 3.83629L62.0729 4.01418L59.5913 6.03705L59.4663 6.1389L59.5076 6.29475L60.3262 9.38993L57.6355 7.65489L57.5 7.56753L57.3645 7.65489L54.6738 9.38993L55.4924 6.29475L55.5337 6.1389L55.4087 6.03705L52.9271 4.01418L56.1238 3.83629L56.2847 3.82733L56.343 3.67702L57.5 0.691786Z" fill="#DFDFDF" stroke="#2862FF" stroke-width="0.5"></path>
    </mask>
  </symbol>  
</svg>