<svg xmlns="http://www.w3.org/2000/svg" >
  <symbol  fill="none" viewBox="0 0 32 32" id="flag_be">
    <path d="M16 32c8.837 0 16-7.163 16-16S24.837 0 16 0 0 7.163 0 16s7.163 16 16 16z" fill="#FCFCFC"></path>
    <path d="M6.609 14.84l-1.74-3.155L6.61 8.58l1.739 3.105-1.74 3.156zm-3.479 0l-1.739-3.155 1.74-3.105 1.739 3.105-1.74 3.156zm3.479 8.58l-1.74-3.155 1.74-3.106 1.739 3.106-1.74 3.155zm-3.479 0l-1.739-3.155 1.74-3.106 1.739 3.106-1.74 3.155zM8.348 3.106l-.493-.88a16.044 16.044 0 0 0-2.474 1.807l1.228 2.228 1.739-3.155zm-1.74 22.633l-1.24 2.216c.762.679 1.59 1.286 2.473 1.81l.507-.92-1.74-3.106z" fill="#A2001D"></path>
    <path d="M9.74 20.174v10.554A15.948 15.948 0 0 0 16 32c6.88 0 12.744-4.342 15.005-10.435L9.739 20.174z" fill="#6DA544"></path>
    <path d="M31.005 21.565C31.648 19.832 32 17.957 32 16c0-8.837-7.163-16-16-16a15.95 15.95 0 0 0-6.26 1.272v20.293h21.265z" fill="#A2001D"></path>
  </symbol>
  <symbol viewBox="0 0 24 24" fill="none"  id="flag_en">
    <path d="M12 24c6.627 0 12-5.373 12-12S18.627 0 12 0 0 5.373 0 12s5.373 12 12 12z" fill="#F0F0F0"></path>
    <path d="M2.48 4.694A11.956 11.956 0 0 0 .413 8.87h6.243L2.48 4.694zM23.586 8.87a11.957 11.957 0 0 0-2.067-4.176L17.344 8.87h6.242zM.413 15.13a11.957 11.957 0 0 0 2.067 4.176l4.176-4.176H.413zM19.305 2.48A11.957 11.957 0 0 0 15.13.414v6.243l4.175-4.175zM4.694 21.52a11.957 11.957 0 0 0 4.176 2.067v-6.243l-4.176 4.175zM8.87.413a11.957 11.957 0 0 0-4.176 2.068L8.87 6.656V.413zm6.26 23.174a11.96 11.96 0 0 0 4.175-2.068l-4.175-4.175v6.242zm2.214-8.457l4.175 4.176a11.957 11.957 0 0 0 2.067-4.176h-6.242z" fill="#0052B4"></path>
    <path d="M23.898 10.435H13.565V.102a12.12 12.12 0 0 0-3.13 0v10.333H.102a12.12 12.12 0 0 0 0 3.13h10.333v10.333a12.12 12.12 0 0 0 3.13 0V13.565h10.333a12.12 12.12 0 0 0 0-3.13z" fill="#D80027"></path>
    <path d="M15.13 15.13l5.356 5.355c.246-.246.48-.503.705-.77l-4.584-4.585H15.13zm-6.26 0l-5.355 5.355c.246.247.503.482.77.706l4.585-4.585v-1.475zm0-6.26L3.515 3.515a12.03 12.03 0 0 0-.705.77L7.394 8.87H8.87zm6.26 0l5.356-5.355a12.023 12.023 0 0 0-.77-.706L15.13 7.394V8.87z" fill="#D80027"></path>
  </symbol>
  <symbol viewBox="0 0 512 512" fill="none"  id="flag_es">
    <path d="M0 256c0 31.314 5.633 61.31 15.923 89.043L256 367.304l240.077-22.261C506.367 317.31 512 287.314 512 256c0-31.314-5.633-61.31-15.923-89.043L256 144.696 15.923 166.957C5.633 194.69 0 224.686 0 256z" fill="#FFDA44"></path>
    <path d="M496.077 166.957C459.906 69.473 366.071 0 256 0S52.094 69.473 15.923 166.957h480.154zM15.923 345.043C52.094 442.527 145.929 512 256 512s203.906-69.473 240.077-166.957H15.923z" fill="#D80027"></path>
  </symbol>
  <symbol  viewBox="0 0 512 512" id="flag_id">
    <circle cx="256" cy="256" r="256" fill="#f0f0f0"></circle>
    <path d="M0 256C0 114.616 114.616 0 256 0s256 114.616 256 256" fill="#a2001d"></path>
  </symbol>
  <symbol viewBox="0 0 24 24" fill="none"  id="flag_ja">
    <path d="M12 24c6.627 0 12-5.373 12-12S18.627 0 12 0 0 5.373 0 12s5.373 12 12 12z" fill="#F0F0F0"></path>
    <path d="M12 17.218a5.217 5.217 0 1 0 0-10.435 5.217 5.217 0 0 0 0 10.435z" fill="#D80027"></path>
  </symbol>
  <symbol viewBox="0 0 32 32"  xmlns:xlink="http://www.w3.org/1999/xlink" id="flag_ko">
    <defs>
      <circle id="a" cx="16" cy="16" r="16"></circle>
    </defs>
    <g fill="none" fill-rule="evenodd">
      <mask id="b" fill="#fff">
        <use xlink:href="#a"></use>
      </mask>
      <use fill="#FFF" xlink:href="#a"></use>
      <g mask="url(#b)">
        <path fill="#28292B" d="M3 10.306l.818.811 3.65-3.675-.815-.81zM4.175 11.5l3.652-3.675.817.811-3.652 3.675zm1.139 1.143l3.652-3.674.817.81-3.652 3.676zm18.58 7.947l1.434-1.445.818.812-1.436 1.447zm-1.401 3.041l-.818-.811 1.405-1.416.814.815zm2.588-1.86l1.422-1.431.816.812-1.424 1.434zm-1.411 3.053l-.818-.811 1.414-1.427.816.815zm2.554-1.914l.816.814 1.418-1.43-.817-.81zm-2.232 2.247l.818.813 1.418-1.429-.815-.815zm2.33-15.623l1.449 1.437.811-.818-1.444-1.435zM24.908 6.5l-.813.817 1.414 1.4.812-.813zm-2.005 1.993l.812-.817 1.426 1.415.815.816 1.43 1.42-.81.817-1.435-1.424-.815-.813zm1.1 3.371l.814-.814 1.427 1.414-.812.817zm-2.246-2.23l.812-.818L24 10.236l-.817.816zM5.361 19.905l.812-.816 1.416 1.403.814.815 1.446 1.435-.813.816-1.447-1.436-.815-.815zm1.861 2.588l1.431 1.422-.813.817-1.433-1.424zm-3.053-1.411l.812-.818 1.426 1.415-.815.815zm-1.146 1.14L4.45 23.64l.818.812 1.429 1.418.811-.818-1.426-1.414-.816-.813-1.433-1.42z"></path>
        <path d="M22.132 15.99a6.21 6.21 0 1 1-12.417 0 6.21 6.21 0 0 1 12.417 0" fill="#2E4593"></path>
        <path d="M22.1 15.99c0 .296-.02.585-.062.87-.18-1.231-.852-3.45-3.395-3.493-1.859 0-2.497.826-2.889 1.802-.568 1.41-.63 3.126-3.126 3.126-1.836 0-2.63-1.037-2.943-2.213-.004-.03-.004-.06-.004-.091a6.212 6.212 0 0 1 6.212-6.212 6.211 6.211 0 0 1 6.208 6.212" fill="#DB2E2E"></path>
      </g>
    </g>
  </symbol>
  <symbol  viewBox="0 0 512 512" id="flag_ms">
    <circle cx="256" cy="256" r="256" fill="#f0f0f0"></circle>
    <path d="M244.87 256H512c0-23.107-3.08-45.489-8.819-66.783H244.87V256zm0-133.565h229.556a257.328 257.328 0 0 0-59.069-66.783H244.87v66.783zM256 512c60.249 0 115.626-20.824 159.357-55.652H96.643C140.374 491.176 195.751 512 256 512zM37.574 389.565h436.852a254.492 254.492 0 0 0 28.755-66.783H8.819a254.46 254.46 0 0 0 28.755 66.783z" fill="#d80027"></path>
    <path d="M256 256V0C114.616 0 0 114.616 0 256h256z" fill="#0052b4"></path>
    <g fill="#ffda44">
      <path d="M170.234 219.13c-34.962 0-63.304-28.343-63.304-63.304s28.343-63.304 63.304-63.304c10.901 0 21.158 2.757 30.113 7.609-14.048-13.737-33.26-22.217-54.461-22.217-43.029 0-77.913 34.883-77.913 77.913s34.884 77.913 77.913 77.913c21.201 0 40.413-8.48 54.461-22.217-8.955 4.85-19.211 7.607-30.113 7.607z"></path>
      <path d="M188.073 111.304l11.239 23.502 25.381-5.864-11.366 23.439 20.412 16.187-25.414 5.729.071 26.051-20.323-16.298-20.324 16.298.07-26.051-25.414-5.729 20.412-16.187-11.367-23.439 25.383 5.864z"></path>
    </g>
  </symbol>
  <symbol viewBox="0 0 512 512" fill="none"  id="flag_pt">
    <path d="M0 256c0 110.07 69.472 203.905 166.955 240.076l22.262-240.077-22.262-240.076C69.472 52.095 0 145.929 0 256z" fill="#6DA544"></path>
    <path d="M512 256C512 114.616 397.384 0 256 0c-31.314 0-61.311 5.633-89.045 15.923v480.154C194.689 506.368 224.686 512 256 512c141.384 0 256-114.616 256-256z" fill="#D80027"></path>
    <path d="M166.957 345.043C216.134 345.043 256 305.177 256 256c0-49.177-39.866-89.043-89.043-89.043-49.177 0-89.043 39.866-89.043 89.043 0 49.177 39.866 89.043 89.043 89.043z" fill="#FFDA44"></path>
    <path d="M116.87 211.478v55.652c0 27.662 22.424 50.087 50.087 50.087 27.663 0 50.087-22.424 50.087-50.087v-55.652H116.87z" fill="#D80027"></path>
    <path d="M166.957 283.826c-9.206 0-16.696-7.49-16.696-16.696v-22.26h33.391v22.261c0 9.205-7.49 16.695-16.695 16.695z" fill="#F0F0F0"></path>
  </symbol>
  <symbol  fill="none" viewBox="0 0 24 24" id="flag_ru">
    <path d="M12 24c6.627 0 12-5.373 12-12S18.627 0 12 0 0 5.373 0 12s5.373 12 12 12z" fill="#F0F0F0"></path>
    <path d="M23.254 16.174c.482-1.3.746-2.706.746-4.174 0-1.468-.264-2.874-.746-4.174H.746A11.974 11.974 0 0 0 0 12c0 1.468.264 2.874.746 4.174L12 17.217l11.254-1.043z" fill="#0052B4"></path>
    <path d="M12 24c5.16 0 9.558-3.257 11.254-7.826H.746C2.442 20.744 6.84 24 12 24z" fill="#D80027"></path>
  </symbol>
  <symbol viewBox="0 0 24 24" fill="none"  id="flag_th">
    <path d="M12 24c6.627 0 12-5.373 12-12S18.627 0 12 0 0 5.373 0 12s5.373 12 12 12z" fill="#F0F0F0"></path>
    <path d="M23.254 7.826H.746A11.973 11.973 0 0 0 0 12c0 1.468.264 2.874.746 4.174h22.508c.482-1.3.746-2.706.746-4.174 0-1.468-.264-2.874-.746-4.174z" fill="#0052B4"></path>
    <path d="M12 0a11.972 11.972 0 0 0-9.097 4.174h18.194A11.972 11.972 0 0 0 12 0zm9.096 19.826H2.903A11.972 11.972 0 0 0 12 24c3.637 0 6.896-1.618 9.096-4.174z" fill="#D80027"></path>
  </symbol>
  <symbol  viewBox="0 0 512 512" id="flag_vi">
    <circle cx="256" cy="256" r="256" fill="#d80027"></circle>
    <path fill="#ffda44" d="M256 133.565l27.628 85.029h89.405l-72.331 52.55 27.628 85.03L256 303.623l-72.33 52.551 27.628-85.03-72.33-52.55h89.404z"></path>
  </symbol>
  <symbol viewBox="0 0 32 32"  xmlns:xlink="http://www.w3.org/1999/xlink" id="flag_zh">
    <defs>
      <circle id="a" cx="16" cy="16" r="16"></circle>
    </defs>
    <g fill="none" fill-rule="evenodd">
      <mask id="b" fill="#fff">
        <use xlink:href="#a"></use>
      </mask>
      <circle stroke="#949494" stroke-width=".5" cx="16" cy="16" r="15.75"></circle>
      <g mask="url(#b)">
        <path fill="#F42525" d="M-13.5 35.04h59.879V-2.5H-13.5z"></path>
        <g fill="#FFF">
          <path d="M13.305 14.885l1.634 4.6-3.899-2.888-.007-.021-.007.021-3.903 2.887 1.637-4.599.045-.032h-.026L4.765 12.14l4.833.008 1.327-4.628 1.49 4.62-.007.013.015-.005 4.88-.008-4.027 2.713h-.013zm10.727 4.691l.304.871.275-.885-.306-.944z"></path>
          <path d="M24.612 19.561l-.751.539.925.018.823-.557z"></path>
          <path d="M24.33 20.475l.799.589-.339-.94-.752-.53z"></path>
          <path d="M23.05 19.561l.819.557.929-.018-.753-.539z"></path>
          <path d="M23.866 20.124l-.334.94.795-.59.292-.881zm-4.338 4.179l.049.922.513-.769-.03-.992z"></path>
          <path d="M19.219 24.757l.882.282.945-.307-.956-.276z"></path>
          <path d="M19.562 25.25l.594.786-.052-.994-.573-.721z"></path>
          <path d="M19.222 24.778l.893.243-.571-.724-.956-.282z"></path>
          <path d="M19.214 24.783l-.584.808.93-.342.527-.763zm5.999-11.043l-.23.892.723-.583.27-.952z"></path>
          <path d="M24.783 14.076l.76.531.992-.003-.83-.553z"></path>
          <path d="M24.966 14.65l.333.932.243-.968-.333-.857z"></path>
          <path d="M24.78 14.097l.781.5-.327-.862-.827-.554z"></path>
          <path d="M24.772 14.097l-.798.594.989-.045.73-.565zm-2.369-5.845l.04.92.52-.767-.018-.99z"></path>
          <path d="M22.086 8.701l.882.288.947-.292-.952-.288z"></path>
          <path d="M22.428 9.193l.587.8-.045-.996-.564-.729z"></path>
          <path d="M22.09 8.719l.894.252-.562-.727-.954-.292z"></path>
          <path d="M22.083 8.727l-.59.797.932-.33.534-.755z"></path>
        </g>
      </g>
    </g>
  </symbol>
  <symbol  viewBox="0 0 512 512" id="flag_no">
    <circle style="fill:#F0F0F0;" cx="256" cy="256" r="256"/>
    <g>
      <path style="fill:#D80027;" d="M8.819,322.783c14.812,54.959,47.457,102.593,91.355,136.322V322.783H8.819z"/>
      <path style="fill:#D80027;" d="M233.739,511.026C241.077,511.658,248.498,512,256,512c118.279,0,217.805-80.221,247.181-189.217
        H233.739V511.026z"/>
      <path style="fill:#D80027;" d="M503.181,189.217C473.805,80.221,374.279,0,256,0c-7.502,0-14.923,0.342-22.261,0.974v188.243
        H503.181z"/>
      <path style="fill:#D80027;" d="M100.174,52.895c-43.898,33.73-76.543,81.363-91.355,136.322h91.355V52.895z"/>
    </g>
    <path style="fill:#0052B4;" d="M509.833,222.609H200.349h-0.001V6.085c-23.658,5.246-46.087,13.749-66.783,25.042v191.48v0.001
      H2.167C0.742,233.539,0,244.683,0,256s0.742,22.461,2.167,33.391h131.397h0.001v191.481c20.696,11.292,43.125,19.797,66.783,25.042
      V289.394v-0.002h309.485C511.256,278.461,512,267.317,512,256S511.256,233.539,509.833,222.609z"/>
  </symbol>
  <symbol  viewBox="0 0 512 512" id="flag_ca">
    <circle style="fill:#F0F0F0;" cx="256" cy="256" r="256"/>
    <g>
      <path style="fill:#D80027;" d="M512,256c0-101.494-59.065-189.19-144.696-230.598v461.195C452.935,445.19,512,357.494,512,256z"/>
      <path style="fill:#D80027;" d="M0,256c0,101.494,59.065,189.19,144.696,230.598V25.402C59.065,66.81,0,154.506,0,256z"/>
      <polygon style="fill:#D80027;" points="300.522,289.391 345.043,267.13 322.783,256 322.783,233.739 278.261,256 300.522,211.478 
        278.261,211.478 256,178.087 233.739,211.478 211.478,211.478 233.739,256 189.217,233.739 189.217,256 166.957,267.13 
        211.478,289.391 200.348,311.652 244.87,311.652 244.87,345.043 267.13,345.043 267.13,311.652 311.652,311.652 	"/>
    </g>
  </symbol>
  <symbol  viewBox="0 0 512 512" id="flag_ch">
    <circle style="fill:#D80027;" cx="256" cy="256" r="256"/>
    <polygon style="fill:#F0F0F0;" points="389.565,211.479 300.522,211.479 300.522,122.435 211.478,122.435 211.478,211.479 
      122.435,211.479 122.435,300.522 211.478,300.522 211.478,389.565 300.522,389.565 300.522,300.522 389.565,300.522 "/>
  </symbol>
  <symbol  viewBox="0 0 512 512" id="flag_cn">
    <circle class="st0" cx="256" cy="256" r="256" fill="#D80027"/>
    <g>
      <polygon style="fill:#FFDA44;" points="167.619,167.43 187.16,227.573 250.399,227.573 199.238,264.744 218.78,324.887 
        167.619,287.717 116.457,324.887 135.999,264.744 84.837,227.573 148.076,227.573 	"/>
      <polygon style="fill:#FFDA44;" points="290.787,367.465 271.6,353.525 252.416,367.464 259.743,344.911 240.558,330.971 
        264.274,330.971 271.6,308.418 278.931,330.971 302.644,330.971 283.459,344.91 	"/>
      <polygon style="fill:#FFDA44;" points="340.837,298.576 317.123,298.576 309.794,321.13 302.467,298.577 278.751,298.576 
        297.938,284.636 290.609,262.084 309.796,276.021 328.981,262.083 321.652,284.636 	"/>
      <polygon style="fill:#FFDA44;" points="340.837,213.426 321.652,227.366 328.98,249.917 309.796,235.981 290.609,249.919 
        297.938,227.364 278.752,213.426 302.467,213.425 309.796,190.87 317.123,213.425 	"/>
      <polygon style="fill:#FFDA44;" points="290.787,144.536 283.46,167.091 302.644,181.029 278.932,181.03 271.602,203.586 
        264.274,181.029 240.56,181.031 259.745,167.09 252.416,144.535 271.6,158.476 	"/>
    </g>
  </symbol>
  <symbol  viewBox="0 0 512 512" id="flag_nl">
    <circle style="fill:#F0F0F0;" cx="256" cy="256" r="256"/>
    <path style="fill:#A2001D;" d="M256,0C145.929,0,52.094,69.472,15.923,166.957h480.155C459.906,69.472,366.071,0,256,0z"/>
    <path style="fill:#0052B4;" d="M256,512c110.071,0,203.906-69.472,240.077-166.957H15.923C52.094,442.528,145.929,512,256,512z"/>
  </symbol>
  <symbol  viewBox="0 0 14 16" id="apple-store">
    <path d="M10.8724 8.50875C10.8883 7.27362 11.5517 6.10492 12.6039 5.45799C11.9401 4.50992 10.8282 3.90882 9.67139 3.87262C8.43756 3.74311 7.24141 4.61093 6.61267 4.61093C5.97177 4.61093 5.00372 3.88548 3.9613 3.90693C2.60255 3.95083 1.33586 4.72334 0.674795 5.91125C-0.746224 8.37152 0.313728 11.9873 1.67495 13.976C2.35599 14.9498 3.15194 16.0376 4.19342 15.999C5.21257 15.9567 5.59321 15.3491 6.82341 15.3491C8.04219 15.3491 8.39931 15.999 9.46192 15.9745C10.5555 15.9567 11.2445 14.9963 11.9017 14.0133C12.391 13.3194 12.7676 12.5526 13.0174 11.7411C11.7322 11.1975 10.8739 9.90415 10.8724 8.50875Z" fill="white"/>
    <path d="M8.86532 2.56476C9.46159 1.84895 9.75535 0.928903 9.68422 0C8.77324 0.0956804 7.93176 0.531067 7.32743 1.21941C6.73647 1.89196 6.42894 2.79581 6.48708 3.68921C7.39838 3.6986 8.29427 3.27501 8.86532 2.56476Z" fill="white"/>
  </symbol>
  <symbol  viewBox="0 0 14 16" id="apple-storeBlack">
    <path d="M10.8724 8.50875C10.8883 7.27362 11.5517 6.10492 12.6039 5.45799C11.9401 4.50992 10.8282 3.90882 9.67139 3.87262C8.43756 3.74311 7.24141 4.61093 6.61267 4.61093C5.97177 4.61093 5.00372 3.88548 3.9613 3.90693C2.60255 3.95083 1.33586 4.72334 0.674795 5.91125C-0.746224 8.37152 0.313728 11.9873 1.67495 13.976C2.35599 14.9498 3.15194 16.0376 4.19342 15.999C5.21257 15.9567 5.59321 15.3491 6.82341 15.3491C8.04219 15.3491 8.39931 15.999 9.46192 15.9745C10.5555 15.9567 11.2445 14.9963 11.9017 14.0133C12.391 13.3194 12.7676 12.5526 13.0174 11.7411C11.7322 11.1975 10.8739 9.90415 10.8724 8.50875Z" fill="black"/>
    <path d="M8.86532 2.56476C9.46159 1.84895 9.75535 0.928903 9.68422 0C8.77324 0.0956804 7.93176 0.531067 7.32743 1.21941C6.73647 1.89196 6.42894 2.79581 6.48708 3.68921C7.39838 3.6986 8.29427 3.27501 8.86532 2.56476Z" fill="black"/>
  </symbol>
</svg>
