<svg xmlns="http://www.w3.org/2000/svg">
  <symbol viewBox="0 0 184 40" id="cc_logo">
    <path d="M112.254 23.2858C113.887 23.2858 115.254 21.9191 115.254 20.2858C115.254 18.6526 113.887 17.2858 112.254 17.2858C110.621 17.2858 109.254 18.6526 109.254 20.2858C109.254 21.9191 110.621 23.2858 112.254 23.2858Z" fill="var(--primary)"></path>
    <path d="M170.577 11.2555C168.177 11.2555 166.621 12.1572 165.675 13.5428C164.729 12.0869 163.241 11.2555 161.246 11.2555C158.982 11.2555 157.494 12.1572 156.716 13.3346V11.7408H151.646V29.068H156.716V19.296C156.716 17.2507 157.663 16.0382 159.354 16.0382C160.976 16.0382 161.788 17.1466 161.788 18.8796V29.068H166.858V19.296C166.858 17.2507 167.805 16.0382 169.495 16.0382C171.117 16.0382 171.928 17.1466 171.928 18.8796V29.068H177V18.4295C177 14.097 174.464 11.2555 170.577 11.2555ZM141.167 24.4936C138.968 24.4936 137.278 22.8647 137.278 20.4044C137.278 17.9442 138.968 16.3153 141.167 16.3153C143.363 16.3153 145.054 17.9442 145.054 20.4044C145.054 22.8647 143.363 24.4936 141.167 24.4936ZM141.167 11.2555C136.197 11.2555 132.208 15.2406 132.208 20.4044C132.208 25.5682 136.197 29.5533 141.167 29.5533C146.135 29.5533 150.124 25.5682 150.124 20.4044C150.124 15.2406 146.135 11.2555 141.167 11.2555Z" fill="currentColor"></path>
    <path d="M125.012 24.7356C122.815 24.7356 121.193 23.1067 121.193 20.7154C121.193 18.3241 122.815 16.6951 125.012 16.6951C126.5 16.6951 127.717 17.4238 128.292 18.6363L132.721 16.0017C131.267 13.3332 128.359 11.5665 125.081 11.5665C119.942 11.5665 116.122 15.5515 116.122 20.7154C116.122 25.8792 119.942 29.8643 125.081 29.8643C128.393 29.8643 131.267 28.0961 132.721 25.3939L128.292 22.7944C127.751 24.0069 126.5 24.7356 125.012 24.7356ZM91.3083 24.9438C88.9755 24.9438 87.285 23.3149 87.285 20.7154C87.285 18.1159 88.9755 16.487 91.3083 16.487C93.641 16.487 95.3315 18.1159 95.3315 20.7154C95.3315 23.3149 93.641 24.9438 91.3083 24.9438ZM95.3315 13.6807C94.2159 12.3641 92.5597 11.5665 90.2942 11.5665C85.8661 11.5665 82.2147 15.5515 82.2147 20.7154C82.2147 25.8792 85.8661 29.8643 90.2942 29.8643C92.5597 29.8643 94.2159 29.0667 95.3315 27.75V29.379H100.402V12.0518H95.3315V13.6807ZM78.3945 7.20023L73.3243 8.7588V12.0518H70.6197V17.0426H73.3243V23.1756C73.3243 28.0272 75.2508 30.0724 81.8772 29.379V24.6667C79.646 24.8045 78.3945 24.6667 78.3945 23.1756V17.0426H81.8772V12.0518H78.3945V7.20023Z" fill="currentColor"></path>
    <path d="M64.1368 29.0679H69.2071V11.7408H64.1368V29.0679Z" fill="currentColor"></path>
    <path d="M102.763 29.068H107.833V4L102.763 5.58386V29.068Z" fill="currentColor"></path>
    <path d="M53.5228 24.6314C51.1887 24.6314 49.4968 23.0025 49.4968 20.4058C49.4968 17.8035 51.1887 16.1788 53.5228 16.1788C55.8528 16.1788 57.5447 17.8035 57.5447 20.4058C57.5447 23.0025 55.8528 24.6314 53.5228 24.6314ZM54.5369 11.2569C52.27 11.2569 50.6138 12.0517 49.4968 13.3683V11.7422H44.4266V36H49.4968V27.4377C50.6138 28.7543 52.27 29.5533 54.5369 29.5533C58.9663 29.5533 62.615 25.5668 62.615 20.4058C62.615 15.2392 58.9663 11.2569 54.5369 11.2569ZM32.9674 24.6328C30.636 24.6328 28.9455 23.0039 28.9455 20.4044C28.9455 17.8049 30.636 16.176 32.9674 16.176C35.3001 16.176 36.9907 17.8049 36.9907 20.4044C36.9907 23.0039 35.3001 24.6328 32.9674 24.6328ZM36.9907 13.3697C35.8751 12.0531 34.2188 11.2555 31.9533 11.2555C27.5253 11.2555 23.8739 15.2406 23.8739 20.4044C23.8739 25.5682 27.5253 29.5533 31.9533 29.5533C34.2188 29.5533 35.8751 28.7557 36.9907 27.4391V29.068H42.0623V11.7408H36.9907V13.3697ZM15.8904 16.3842C17.3779 16.3842 18.595 17.1128 19.17 18.3254L23.5981 15.6907C22.1449 13.0223 19.2372 11.2555 15.9577 11.2555C10.8202 11.2555 7 15.2406 7 20.4044C7 25.5682 10.8202 29.5533 15.9577 29.5533C19.2715 29.5533 22.1449 27.7851 23.5981 25.083L19.17 22.4835C18.6293 23.696 17.3779 24.4246 15.8904 24.4246C13.6936 24.4246 12.0703 22.7957 12.0703 20.4044C12.0703 18.0131 13.6936 16.3842 15.8904 16.3842Z" fill="currentColor"></path>
    <path d="M66.7328 10.4495C68.389 10.4495 69.7749 9.02736 69.7749 7.32952C69.7749 5.63169 68.389 4.21097 66.7328 4.21097C65.0765 4.21097 63.6906 5.63169 63.6906 7.32952C63.6906 9.02736 65.0765 10.4495 66.7328 10.4495Z" fill="currentColor"></path>
  </symbol>

  <symbol viewBox="0 0 24 24" id="cc_logo_short">
    <path fill-rule="evenodd" clip-rule="evenodd" d="M11.8124 17.1658C8.89348 17.1658 6.73848 15.0425 6.73848 11.9255C6.73848 8.80842 8.89348 6.68516 11.8124 6.68516C13.7887 6.68516 15.4059 7.63494 16.1698 9.21547L22.055 5.78121C20.1225 2.30295 16.2591 0 11.9036 0C5.07574 0 0 5.19447 0 11.9255C0 18.6565 5.07574 23.8509 11.9036 23.8509C16.3047 23.8509 20.1225 21.5461 22.055 18.0239L16.1698 14.6355C15.4515 16.216 13.7887 17.1658 11.8124 17.1658Z" fill="currentColor"></path>
    <path fill-rule="evenodd" clip-rule="evenodd" d="M20.3766 14.7118C21.926 14.7118 23.2225 13.4079 23.2225 11.8497C23.2225 10.2915 21.926 8.98755 20.3766 8.98755C18.8272 8.98755 17.5306 10.2915 17.5306 11.8497C17.5306 13.4079 18.8272 14.7118 20.3766 14.7118Z" fill="var(--primary)"></path>
  </symbol>

  <symbol viewBox="0 0 24 24" id="arrowShort">
    <path d="M4 13L16.17 13L12.59 16.59L14 18L20 12L14 6L12.59 7.41L16.17 11L4 11L4 13Z" fill="currentColor"/>
  </symbol>

  <symbol viewBox="0 0 24 24" id="arrowLong">
    <path d="M13 22L13 5.83L15.59 8.41L17 7L12 2L7 7L8.41 8.41L11 5.83L11 22H13Z" fill="currentColor"/>
  </symbol>

  <symbol viewBox="0 0 24 24" id="chevron_down">
    <path d="M5.98959 9.70193L12 15.7123L18.0104 9.70193L16.5962 8.28772L12 12.8839L7.40381 8.28772L5.98959 9.70193Z" fill="currentColor"></path>
  </symbol>

  <symbol viewBox="0 0 24 24" id="chevron_double">
    <path d="M18.4246 12.0002L12.4142 18.0106L11 16.5963L15.5962 12.0002L11 7.40396L12.4142 5.98975L18.4246 12.0002Z" fill="currentColor"/>
    <path d="M13 12.0002L6.98959 18.0106L5.57538 16.5963L10.1716 12.0002L5.57538 7.40396L6.98959 5.98975L13 12.0002Z" fill="currentColor"/>
  </symbol>

  <symbol viewBox="0 0 24 24" id="search">
    <path d="M14.2338 12.81C15.5287 10.8556 15.3151 8.19634 13.5931 6.47434C11.6273 4.50855 8.44014 4.50855 6.47434 6.47434C4.50855 8.44014 4.50855 11.6273 6.47434 13.5931C8.19634 15.3151 10.8556 15.5287 12.81 14.2338L17.5762 19L19 17.5762L14.2338 12.81ZM12.1694 7.8981C13.3488 9.07757 13.3488 10.9899 12.1694 12.1694C10.9899 13.3488 9.07757 13.3488 7.8981 12.1694C6.71862 10.9899 6.71862 9.07757 7.8981 7.8981C9.07757 6.71862 10.9899 6.71862 12.1694 7.8981Z" fill="currentColor"/>
  </symbol>

  <symbol viewBox="0 0 24 24" id="hamburger">
    <path d="M3 8V6H21V8H3Z" fill="currentColor"></path>
    <path d="M3 13H21V11H3V13Z" fill="currentColor"></path>
    <path d="M3 18H21V16H3V18Z" fill="currentColor"></path>
  </symbol>

  <symbol fill="none" viewBox="0 0 24 24" id="language">
    <path d="M12 20C16.4183 20 20 16.4183 20 12C20 7.58172 16.4183 4 12 4C7.58172 4 4 7.58172 4 12C4 16.4183 7.58172 20 12 20Z" stroke="currentColor" stroke-width="1.6" stroke-linecap="round" stroke-linejoin="round"></path>
    <path d="M12 20C14.1333 18.0606 15.2 15.3939 15.2 12C15.2 8.60606 14.1333 5.93939 12 4C9.86665 5.93939 8.79999 8.60606 8.79999 12C8.79999 15.3939 9.86665 18.0606 12 20Z" stroke="currentColor" stroke-width="1.6" stroke-linecap="round" stroke-linejoin="round"></path>
    <path d="M4.39999 14.4001H19.6M4.39999 9.6001H19.6H4.39999Z" stroke="currentColor" stroke-width="1.6" stroke-linecap="round" stroke-linejoin="round"></path>
  </symbol>

  <symbol viewBox="0 0 24 24" id="close">
    <path d="M17 8.41L15.59 7L12 10.59L8.41 7L7 8.41L10.59 12L7 15.59L8.41 17L12 13.41L15.59 17L17 15.59L13.41 12L17 8.41Z" fill="currentColor"/>
  </symbol>

  <symbol viewBox="0 0 24 24" id="user">
    <path d="M12 2C9.243 2 7 4.243 7 7C7 9.757 9.243 12 12 12C14.757 12 17 9.757 17 7C17 4.243 14.757 2 12 2ZM12 10C10.346 10 9 8.654 9 7C9 5.346 10.346 4 12 4C13.654 4 15 5.346 15 7C15 8.654 13.654 10 12 10ZM21 21V20C21 16.141 17.859 13 14 13H10C6.14 13 3 16.141 3 20V21H5V20C5 17.243 7.243 15 10 15H14C16.757 15 19 17.243 19 20V21H21Z" fill="currentColor"></path>
  </symbol>

  <symbol viewBox="0 0 24 24" id="facebook">
    <path d="M24 12C24 5.37258 18.6274 0 12 0C5.37258 0 0 5.37258 0 12C0 17.9895 4.3882 22.954 10.125 23.8542V15.4688H7.07812V12H10.125V9.35625C10.125 6.34875 11.9166 4.6875 14.6576 4.6875C15.9701 4.6875 17.3438 4.92188 17.3438 4.92188V7.875H15.8306C14.34 7.875 13.875 8.80008 13.875 9.75V12H17.2031L16.6711 15.4688H13.875V23.8542C19.6118 22.954 24 17.9895 24 12Z" fill="currentColor"/>
  </symbol>

  <symbol viewBox="0 0 24 24" id="twitter">
    <g clip-path="url(#clip0_3878_621)">
      <path d="M7.55016 21.7502C16.6045 21.7502 21.5583 14.2469 21.5583 7.74211C21.5583 7.53117 21.5536 7.31554 21.5442 7.1046C22.5079 6.40771 23.3395 5.5445 24 4.55554C23.1025 4.95484 22.1496 5.21563 21.1739 5.32898C22.2013 4.71315 22.9705 3.74572 23.3391 2.60601C22.3726 3.1788 21.3156 3.58286 20.2134 3.80085C19.4708 3.01181 18.489 2.48936 17.4197 2.3143C16.3504 2.13923 15.2532 2.32129 14.2977 2.83234C13.3423 3.34339 12.5818 4.15495 12.1338 5.14156C11.6859 6.12816 11.5754 7.23486 11.8195 8.29054C9.86249 8.19233 7.94794 7.68395 6.19998 6.79834C4.45203 5.91274 2.90969 4.66968 1.67297 3.14976C1.0444 4.23349 0.852057 5.51589 1.13503 6.73634C1.418 7.95678 2.15506 9.02369 3.19641 9.72023C2.41463 9.69541 1.64998 9.48492 0.965625 9.10617V9.1671C0.964925 10.3044 1.3581 11.4068 2.07831 12.287C2.79852 13.1672 3.80132 13.7708 4.91625 13.9952C4.19206 14.1934 3.43198 14.2222 2.69484 14.0796C3.00945 15.0577 3.62157 15.9131 4.44577 16.5266C5.26997 17.14 6.26512 17.4808 7.29234 17.5015C5.54842 18.8714 3.39417 19.6144 1.17656 19.6109C0.783287 19.6103 0.390399 19.5861 0 19.5387C2.25286 20.984 4.87353 21.7516 7.55016 21.7502Z" fill="currentColor"/>
    </g>
    <defs>
    <clipPath id="clip0_3878_621">
      <rect width="24" height="24" fill="white"/>
    </clipPath>
    </defs>
  </symbol>

  <symbol viewBox="0 0 24 24" id="linkedin">
    <path d="M22.2234 0H1.77187C0.792187 0 0 0.773438 0 1.72969V22.2656C0 23.2219 0.792187 24 1.77187 24H22.2234C23.2031 24 24 23.2219 24 22.2703V1.72969C24 0.773438 23.2031 0 22.2234 0ZM7.12031 20.4516H3.55781V8.99531H7.12031V20.4516ZM5.33906 7.43438C4.19531 7.43438 3.27188 6.51094 3.27188 5.37187C3.27188 4.23281 4.19531 3.30937 5.33906 3.30937C6.47813 3.30937 7.40156 4.23281 7.40156 5.37187C7.40156 6.50625 6.47813 7.43438 5.33906 7.43438ZM20.4516 20.4516H16.8937V14.8828C16.8937 13.5562 16.8703 11.8453 15.0422 11.8453C13.1906 11.8453 12.9094 13.2937 12.9094 14.7891V20.4516H9.35625V8.99531H12.7687V10.5609H12.8156C13.2891 9.66094 14.4516 8.70938 16.1813 8.70938C19.7859 8.70938 20.4516 11.0813 20.4516 14.1656V20.4516Z" fill="currentColor"/>
  </symbol>

  <symbol viewBox="0 0 24 24" id="inst">
    <path d="M12 2.16094C15.2063 2.16094 15.5859 2.175 16.8469 2.23125C18.0188 2.28281 18.6516 2.47969 19.0734 2.64375C19.6313 2.85938 20.0344 3.12188 20.4516 3.53906C20.8734 3.96094 21.1313 4.35938 21.3469 4.91719C21.5109 5.33906 21.7078 5.97656 21.7594 7.14375C21.8156 8.40937 21.8297 8.78906 21.8297 11.9906C21.8297 15.1969 21.8156 15.5766 21.7594 16.8375C21.7078 18.0094 21.5109 18.6422 21.3469 19.0641C21.1313 19.6219 20.8687 20.025 20.4516 20.4422C20.0297 20.8641 19.6313 21.1219 19.0734 21.3375C18.6516 21.5016 18.0141 21.6984 16.8469 21.75C15.5813 21.8062 15.2016 21.8203 12 21.8203C8.79375 21.8203 8.41406 21.8062 7.15313 21.75C5.98125 21.6984 5.34844 21.5016 4.92656 21.3375C4.36875 21.1219 3.96563 20.8594 3.54844 20.4422C3.12656 20.0203 2.86875 19.6219 2.65313 19.0641C2.48906 18.6422 2.29219 18.0047 2.24063 16.8375C2.18438 15.5719 2.17031 15.1922 2.17031 11.9906C2.17031 8.78438 2.18438 8.40469 2.24063 7.14375C2.29219 5.97187 2.48906 5.33906 2.65313 4.91719C2.86875 4.35938 3.13125 3.95625 3.54844 3.53906C3.97031 3.11719 4.36875 2.85938 4.92656 2.64375C5.34844 2.47969 5.98594 2.28281 7.15313 2.23125C8.41406 2.175 8.79375 2.16094 12 2.16094ZM12 0C8.74219 0 8.33438 0.0140625 7.05469 0.0703125C5.77969 0.126563 4.90313 0.332812 4.14375 0.628125C3.35156 0.9375 2.68125 1.34531 2.01563 2.01562C1.34531 2.68125 0.9375 3.35156 0.628125 4.13906C0.332812 4.90313 0.126563 5.775 0.0703125 7.05C0.0140625 8.33437 0 8.74219 0 12C0 15.2578 0.0140625 15.6656 0.0703125 16.9453C0.126563 18.2203 0.332812 19.0969 0.628125 19.8563C0.9375 20.6484 1.34531 21.3188 2.01563 21.9844C2.68125 22.65 3.35156 23.0625 4.13906 23.3672C4.90313 23.6625 5.775 23.8687 7.05 23.925C8.32969 23.9812 8.7375 23.9953 11.9953 23.9953C15.2531 23.9953 15.6609 23.9812 16.9406 23.925C18.2156 23.8687 19.0922 23.6625 19.8516 23.3672C20.6391 23.0625 21.3094 22.65 21.975 21.9844C22.6406 21.3188 23.0531 20.6484 23.3578 19.8609C23.6531 19.0969 23.8594 18.225 23.9156 16.95C23.9719 15.6703 23.9859 15.2625 23.9859 12.0047C23.9859 8.74688 23.9719 8.33906 23.9156 7.05938C23.8594 5.78438 23.6531 4.90781 23.3578 4.14844C23.0625 3.35156 22.6547 2.68125 21.9844 2.01562C21.3188 1.35 20.6484 0.9375 19.8609 0.632812C19.0969 0.3375 18.225 0.13125 16.95 0.075C15.6656 0.0140625 15.2578 0 12 0Z" fill="currentColor"/>
    <path d="M12 5.83594C8.59688 5.83594 5.83594 8.59688 5.83594 12C5.83594 15.4031 8.59688 18.1641 12 18.1641C15.4031 18.1641 18.1641 15.4031 18.1641 12C18.1641 8.59688 15.4031 5.83594 12 5.83594ZM12 15.9984C9.79219 15.9984 8.00156 14.2078 8.00156 12C8.00156 9.79219 9.79219 8.00156 12 8.00156C14.2078 8.00156 15.9984 9.79219 15.9984 12C15.9984 14.2078 14.2078 15.9984 12 15.9984Z" fill="currentColor"/>
    <path d="M19.8469 5.59238C19.8469 6.38926 19.2 7.03145 18.4078 7.03145C17.6109 7.03145 16.9688 6.38457 16.9688 5.59238C16.9688 4.79551 17.6156 4.15332 18.4078 4.15332C19.2 4.15332 19.8469 4.8002 19.8469 5.59238Z" fill="currentColor"/>
  </symbol>

  <symbol viewBox="0 0 24 24" id="youtube">
    <path d="M23.7609 7.1998C23.7609 7.1998 23.5266 5.54512 22.8047 4.81855C21.8906 3.8623 20.8688 3.85762 20.4 3.80137C17.0438 3.55762 12.0047 3.55762 12.0047 3.55762H11.9953C11.9953 3.55762 6.95625 3.55762 3.6 3.80137C3.13125 3.85762 2.10938 3.8623 1.19531 4.81855C0.473438 5.54512 0.24375 7.1998 0.24375 7.1998C0.24375 7.1998 0 9.14512 0 11.0857V12.9045C0 14.8451 0.239062 16.7904 0.239062 16.7904C0.239062 16.7904 0.473437 18.4451 1.19062 19.1717C2.10469 20.1279 3.30469 20.0951 3.83906 20.1982C5.76094 20.3811 12 20.4373 12 20.4373C12 20.4373 17.0438 20.4279 20.4 20.1889C20.8688 20.1326 21.8906 20.1279 22.8047 19.1717C23.5266 18.4451 23.7609 16.7904 23.7609 16.7904C23.7609 16.7904 24 14.8498 24 12.9045V11.0857C24 9.14512 23.7609 7.1998 23.7609 7.1998ZM9.52031 15.1123V8.36699L16.0031 11.7514L9.52031 15.1123Z" fill="currentColor"/>
  </symbol>

  <symbol viewBox="0 0 24 24" id="reddit">
   <path fill-rule="evenodd" clip-rule="evenodd" d="M24 12C24 18.6274 18.6274 24 12 24C5.37258 24 0 18.6274 0 12C0 5.37258 5.37258 0 12 0C18.6274 0 24 5.37258 24 12ZM18.2456 10.2456C19.214 10.2456 20 11.0316 20 12C20 12.7158 19.5649 13.3333 18.9895 13.614C19.0176 13.7824 19.0316 13.9509 19.0316 14.1333C19.0316 16.828 15.9018 19.0035 12.0281 19.0035C8.15439 19.0035 5.02457 16.828 5.02457 14.1333C5.02457 13.9509 5.0386 13.7684 5.06667 13.6C4.44913 13.3193 4.02808 12.7158 4.02808 12C4.02808 11.0316 4.81404 10.2456 5.78246 10.2456C6.24562 10.2456 6.68071 10.4421 6.98948 10.7368C8.1965 9.85261 9.86667 9.30524 11.7333 9.2491L12.6176 5.06664C12.6456 4.98243 12.6877 4.91226 12.7579 4.87015C12.8281 4.82805 12.9123 4.81401 12.9965 4.82805L15.9018 5.44559C16.0983 5.02454 16.5193 4.74384 17.0105 4.74384C17.6983 4.74384 18.2597 5.30524 18.2597 5.99296C18.2597 6.68068 17.6983 7.24208 17.0105 7.24208C16.3369 7.24208 15.7895 6.70875 15.7614 6.0491L13.1649 5.50173L12.3649 9.2491C14.1895 9.31928 15.8456 9.88068 17.0386 10.7368C17.3474 10.428 17.7684 10.2456 18.2456 10.2456ZM9.24913 12C8.56141 12 8.00001 12.5614 8.00001 13.2491C8.00001 13.9368 8.56141 14.4982 9.24913 14.4982C9.93685 14.4982 10.4983 13.9368 10.4983 13.2491C10.4983 12.5614 9.93685 12 9.24913 12ZM12.014 17.4596C12.4912 17.4596 14.1193 17.4035 14.9754 16.5473C15.1018 16.421 15.1018 16.2245 15.0035 16.0842C14.8772 15.9579 14.6667 15.9579 14.5404 16.0842C13.993 16.6175 12.8561 16.814 12.0281 16.814C11.2 16.814 10.0491 16.6175 9.5158 16.0842C9.38948 15.9579 9.17895 15.9579 9.05264 16.0842C8.92632 16.2105 8.92632 16.421 9.05264 16.5473C9.89474 17.3895 11.5368 17.4596 12.014 17.4596ZM13.5018 13.2491C13.5018 13.9368 14.0632 14.4982 14.7509 14.4982C15.4386 14.4982 16 13.9368 16 13.2491C16 12.5614 15.4386 12 14.7509 12C14.0632 12 13.5018 12.5614 13.5018 13.2491Z" fill="currentColor"/>
  </symbol>

  <symbol viewBox="0 0 24 24" id="rss">
    <circle cx="12" cy="12" r="12" fill="currentColor"/>
    <path d="M9.90593 15.39C9.90593 14.5196 9.18027 13.8114 8.28832 13.8114C7.39627 13.8114 6.67053 14.5196 6.67053 15.39C6.67053 16.2602 7.39627 16.9682 8.28832 16.9682C9.18027 16.9682 9.90593 16.2602 9.90593 15.39Z" fill="white"/>
    <path d="M6.8525 12.0304C8.15047 12.0304 9.37119 12.5257 10.2897 13.4251C11.2083 14.3259 11.7142 15.5255 11.7142 16.8027C11.7142 16.9 11.795 16.9788 11.8947 16.9788H13.9696C14.0693 16.9788 14.1501 16.9 14.1501 16.8027C14.1501 12.8605 10.8764 9.65332 6.85247 9.65332C6.75277 9.65332 6.672 9.73213 6.672 9.82939V11.8543C6.67203 11.9516 6.75285 12.0304 6.8525 12.0304Z" fill="white"/>
    <path d="M6.8554 6.06445C6.7557 6.06445 6.67493 6.14326 6.67493 6.24052V8.26511C6.67493 8.36237 6.7557 8.44118 6.8554 8.44118C11.5562 8.44118 15.3807 12.1929 15.3807 16.8045C15.3807 16.9018 15.4615 16.9806 15.5611 16.9806H17.6355C17.7352 16.9806 17.816 16.9018 17.816 16.8045C17.816 10.8824 12.8991 6.06445 6.8554 6.06445Z" fill="white"/>
  </symbol>

  <symbol  viewBox="0 0 24 24" id="telegram-black">
    <path fill-rule="evenodd" clip-rule="evenodd" d="M24 12C24 18.6274 18.6274 24 12 24C5.37258 24 0 18.6274 0 12C0 5.37258 5.37258 0 12 0C18.6274 0 24 5.37258 24 12ZM12.4301 8.85893C11.263 9.3444 8.93026 10.3492 5.43201 11.8733C4.86395 12.0992 4.56638 12.3202 4.53929 12.5363C4.49351 12.9015 4.95084 13.0453 5.5736 13.2411C5.65831 13.2678 5.74608 13.2954 5.83606 13.3246C6.44876 13.5238 7.27295 13.7568 7.70141 13.766C8.09007 13.7744 8.52385 13.6142 9.00276 13.2853C12.2713 11.079 13.9585 9.96381 14.0644 9.93977C14.1392 9.92281 14.2427 9.90148 14.3129 9.96385C14.3831 10.0262 14.3762 10.1443 14.3687 10.176C14.3234 10.3691 12.5282 12.0381 11.5992 12.9018C11.3096 13.171 11.1042 13.362 11.0622 13.4056C10.9681 13.5033 10.8722 13.5958 10.7801 13.6846C10.2109 14.2333 9.78403 14.6448 10.8037 15.3168C11.2937 15.6397 11.6859 15.9067 12.077 16.1731C12.5043 16.4641 12.9304 16.7543 13.4817 17.1157C13.6222 17.2077 13.7563 17.3034 13.887 17.3965C14.3842 17.751 14.8309 18.0694 15.3827 18.0186C15.7034 17.9891 16.0346 17.6876 16.2028 16.7884C16.6003 14.6631 17.3818 10.0585 17.5623 8.16097C17.5782 7.99473 17.5583 7.78197 17.5423 7.68857C17.5263 7.59518 17.4929 7.46211 17.3715 7.3636C17.2277 7.24694 17.0058 7.22234 16.9065 7.22408C16.4551 7.23203 15.7627 7.47282 12.4301 8.85893Z" fill="currentColor"></path>
  </symbol>

  <symbol fill="white" viewBox="0 0 22 24" id="viber-black">
    <path d="M21.3625 5.29925C20.9532 3.84411 20.143 2.69467 18.9562 1.88151C17.4585 0.852315 15.7356 0.489549 14.2481 0.267406C12.1897 -0.0382949 10.3257 -0.081093 8.54765 0.134936C6.88211 0.338737 5.62784 0.662779 4.48406 1.18655C2.24152 2.2137 0.895175 3.87468 0.483906 6.1226C0.283387 7.21497 0.148343 8.20137 0.0705908 9.14293C-0.109467 11.3195 0.0542219 13.2454 0.569843 15.0307C1.07319 16.7712 1.95097 18.0144 3.25435 18.8316C3.58582 19.0395 4.01141 19.1903 4.42268 19.335C4.65593 19.4165 4.88305 19.496 5.06925 19.5836C5.24112 19.6631 5.24112 19.6774 5.23908 19.82C5.22475 21.0571 5.23908 23.4823 5.23908 23.4823L5.24317 24H6.1762L6.32761 23.8533C6.42787 23.7595 8.73998 21.534 9.56457 20.6373L9.6771 20.513C9.81828 20.3499 9.81828 20.3499 9.96356 20.3479C11.0766 20.3255 12.2143 20.2827 13.3437 20.2215C14.7126 20.1482 16.2983 20.0157 17.792 19.3961C19.1588 18.8275 20.1573 17.9247 20.7568 16.7141C21.3829 15.4506 21.7533 14.0831 21.8924 12.5321C22.1379 9.80528 21.964 7.43915 21.3625 5.29925ZM16.4395 15.903C16.0958 16.4594 15.5842 16.8466 14.9806 17.0973C14.5387 17.2807 14.0885 17.242 13.6527 17.0585C10.0045 15.5199 7.14197 13.0967 5.25135 9.61167C4.86055 8.89429 4.59046 8.1117 4.27945 7.35356C4.21602 7.19867 4.22011 7.01525 4.19147 6.84406C4.21807 5.61921 5.16133 4.92833 6.11481 4.72045C6.47902 4.63893 6.80231 4.76733 7.0724 5.02615C7.82128 5.73538 8.4126 6.56077 8.85866 7.48603C9.05304 7.89159 8.96505 8.25028 8.63358 8.5519C8.56402 8.61508 8.4924 8.67215 8.41669 8.72921C7.65963 9.29578 7.54914 9.7258 7.95223 10.5797C8.63972 12.0328 9.78145 13.009 11.2567 13.6143C11.6455 13.7733 12.0117 13.6938 12.3084 13.3799C12.3493 13.3392 12.3943 13.2984 12.423 13.2495C13.0041 12.2835 13.8491 12.3793 14.6287 12.9295C15.1402 13.2923 15.6374 13.6755 16.1428 14.0443C16.9142 14.6089 16.9081 15.1387 16.4395 15.903ZM11.6005 6.26119C11.4286 6.26119 11.2567 6.27545 11.0869 6.30398C10.8004 6.35086 10.5324 6.15929 10.4833 5.87396C10.4362 5.59068 10.6285 5.32166 10.915 5.27479C11.1401 5.23607 11.3713 5.21773 11.6005 5.21773C13.8696 5.21773 15.7152 7.05601 15.7152 9.31616C15.7152 9.54645 15.6968 9.77675 15.6579 9.99889C15.6149 10.2536 15.3939 10.435 15.1423 10.435C15.1136 10.435 15.085 10.433 15.0543 10.4269C14.7699 10.38 14.5775 10.111 14.6246 9.8277C14.6533 9.66058 14.6676 9.48939 14.6676 9.31616C14.6676 7.63276 13.2905 6.26119 11.6005 6.26119ZM14.1438 9.39156C14.1438 9.67892 13.9085 9.91329 13.62 9.91329C13.3315 9.91329 13.0962 9.67892 13.0962 9.39156C13.0962 8.52949 12.3903 7.82638 11.5247 7.82638C11.2362 7.82638 11.0009 7.592 11.0009 7.30465C11.0009 7.01729 11.2362 6.78292 11.5247 6.78292C12.9693 6.78292 14.1438 7.95273 14.1438 9.39156ZM17.1352 10.5512C17.0799 10.7937 16.8631 10.9568 16.6237 10.9568C16.5848 10.9568 16.5459 10.9527 16.507 10.9445C16.2247 10.8793 16.0487 10.6001 16.1121 10.3189C16.1878 9.98666 16.2267 9.64224 16.2267 9.29578C16.2267 6.7605 14.154 4.696 11.6086 4.696C11.2608 4.696 10.915 4.73472 10.5815 4.81012C10.2991 4.87534 10.0188 4.69803 9.95537 4.41679C9.8899 4.13554 10.0679 3.85634 10.3503 3.79316C10.7595 3.69941 11.183 3.65254 11.6086 3.65254C14.7331 3.65254 17.2743 6.18374 17.2743 9.29578C17.2743 9.71968 17.2273 10.1416 17.1352 10.5512Z" fill="currentColor"></path>
  </symbol>
  
  <symbol viewBox="0 0 24 24" id="blinger">
    <path  d="M15 19C15 20.1046 14.1046 21 13 21C11.8954 21 11 20.1046 11 19C11 17.8954 11.8954 17 13 17C14.1046 17 15 17.8954 15 19ZM15 19H16C18.2091 19 20 17.2091 20 15M20 15V10C20 6.13401 16.866 3 13 3H11C7.13401 3 4 6.13401 4 10V16M20 15H18C16.8954 15 16 14.1046 16 13V11C16 9.89543 16.8954 9 18 9H20M4 9H6C7.10457 9 8 9.89543 8 11V13C8 14.1046 7.10457 15 6 15H4" fill="none" stroke="currentColor" stroke-width="2"/>
  </symbol>

  <symbol viewBox="0 0 24 24" id="livechat">
    <path d="M19.7778 2H4.22222C2.99667 2 2 2.99667 2 4.22222V22L7.33295 18C7.71761 17.7115 8.18549 17.5556 8.66633 17.5556H19.7778C21.0033 17.5556 22 16.5589 22 15.3333V4.22222C22 2.99667 21.0033 2 19.7778 2ZM19.7778 15.3333H7.92622C7.44545 15.3333 6.97763 15.4893 6.593 15.7777L4.22222 17.5556V4.22222H19.7778V15.3333Z" fill="#BB8B62"/>
  </symbol>

  <symbol viewBox="0 0 24 24" id="viber">
    <path d="M17.1359 1.52218C13.5866 0.825941 9.90072 0.825941 6.35137 1.52218C4.78146 1.8703 2.80202 3.81976 2.46073 5.35149C1.84642 8.34531 1.84642 11.4088 2.46073 14.4026C2.87027 15.9343 4.84972 17.8838 6.35137 18.2319C6.41962 18.2319 6.48788 18.3015 6.48788 18.3711V22.7574C6.48788 22.9663 6.76091 23.1055 6.89742 22.8967L8.94512 20.7383C8.94512 20.7383 10.5833 18.9977 10.8563 18.7193C10.8563 18.7193 10.9246 18.6496 10.9928 18.6496C13.0405 18.7193 15.1565 18.5104 17.2042 18.1623C18.7741 17.8141 20.7535 15.8647 21.0948 14.333C21.7091 11.3391 21.7091 8.27568 21.0948 5.28186C20.6853 3.81976 18.7058 1.8703 17.1359 1.52218ZM17.2042 14.6115C16.8629 15.3077 16.4534 15.8647 15.7708 16.2128C15.566 16.2824 15.3613 16.352 15.1565 16.4217C14.8835 16.352 14.6787 16.2824 14.4739 16.2128C12.2897 15.3077 10.242 14.0545 8.60384 12.2442C7.7165 11.1999 6.96568 10.0163 6.35137 8.76305C6.07834 8.13644 5.80531 7.57945 5.60054 6.95283C5.39577 6.39584 5.73705 5.83885 6.07834 5.42111C6.41962 5.00337 6.82916 4.72487 7.30696 4.516C7.64825 4.30713 7.98953 4.44638 8.26256 4.72487C8.80861 5.42111 9.35466 6.11735 9.7642 6.88321C10.0372 7.37057 9.96897 7.92757 9.49118 8.27568C9.35466 8.34531 9.28641 8.41493 9.14989 8.55418C9.08163 8.6238 8.94512 8.69343 8.87686 8.83267C8.74035 9.04154 8.74035 9.25042 8.80861 9.45929C9.35466 11.0606 10.3785 12.3139 11.9484 13.0101C12.2214 13.1493 12.4262 13.219 12.7675 13.219C13.2453 13.1494 13.4501 12.5924 13.7914 12.3139C14.1326 12.0354 14.5422 12.0354 14.9517 12.2442C15.293 12.4531 15.6343 12.7316 16.0438 13.0101C16.3851 13.2886 16.7264 13.4975 17.0677 13.776C17.2724 13.9152 17.3407 14.2633 17.2042 14.6115ZM14.3374 9.38967C14.2009 9.38967 14.2691 9.38967 14.3374 9.38967C14.0644 9.38967 13.9961 9.25042 13.9279 9.04155C13.9279 8.9023 13.9279 8.69343 13.8596 8.55418C13.7914 8.27569 13.6548 7.99719 13.3818 7.78832C13.2453 7.71869 13.1088 7.64907 12.9723 7.57945C12.7675 7.50982 12.631 7.50982 12.4262 7.50982C12.2214 7.4402 12.1532 7.30095 12.1532 7.09208C12.1532 6.95283 12.358 6.81359 12.4945 6.81359C13.5866 6.88321 14.4057 7.50982 14.5422 8.83267C14.5422 8.9023 14.5422 9.04155 14.5422 9.11117C14.5422 9.25042 14.4739 9.38967 14.3374 9.38967ZM13.6548 6.32622C13.3136 6.18697 12.9723 6.04772 12.5627 5.9781C12.4262 5.9781 12.2214 5.90848 12.0849 5.90848C11.8802 5.90848 11.7436 5.76923 11.8119 5.56036C11.8119 5.35149 11.9484 5.21224 12.1532 5.28186C12.8358 5.35149 13.4501 5.49073 14.0644 5.76923C15.293 6.39584 15.9756 7.4402 16.1803 8.83267C16.1803 8.9023 16.1803 8.97192 16.1803 9.04155C16.1803 9.18079 16.1803 9.32004 16.1803 9.52891C16.1803 9.59854 16.1803 9.66816 16.1803 9.73779C16.1121 10.0163 15.6343 10.0859 15.566 9.73779C15.566 9.66816 15.4978 9.52891 15.4978 9.45929C15.4978 8.83267 15.3613 8.20606 15.0882 7.64907C14.6787 7.02246 14.2009 6.60471 13.6548 6.32622ZM17.3407 10.5036C17.1359 10.5036 16.9994 10.2948 16.9994 10.0859C16.9994 9.66816 16.9312 9.25042 16.8629 8.83267C16.5899 6.60471 14.8152 4.7945 12.6992 4.44638C12.358 4.37675 12.0167 4.37675 11.7437 4.30713C11.5389 4.30713 11.2659 4.30713 11.1976 4.02863C11.1293 3.81976 11.3341 3.61089 11.5389 3.61089C11.6071 3.61089 11.6754 3.61089 11.6754 3.61089C14.4739 3.68052 11.8119 3.61089 11.6754 3.61089C14.5422 3.68052 16.9312 5.62998 17.409 8.55418C17.4772 9.04155 17.5455 9.52891 17.5455 10.0859C17.682 10.2948 17.5455 10.5036 17.3407 10.5036Z" fill="#7C509A"/>
  </symbol>

  <symbol viewBox="0 0 24 24" id="whatsapp">
    <path d="M19.0732 4.91667C17.1916 3.04167 14.6829 2 12.0348 2C6.52961 2 2.06969 6.44444 2.06969 11.9306C2.06969 13.6667 2.55749 15.4028 3.39373 16.8611L2 22L7.29617 20.6111C8.75958 21.375 10.3624 21.7917 12.0348 21.7917C17.5401 21.7917 22 17.3472 22 11.8611C21.9303 9.29167 20.9547 6.79167 19.0732 4.91667ZM16.8432 15.4722C16.6341 16.0278 15.6585 16.5833 15.1707 16.6528C14.7526 16.7222 14.1951 16.7222 13.6376 16.5833C13.2892 16.4444 12.8014 16.3056 12.2439 16.0278C9.73519 14.9861 8.13241 12.4861 7.99303 12.2778C7.85366 12.1389 6.94774 10.9583 6.94774 9.70833C6.94774 8.45833 7.57491 7.90278 7.78397 7.625C7.99303 7.34722 8.27178 7.34722 8.48084 7.34722C8.62021 7.34722 8.82927 7.34722 8.96864 7.34722C9.10801 7.34722 9.31707 7.27778 9.52613 7.76389C9.73519 8.25 10.223 9.5 10.2927 9.56944C10.3624 9.70833 10.3624 9.84722 10.2927 9.98611C10.223 10.125 10.1533 10.2639 10.0139 10.4028C9.87456 10.5417 9.73519 10.75 9.6655 10.8194C9.52613 10.9583 9.38676 11.0972 9.52613 11.3056C9.6655 11.5833 10.1533 12.3472 10.9199 13.0417C11.8955 13.875 12.662 14.1528 12.9408 14.2917C13.2195 14.4306 13.3589 14.3611 13.4983 14.2222C13.6376 14.0833 14.1254 13.5278 14.2648 13.25C14.4042 12.9722 14.6132 13.0417 14.8223 13.1111C15.0314 13.1806 16.2857 13.8056 16.4948 13.9444C16.7735 14.0833 16.9129 14.1528 16.9826 14.2222C17.0523 14.4306 17.0523 14.9167 16.8432 15.4722Z" fill="#48C95F"/>
  </symbol>

  <symbol viewBox="0 0 24 24" id="telegram">
    <path d="M1.38577 11.2398L6.44368 13.1316L8.41539 19.495C8.50112 19.9249 9.01548 20.0109 9.35839 19.7529L12.1874 17.4312C12.4445 17.1732 12.8732 17.1732 13.2161 17.4312L18.274 21.1288C18.6169 21.3868 19.1313 21.2148 19.217 20.7848L22.989 2.72675C23.0747 2.2968 22.6461 1.86685 22.2174 2.03883L1.38577 10.122C0.87141 10.294 0.87141 11.0679 1.38577 11.2398ZM8.15822 12.1857L18.1025 6.0804C18.274 5.9944 18.4454 6.25238 18.274 6.33837L10.1299 13.9916C9.87275 14.2495 9.61556 14.5935 9.61556 15.0234L9.35839 17.0872C9.35839 17.3452 8.92975 17.4312 8.84402 17.0872L7.81529 13.3036C7.55811 12.8737 7.72958 12.3577 8.15822 12.1857Z" fill="#2F89CE"/>
  </symbol>

  <symbol viewBox="0 0 24 24" id="fb">
    <path fill-rule="evenodd" clip-rule="evenodd" d="M2 11.7002C2 6.12676 6.3662 2 12 2C17.6338 2 22 6.12676 22 11.7002C22 17.2736 17.6338 21.4004 12 21.4004C10.9879 21.4004 10.0161 21.2676 9.10463 21.0161C8.92757 20.9678 8.74044 20.9819 8.57143 21.0563L6.58753 21.9316C6.06841 22.159 5.4829 21.7907 5.46479 21.2233L5.41046 19.4447C5.40241 19.2254 5.30382 19.0221 5.14085 18.8752C3.19517 17.1348 2 14.6157 2 11.7002ZM8.94608 9.88986L6.00845 14.5498C5.72475 14.9965 6.27606 15.5015 6.69658 15.1816L9.85352 12.7852C10.0668 12.6243 10.3606 12.6222 10.5759 12.7832L12.9119 14.5357C13.6121 15.0609 14.6141 14.8758 15.0809 14.1353L18.0165 9.47738C18.3002 9.0307 17.7489 8.52567 17.3284 8.84559L14.1734 11.24C13.9602 11.4009 13.6664 11.4029 13.4511 11.242L11.1151 9.48945C10.4149 8.9643 9.41288 9.14941 8.94608 9.88986Z" fill="#4267B2"/>
  </symbol>

  <symbol viewBox="0 0 296 56" id="investing">
    <path d="M145.983 19.793V22.1886H145.874C144.785 20.2286 142.713 19.1397 140.535 19.3543C138.248 19.3543 136.068 20.2254 134.543 21.8588C132.801 23.8188 131.93 26.4352 132.039 29.0486C132.039 35.2583 134.873 38.4161 140.426 38.4161C142.713 38.6339 144.894 37.3272 145.765 35.1463H145.874V37.7597C145.874 40.7028 144.894 42.0094 142.495 42.0094C140.317 42.0094 139.77 41.2472 139.446 39.9406H132.692C132.692 41.6828 133.454 43.3192 134.87 44.4081C136.503 45.7148 139.011 46.3681 142.386 46.3681C145.98 46.3681 148.487 45.6059 150.229 43.9726C151.863 42.557 152.625 40.2672 152.625 37.1094V19.793H145.98H145.983ZM145.874 30.3614V30.6881C145.874 32.5392 144.349 34.0668 142.495 34.0668C140.317 34.0668 139.12 32.3246 139.12 29.0548C139.12 25.785 140.426 24.0428 142.607 24.0428C144.788 24.0428 145.877 25.5672 145.877 28.1837V30.3614H145.874Z" fill="#060606"/>
    <path d="M78.9849 39.8379C76.5893 40.0557 74.1907 39.4023 72.2307 38.0957C70.924 37.0068 70.1618 35.3734 70.0529 33.6281H76.2627C76.3716 34.9348 77.2427 35.5881 78.876 35.5881C80.4004 35.5881 81.3804 35.0437 81.3804 33.9548C81.3804 33.0837 80.836 32.6481 79.4204 32.4303L76.2596 31.9948C72.4453 31.5592 70.3764 29.3814 70.3764 26.0028C70.3764 24.2606 71.0298 22.6272 72.3364 21.4263C76.1507 18.813 81.1596 18.7041 84.9738 21.0997C86.2804 22.1886 87.0427 23.825 87.0427 25.4583H80.9418C80.9418 24.3694 79.9618 23.4983 78.8729 23.4983H78.764C77.0218 23.4983 76.6951 24.2606 76.6951 25.0228C76.6951 25.785 77.0218 26.3294 78.5462 26.5472L81.9249 26.9828C83.4493 27.0917 84.8649 27.6361 85.9569 28.6161C87.0458 29.705 87.5902 31.1206 87.4813 32.6481C87.6991 37.1157 84.3236 39.8379 78.9849 39.8379Z" fill="#060606"/>
    <path d="M67.0009 22.1886C65.3676 20.3374 62.7511 19.3543 59.3756 19.3543C56.6533 19.1366 54.0369 20.2254 52.0769 22.0797C50.3347 24.0397 49.3516 26.6561 49.4604 29.3783C49.4604 36.0237 53.0569 39.729 59.3756 39.729C65.3676 39.729 68.7431 37.4423 69.1818 33.4103H62.3187C62.1009 34.6081 60.9031 35.4792 59.5964 35.2614C57.5275 35.2614 56.6533 33.9548 56.4356 31.1206H69.3996V29.5961C69.5084 26.9828 68.6373 24.2574 67.004 22.1886H67.0009ZM62.3156 27.4183H56.4324C56.6502 24.805 57.5213 23.4952 59.3724 23.4952C61.1147 23.4952 62.0978 24.693 62.3124 27.2006V27.4183H62.3156Z" fill="#060606"/>
    <path d="M184.333 23.3863C182.264 23.2774 180.192 24.1486 178.668 25.5641C177.252 27.0886 176.49 29.2694 176.599 31.4472C176.49 33.625 177.252 35.8059 178.668 37.4392C180.192 38.9637 182.264 39.7259 184.333 39.617C189.019 39.617 192.068 36.4561 192.068 31.4472C192.068 26.4383 189.128 23.3863 184.333 23.3863ZM184.333 36.5681C182.373 36.5681 181.284 34.9348 181.284 31.5561C181.284 29.2694 181.829 26.5441 184.333 26.5441C186.293 26.5441 187.385 28.2863 187.385 31.5561C187.385 34.8259 186.296 36.5681 184.333 36.5681Z" fill="#060606"/>
    <path d="M168.753 39.6201C166.684 39.729 164.612 38.9668 163.088 37.4423C161.672 35.809 161.019 33.6281 161.128 31.5592C161.128 26.5472 164.068 23.4983 168.862 23.4983C173.22 23.4983 175.834 25.6761 175.943 29.3814H171.475C171.366 28.0748 170.822 26.5472 168.859 26.5472C166.136 26.5472 165.81 29.705 165.81 31.5592C165.81 34.9379 166.79 36.5712 168.859 36.5712C170.383 36.5712 171.581 35.3734 171.581 33.849V33.5223H175.94C175.94 35.2646 175.177 37.0068 173.871 38.0988C172.346 39.1877 170.492 39.6232 168.75 39.6232" fill="#060606"/>
    <path d="M95.5422 39.5112C93.9089 39.6201 92.1636 39.1846 90.8569 38.0957C89.5502 36.789 88.8969 34.8259 89.0058 32.9748V14.4543H95.76V19.793H99.792V24.5872H95.8689V31.6681C95.8689 33.737 96.5222 34.5023 98.3733 34.5023C98.8089 34.5023 99.2444 34.5023 99.68 34.3934V39.2966C98.2644 39.4054 96.9578 39.5143 95.5391 39.5143" fill="#060606"/>
    <path d="M203.504 39.1846V30.1437C203.613 29.2726 203.395 28.4014 203.068 27.6392C202.633 26.9859 201.871 26.6592 201.108 26.7681C199.257 26.7681 198.168 28.0748 198.168 30.2526V39.1846H193.592V23.8219H197.951V26.3263C198.931 24.4752 200.782 23.3863 202.745 23.4952C205.358 23.4952 206.886 24.5841 207.539 26.653H207.648C208.519 24.693 210.479 23.3832 212.66 23.4952C216.148 23.4952 217.781 25.3463 217.781 29.1606V39.1846H213.204V30.1437C213.313 29.2726 213.096 28.4014 212.769 27.6392C212.333 26.9859 211.571 26.6592 210.809 26.7681C208.958 26.7681 207.866 28.0748 207.866 30.2526L208.084 39.1846H203.504Z" fill="#060606"/>
    <path d="M117.659 39.1846H110.687V19.793H117.441V22.9508H117.55C118.748 20.6641 121.256 19.2454 123.869 19.4632C126.373 19.4632 128.119 20.1166 129.208 21.4232C130.296 23.0566 130.841 25.1254 130.623 27.0886V39.1814H123.651V28.1806C123.76 27.2006 123.542 26.2206 123.107 25.3494C122.562 24.6961 121.8 24.2606 120.929 24.3694C118.86 24.3694 117.771 25.6761 117.771 28.2926L117.662 39.1877L117.659 39.1846Z" fill="#060606"/>
    <path d="M16.7782 39.1846H9.80622V19.793H16.5604V22.9508H16.6693C17.8671 20.6641 20.3747 19.2454 22.988 19.4632C25.4924 19.4632 27.2378 20.1166 28.3267 21.4232C29.4156 23.0566 29.96 25.1254 29.7422 27.0886V39.1814H22.7702V28.1806C22.8791 27.2006 22.6613 26.2206 22.2258 25.3494C21.6813 24.6961 20.9191 24.2606 20.048 24.3694C17.9791 24.3694 16.8902 25.6761 16.8902 28.2926L16.7813 39.1877L16.7782 39.1846Z" fill="#060606"/>
    <path d="M159.712 34.6081H154.918V39.1846H159.712V34.6081Z" fill="#060606"/>
    <path d="M108.397 19.793H101.425V39.1846H108.397V19.793Z" fill="#060606"/>
    <path d="M43.4684 39.1846H36.2787L29.4156 19.793H36.3876L38.8951 28.1806C39.5484 30.5761 40.0929 33.0837 40.0929 33.1926H40.2018C40.5284 31.5592 40.8551 29.9259 41.2907 28.2894L43.7951 19.9019H50.5493L43.4684 39.1846Z" fill="#060606"/>
    <path d="M7.18978 11.729H0V39.1814H7.18978V11.729Z" fill="#060606"/>
    <path d="M101.208 17.7211L108.397 16.4144V9.3335L101.208 10.6402V17.7211Z" fill="#FF883D"/>
  </symbol>
  <symbol viewBox="0 0 296 56" id="reuters">
    <path d="M55.7184 34.0489C54.7077 34.0489 53.7811 34.5542 53.2758 35.3966C52.7704 36.2389 52.7704 37.3339 53.2758 38.1762C53.7811 39.0185 54.7077 39.566 55.7184 39.5238C57.2346 39.4817 58.4138 38.2604 58.4138 36.7864C58.4559 35.3123 57.2346 34.091 55.7184 34.0489Z" fill="#EC6519"/>
    <path d="M52.2229 41.2085C50.9173 41.2085 49.8644 42.2613 49.8644 43.5248C49.8644 44.8304 50.9173 45.8832 52.2229 45.8832C53.5285 45.8832 54.5813 44.8304 54.5813 43.5248C54.5813 42.2613 53.5285 41.2085 52.2229 41.2085Z" fill="#EC6519"/>
    <path d="M47.1079 50.8491C48.2237 50.8119 49.0981 49.8773 49.0609 48.7615C49.0238 47.6457 48.0891 46.7713 46.9733 46.8084C45.8575 46.8456 44.9831 47.7802 45.0203 48.896C45.0574 50.0118 45.9921 50.8862 47.1079 50.8491Z" fill="#EC6519"/>
    <path d="M41.1887 50.6002C40.2622 50.6002 39.5462 51.3161 39.5462 52.2426C39.5462 53.1692 40.2622 53.8851 41.1887 53.8851C42.1152 53.8851 42.8312 53.1692 42.8312 52.2426C42.8312 51.3161 42.1152 50.6002 41.1887 50.6002Z" fill="#EC6519"/>
    <path d="M35.461 52.5796C34.7029 52.5796 34.0712 53.2113 34.0712 53.9694C34.0712 54.7274 34.7029 55.3592 35.461 55.3592C36.2191 55.3592 36.8508 54.7274 36.8508 53.9694C36.8929 53.2113 36.2612 52.5796 35.461 52.5796Z" fill="#EC6519"/>
    <path d="M30.1124 53.3798C29.4385 53.3798 28.891 53.9273 28.891 54.6011C28.891 55.2749 29.4385 55.8224 30.1124 55.8224C30.7862 55.8224 31.3337 55.2749 31.3337 54.6011C31.2916 53.9273 30.7441 53.3798 30.1124 53.3798Z" fill="#EC6519"/>
    <path d="M24.7216 52.5796C23.9636 52.5796 23.3318 53.2113 23.3318 53.9694C23.3318 54.7274 23.9636 55.3592 24.7216 55.3592C25.4797 55.3592 26.1114 54.7274 26.1114 53.9694C26.1114 53.2113 25.4797 52.5796 24.7216 52.5796Z" fill="#EC6519"/>
    <path d="M18.994 50.558C18.4044 50.558 17.8569 50.8528 17.562 51.3582C17.2672 51.8636 17.2672 52.4953 17.562 53.0007C17.8569 53.5061 18.4044 53.8009 18.994 53.8009C19.8784 53.8009 20.6365 53.0849 20.6365 52.1584C20.5943 51.3161 19.8784 50.6002 18.994 50.558Z" fill="#EC6519"/>
    <path d="M13.1399 46.8098C12.424 46.8098 11.7501 47.1888 11.3711 47.8205C10.9921 48.4523 10.9921 49.2104 11.3711 49.8421C11.7501 50.4738 12.3819 50.8528 13.1399 50.8528C14.2349 50.8528 15.1615 49.9684 15.1615 48.8313C15.1615 47.7363 14.2771 46.8098 13.1399 46.8098Z" fill="#EC6519"/>
    <path d="M7.95978 41.2085C6.65421 41.2085 5.60132 42.2613 5.60132 43.5669C5.60132 44.8725 6.65421 45.9254 7.95978 45.9254C9.26535 45.9254 10.3182 44.8725 10.3182 43.5669C10.2761 42.2613 9.26535 41.2085 7.95978 41.2085Z" fill="#EC6519"/>
    <path d="M4.46421 34.0489C3.45345 34.0068 2.52691 34.5542 2.02153 35.3966C1.51615 36.2389 1.51615 37.3339 2.02153 38.1762C2.52691 39.0185 3.45345 39.566 4.46421 39.5238C5.98036 39.4817 7.15959 38.2604 7.15959 36.7864C7.15959 35.3123 5.93825 34.091 4.46421 34.0489Z" fill="#EC6519"/>
    <path d="M3.20076 25.1204C1.43192 25.1204 0 26.5524 0 28.3212C0 30.09 1.43192 31.522 3.20076 31.522C4.9696 31.522 6.40151 30.09 6.40151 28.3212C6.3594 26.5524 4.9696 25.1204 3.20076 25.1204Z" fill="#EC6519"/>
    <path d="M4.46421 17.0343C3.45345 17.0343 2.52691 17.5397 2.02153 18.382C1.51615 19.2243 1.51615 20.3193 2.02153 21.1616C2.52691 22.0039 3.45345 22.5514 4.46421 22.5093C5.98036 22.4672 7.15959 21.2458 7.15959 19.7718C7.15959 18.2978 5.93825 17.0764 4.46421 17.0343Z" fill="#EC6519"/>
    <path d="M7.95978 10.6749C7.11747 10.6749 6.31728 11.0961 5.89613 11.8541C5.47498 12.5701 5.47498 13.4966 5.89613 14.2126C6.31728 14.9285 7.11747 15.3918 7.95978 15.3918C9.22323 15.3497 10.2761 14.3389 10.2761 13.0334C10.234 11.7699 9.22323 10.717 7.95978 10.6749Z" fill="#EC6519"/>
    <path d="M13.1399 5.70531C12.045 5.70531 11.1184 6.58973 11.1184 7.72685C11.1184 8.82184 12.0028 9.74838 13.1399 9.74838C14.2349 9.74838 15.1615 8.86396 15.1615 7.72685C15.1615 6.63185 14.2771 5.70531 13.1399 5.70531Z" fill="#EC6519"/>
    <path d="M18.994 2.71513C18.1095 2.71513 17.3515 3.43109 17.3515 4.35763C17.3515 5.24205 18.0674 6.00012 18.994 6.00012C19.8784 6.00012 20.6365 5.28416 20.6365 4.35763C20.5943 3.47321 19.8784 2.71513 18.994 2.71513Z" fill="#EC6519"/>
    <path d="M24.7216 1.19898C23.9214 1.19898 23.2897 1.83071 23.2897 2.6309C23.2897 3.43109 23.9214 4.06282 24.7216 4.06282C25.4797 4.06282 26.1114 3.43109 26.1114 2.67302C26.0693 1.83071 25.4797 1.19898 24.7216 1.19898Z" fill="#EC6519"/>
    <path d="M30.0703 0.777832C29.3964 0.777832 28.8489 1.32533 28.8489 1.99917C28.8489 2.67302 29.3964 3.22052 30.0703 3.22052C30.7441 3.22052 31.2916 2.67302 31.2916 1.99917C31.2916 1.32533 30.7441 0.777832 30.0703 0.777832Z" fill="#EC6519"/>
    <path d="M35.461 1.19898C34.7029 1.19898 34.0712 1.83071 34.0712 2.58879C34.0712 3.34686 34.7029 3.97859 35.461 3.97859C36.2191 3.97859 36.8508 3.34686 36.8508 2.58879C36.8929 1.83071 36.2612 1.19898 35.461 1.19898Z" fill="#EC6519"/>
    <path d="M41.1887 2.71513C40.5991 2.71513 40.0516 3.00994 39.7568 3.51532C39.462 4.0207 39.462 4.65243 39.7568 5.15782C40.0516 5.6632 40.5991 5.95801 41.1887 5.95801C42.0731 5.95801 42.8312 5.24205 42.8312 4.31551C42.8312 3.38898 42.1152 2.71513 41.1887 2.71513Z" fill="#EC6519"/>
    <path d="M47.0427 5.74743C45.9477 5.74743 45.0212 6.63185 45.0212 7.76896C45.0212 8.86396 45.9056 9.79049 47.0427 9.79049C48.1377 9.79049 49.0642 8.90607 49.0642 7.76896C49.0642 6.63185 48.1377 5.74743 47.0427 5.74743Z" fill="#EC6519"/>
    <path d="M52.2229 10.6749C50.9173 10.6749 49.8644 11.7278 49.8644 13.0334C49.8644 14.3389 50.9173 15.3918 52.2229 15.3918C53.5285 15.3918 54.5813 14.3389 54.5813 13.0334C54.5813 11.7278 53.5285 10.6749 52.2229 10.6749Z" fill="#EC6519"/>
    <path d="M55.7184 17.0343C54.7077 17.0343 53.7811 17.5397 53.2758 18.382C52.7704 19.2243 52.7704 20.3193 53.2758 21.1616C53.7811 22.0039 54.7077 22.5514 55.7184 22.5093C57.2346 22.4672 58.4138 21.2458 58.4138 19.7718C58.4138 18.2557 57.2346 17.0343 55.7184 17.0343Z" fill="#EC6519"/>
    <path d="M43.0839 32.4906C42.6206 32.4906 42.1995 32.7012 41.9889 33.0802C41.7783 33.4593 41.7783 33.9646 41.9889 34.3437C42.1995 34.7227 42.6206 34.9754 43.0839 34.9333C43.7577 34.8912 44.2631 34.3437 44.2631 33.7119C44.3052 33.0802 43.7577 32.5327 43.0839 32.4906Z" fill="#EC6519"/>
    <path d="M40.0095 37.0812C39.5462 37.0812 39.125 37.2917 38.9145 37.6708C38.7039 38.0498 38.7039 38.5552 38.9145 38.9342C39.125 39.3133 39.5883 39.566 40.0095 39.5238C40.6833 39.4817 41.1887 38.9342 41.1887 38.3025C41.1887 37.6708 40.6833 37.1233 40.0095 37.0812Z" fill="#EC6519"/>
    <path d="M35.4189 40.0292C34.9556 40.0292 34.4924 40.2819 34.2397 40.7031C33.987 41.1242 33.987 41.6296 34.2397 42.0508C34.4924 42.4719 34.9135 42.7246 35.4189 42.7246C36.177 42.7246 36.7666 42.135 36.7666 41.3769C36.7666 40.6188 36.177 40.0292 35.4189 40.0292Z" fill="#EC6519"/>
    <path d="M30.0282 40.8294C29.0174 40.8294 28.2172 41.6296 28.2172 42.6404C28.2172 43.6511 29.0174 44.4513 30.0282 44.4513C31.0389 44.4513 31.8391 43.6511 31.8391 42.6404C31.797 41.6296 30.9968 40.8294 30.0282 40.8294Z" fill="#EC6519"/>
    <path d="M24.5953 39.7344C23.4582 39.7344 22.5316 40.661 22.5316 41.7981C22.5316 42.9352 23.4582 43.8617 24.5953 43.8617C25.7324 43.8617 26.6589 42.9352 26.6589 41.7981C26.6589 40.661 25.7324 39.7344 24.5953 39.7344Z" fill="#EC6519"/>
    <path d="M19.7099 36.281C18.4465 36.281 17.4357 37.2917 17.4357 38.5552C17.4357 39.8186 18.4465 40.8294 19.7099 40.8294C20.9734 40.8294 21.9841 39.8186 21.9841 38.5552C21.9841 37.2917 20.9734 36.281 19.7099 36.281Z" fill="#EC6519"/>
    <path d="M16.4671 31.6483C15.4142 31.6483 14.5719 32.4906 14.5719 33.5435C14.5719 34.5964 15.4142 35.4387 16.4671 35.4387C17.5199 35.4387 18.3622 34.5964 18.3622 33.5435C18.4044 32.5327 17.5199 31.6483 16.4671 31.6483Z" fill="#EC6519"/>
    <path d="M15.709 26.5945C14.9088 26.5945 14.2349 27.2683 14.2349 28.0685C14.2349 28.8687 14.9088 29.5425 15.709 29.5425C16.5092 29.5425 17.183 28.8687 17.183 28.0685C17.183 27.2262 16.5513 26.5945 15.709 26.5945Z" fill="#EC6519"/>
    <path d="M17.0146 21.6249C16.3407 21.6249 15.7932 22.1724 15.7932 22.8462C15.7932 23.5201 16.3407 24.0676 17.0146 24.0676C17.6884 24.0676 18.2359 23.5201 18.2359 22.8462C18.278 22.1724 17.6884 21.6249 17.0146 21.6249Z" fill="#EC6519"/>
    <path d="M20.1311 17.0764C19.6678 17.0764 19.2467 17.287 19.0361 17.666C18.8255 18.0451 18.8255 18.5505 19.0361 18.9295C19.2467 19.3085 19.7099 19.5612 20.1311 19.5191C20.8049 19.5191 21.3524 18.9716 21.3524 18.2978C21.3103 17.6239 20.7628 17.0764 20.1311 17.0764Z" fill="#EC6519"/>
    <path d="M24.6795 13.8757C23.9214 13.8757 23.3318 14.4653 23.3318 15.2234C23.3318 15.9814 23.9214 16.571 24.6795 16.571C25.4376 16.571 26.0272 15.9814 26.0272 15.2234C26.0272 14.5074 25.4376 13.8757 24.6795 13.8757Z" fill="#EC6519"/>
    <path d="M31.9139 14.0073C31.9523 13.0078 31.1732 12.1665 30.1737 12.1281C29.1742 12.0897 28.3329 12.8688 28.2945 13.8683C28.2561 14.8677 29.0352 15.7091 30.0347 15.7475C31.0342 15.7858 31.8755 15.0067 31.9139 14.0073Z" fill="#EC6519"/>
    <path d="M35.5031 12.7386C34.366 12.7386 33.4395 13.6651 33.4395 14.8022C33.4395 15.9393 34.366 16.8659 35.5031 16.8659C36.6402 16.8659 37.5668 15.9393 37.5668 14.8022C37.5668 13.6651 36.6402 12.7386 35.5031 12.7386Z" fill="#EC6519"/>
    <path d="M40.3885 15.7709C39.125 15.7709 38.1143 16.7816 38.1143 18.0451C38.1143 19.3085 39.125 20.3193 40.3885 20.3193C41.652 20.3193 42.6627 19.3085 42.6627 18.0451C42.6627 16.7816 41.652 15.7709 40.3885 15.7709Z" fill="#EC6519"/>
    <path d="M43.6314 21.1195C42.5785 21.1195 41.7362 21.9618 41.7362 23.0147C41.7362 24.0676 42.5785 24.9099 43.6314 24.9099C44.6842 24.9099 45.5266 24.0676 45.5266 23.0147C45.5266 21.9618 44.6842 21.1195 43.6314 21.1195Z" fill="#EC6519"/>
    <path d="M38.6618 31.7746C39.2898 31.7746 39.7989 31.2655 39.7989 30.6375C39.7989 30.0095 39.2898 29.5004 38.6618 29.5004C38.0338 29.5004 37.5247 30.0095 37.5247 30.6375C37.5247 31.2655 38.0338 31.7746 38.6618 31.7746Z" fill="#EC6519"/>
    <path d="M36.4297 33.0381C35.5031 33.0381 34.7451 33.7962 34.7451 34.7227C34.7451 35.6492 35.5031 36.4073 36.4297 36.4073C37.3562 36.4073 38.1143 35.6492 38.1143 34.7227C38.1564 33.7962 37.3983 33.0381 36.4297 33.0381Z" fill="#EC6519"/>
    <path d="M32.0918 35.3123C31.1231 35.3123 30.323 36.1125 30.323 37.0812C30.323 38.0498 31.1231 38.85 32.0918 38.85C33.0604 38.85 33.8606 38.0498 33.8606 37.0812C33.8606 36.1125 33.0604 35.3123 32.0918 35.3123Z" fill="#EC6519"/>
    <path d="M26.9537 35.186C26.4062 35.186 25.8587 35.4808 25.6061 35.9862C25.3112 36.4915 25.3112 37.0812 25.6061 37.5444C25.9009 38.0498 26.4062 38.3446 26.9537 38.3446C27.8382 38.3446 28.512 37.6287 28.512 36.7864C28.5541 35.9019 27.8382 35.186 26.9537 35.186Z" fill="#EC6519"/>
    <path d="M23.1634 32.6169C22.5316 32.6169 22.0263 33.1223 22.0263 33.7541C22.0263 34.3858 22.5316 34.8912 23.1634 34.8912C23.7951 34.8912 24.3005 34.3858 24.3005 33.7541C24.3426 33.1644 23.7951 32.6169 23.1634 32.6169Z" fill="#EC6519"/>
    <path d="M21.6472 29.2898C21.184 29.2898 20.8049 29.6689 20.8049 30.1321C20.8049 30.5954 21.184 30.9745 21.6472 30.9745C22.1105 30.9745 22.4895 30.5954 22.4895 30.1321C22.4895 29.6689 22.1105 29.2898 21.6472 29.2898Z" fill="#EC6519"/>
    <path d="M21.563 24.952C20.9313 24.952 20.4259 25.4574 20.4259 26.0891C20.4259 26.7208 20.9313 27.2262 21.563 27.2262C22.1947 27.2262 22.7001 26.7208 22.7001 26.0891C22.7001 25.4574 22.1947 24.952 21.563 24.952Z" fill="#EC6519"/>
    <path d="M23.7951 20.2772C22.8686 20.2772 22.1105 21.0353 22.1105 21.9618C22.1105 22.8883 22.8686 23.6464 23.7951 23.6464C24.7216 23.6464 25.4797 22.8883 25.4797 21.9618C25.4797 21.0353 24.7216 20.2772 23.7951 20.2772Z" fill="#EC6519"/>
    <path d="M28.133 17.8345C27.1643 17.8345 26.3641 18.6347 26.3641 19.6033C26.3641 20.572 27.1643 21.3722 28.133 21.3722C29.1016 21.3722 29.9018 20.572 29.9018 19.6033C29.9018 18.6347 29.1016 17.8345 28.133 17.8345Z" fill="#EC6519"/>
    <path d="M33.271 18.382C32.6814 18.382 32.176 18.6768 31.8812 19.1401C31.5864 19.6455 31.5864 20.2351 31.8812 20.7405C32.176 21.2458 32.7235 21.5406 33.271 21.4985C34.1133 21.4564 34.7872 20.7826 34.7872 19.9403C34.7872 19.098 34.1133 18.4241 33.271 18.382Z" fill="#EC6519"/>
    <path d="M37.0193 21.7512C36.3876 21.7512 35.8822 22.2566 35.8822 22.8883C35.8822 23.5201 36.3876 24.0254 37.0193 24.0254C37.651 24.0254 38.1564 23.5201 38.1564 22.8883C38.1985 22.2566 37.6931 21.7512 37.0193 21.7512Z" fill="#EC6519"/>
    <path d="M38.6197 25.7522C38.1564 25.7522 37.7774 26.1312 37.7774 26.5945C37.7774 27.0577 38.1564 27.4368 38.6197 27.4368C39.0829 27.4368 39.462 27.0577 39.462 26.5945C39.462 26.1312 39.0829 25.7522 38.6197 25.7522Z" fill="#EC6519"/>
    <path d="M44.3894 27.0577C43.5893 27.0577 42.9154 27.7316 42.9154 28.5318C42.9154 29.332 43.5893 30.0058 44.3894 30.0058C45.1896 30.0058 45.8635 29.332 45.8635 28.5318C45.8635 27.7316 45.1896 27.0577 44.3894 27.0577Z" fill="#EC6519"/>
    <path d="M50.4962 28.8687C49.6117 28.8687 48.9379 29.5847 48.9379 30.427C48.9379 31.3114 49.6539 31.9852 50.4962 31.9852C51.3806 31.9852 52.0544 31.2693 52.0544 30.427C52.0544 29.5847 51.3806 28.8687 50.4962 28.8687Z" fill="#EC6519"/>
    <path d="M48.9379 34.3858C48.1377 34.3858 47.4639 35.0596 47.4639 35.8598C47.4639 36.66 48.1377 37.3339 48.9379 37.3339C49.7381 37.3339 50.4119 36.66 50.4119 35.8598C50.4119 35.0596 49.7802 34.3858 48.9379 34.3858Z" fill="#EC6519"/>
    <path d="M46.2846 39.0185C45.6108 39.0185 45.0212 39.566 45.0212 40.2819C45.0212 40.9558 45.5687 41.5454 46.2846 41.5454C46.9585 41.5454 47.506 40.9558 47.506 40.2819C47.506 39.6081 46.9585 39.0606 46.2846 39.0185Z" fill="#EC6519"/>
    <path d="M43.0839 42.4719C42.7048 42.4719 42.3258 42.6825 42.1152 43.0194C41.9046 43.3563 41.9046 43.7775 42.1152 44.1144C42.3258 44.4513 42.6627 44.6619 43.0839 44.6619C43.6735 44.6619 44.1789 44.1986 44.1789 43.5669C44.1789 42.9773 43.6735 42.4719 43.0839 42.4719Z" fill="#EC6519"/>
    <path d="M39.7147 44.9988C39.2093 44.9988 38.7881 45.42 38.7881 45.9254C38.7881 46.4307 39.2093 46.8519 39.7147 46.8519C40.22 46.8519 40.6412 46.4307 40.6412 45.9254C40.6412 45.42 40.22 44.9988 39.7147 44.9988Z" fill="#EC6519"/>
    <path d="M35.8822 46.4307C35.2926 46.4307 34.7872 46.894 34.7872 47.5257C34.7872 48.1154 35.2504 48.6207 35.8822 48.6207C36.4718 48.6207 36.9772 48.1575 36.9772 47.5257C36.9351 46.894 36.4718 46.4307 35.8822 46.4307Z" fill="#EC6519"/>
    <path d="M31.3758 47.1467C30.702 47.1467 30.1124 47.6942 30.1124 48.4102C30.1124 49.084 30.6599 49.6736 31.3758 49.6736C32.0497 49.6736 32.6393 49.1261 32.6393 48.4102C32.5972 47.6942 32.0497 47.1467 31.3758 47.1467Z" fill="#EC6519"/>
    <path d="M26.2378 46.6413C25.3534 46.6413 24.6374 47.3573 24.6374 48.2417C24.6374 49.1261 25.3534 49.8421 26.2378 49.8421C27.1222 49.8421 27.8382 49.1261 27.8382 48.2417C27.8382 47.3573 27.1222 46.6413 26.2378 46.6413Z" fill="#EC6519"/>
    <path d="M20.8049 44.704C19.752 44.704 18.9097 45.5463 18.9097 46.5992C18.9097 47.6521 19.752 48.4944 20.8049 48.4944C21.8578 48.4944 22.7001 47.6521 22.7001 46.5992C22.7422 45.5463 21.8578 44.704 20.8049 44.704Z" fill="#EC6519"/>
    <path d="M16.0459 41.0821C15.2457 41.0821 14.4876 41.5033 14.0665 42.1771C13.6453 42.8931 13.6453 43.7354 14.0665 44.4513C14.4876 45.1673 15.2457 45.5884 16.0459 45.5463C17.2672 45.5042 18.2359 44.5356 18.2359 43.3142C18.2359 42.135 17.2672 41.1242 16.0459 41.0821Z" fill="#EC6519"/>
    <path d="M12.045 35.6914C10.6973 35.6914 9.60227 36.7864 9.60227 38.134C9.60227 39.4817 10.6973 40.5767 12.045 40.5767C13.3926 40.5767 14.4876 39.4817 14.4876 38.134C14.4876 36.7442 13.3926 35.6914 12.045 35.6914Z" fill="#EC6519"/>
    <path d="M11.7205 32.1021C11.7964 31.0348 10.9927 30.1081 9.92542 30.0323C8.85815 29.9564 7.93148 30.7601 7.85563 31.8274C7.77978 32.8947 8.58349 33.8213 9.65075 33.8972C10.718 33.973 11.6447 33.1693 11.7205 32.1021Z" fill="#EC6519"/>
    <path d="M11.224 26.2259C11.2716 25.3666 10.6136 24.6314 9.75427 24.5838C8.89495 24.5362 8.15976 25.1942 8.11217 26.0536C8.06458 26.9129 8.72261 27.6481 9.58193 27.6957C10.4412 27.7433 11.1764 27.0852 11.224 26.2259Z" fill="#EC6519"/>
    <path d="M11.2448 19.2243C10.4446 19.2243 9.77073 19.8981 9.77073 20.6983C9.77073 21.4985 10.4446 22.1724 11.2448 22.1724C12.045 22.1724 12.7188 21.4985 12.7188 20.6983C12.7188 19.8981 12.045 19.2243 11.2448 19.2243Z" fill="#EC6519"/>
    <path d="M13.898 15.0549C13.4348 15.0549 13.0136 15.2655 12.803 15.6866C12.5925 16.0657 12.5925 16.571 12.803 16.9501C13.0136 17.3291 13.4769 17.5818 13.898 17.5818C14.5719 17.5818 15.1194 16.9922 15.1194 16.3184C15.1194 15.6024 14.5719 15.0549 13.898 15.0549Z" fill="#EC6519"/>
    <path d="M17.0988 11.9384C16.5092 11.9384 16.0038 12.4016 16.0038 13.0334C16.0038 13.623 16.4671 14.1284 17.0988 14.1284C17.7305 14.1284 18.1938 13.6651 18.1938 13.0334C18.1938 12.4438 17.6884 11.9384 17.0988 11.9384Z" fill="#EC6519"/>
    <path d="M20.468 9.74838C19.9626 9.74838 19.5415 10.1695 19.5415 10.6749C19.5415 11.1803 19.9626 11.6014 20.468 11.6014C20.9734 11.6014 21.3945 11.1803 21.3945 10.6749C21.3945 10.1274 20.9734 9.74838 20.468 9.74838Z" fill="#EC6519"/>
    <path d="M24.3005 8.02165C23.7109 8.02165 23.2055 8.48492 23.2055 9.11665C23.2055 9.70626 23.6688 10.2116 24.3005 10.2116C24.8901 10.2116 25.3955 9.74838 25.3955 9.11665C25.3955 8.48492 24.8901 8.02165 24.3005 8.02165Z" fill="#EC6519"/>
    <path d="M28.8068 6.92666C28.3435 6.92666 27.9224 7.13723 27.7118 7.55838C27.5012 7.93742 27.5012 8.4428 27.7118 8.82184C27.9224 9.20088 28.3857 9.45357 28.8068 9.45357C29.4807 9.45357 30.0282 8.86396 30.0282 8.19011C30.0282 7.51627 29.4807 6.96877 28.8068 6.92666Z" fill="#EC6519"/>
    <path d="M33.9449 6.71608C33.3553 6.71608 32.8078 7.01089 32.513 7.51627C32.2181 8.02165 32.2181 8.65338 32.513 9.15876C32.8078 9.66415 33.3553 9.95895 33.9449 9.95895C34.8293 9.95895 35.5452 9.20088 35.5452 8.31646C35.5452 7.43204 34.8293 6.71608 33.9449 6.71608Z" fill="#EC6519"/>
    <path d="M39.2093 7.93742C38.1564 7.93742 37.272 8.77973 37.272 9.87472C37.272 10.9276 38.1143 11.812 39.2093 11.812C40.2622 11.812 41.1466 10.9697 41.1466 9.87472C41.1466 8.82184 40.2622 7.93742 39.2093 7.93742Z" fill="#EC6519"/>
    <path d="M44.1789 10.9697C42.9154 10.9697 41.9468 11.9805 41.9468 13.2018C41.9468 14.4232 42.9575 15.4339 44.1789 15.4339C45.4423 15.4339 46.411 14.4232 46.411 13.2018C46.411 11.9805 45.4002 10.9697 44.1789 10.9697Z" fill="#EC6519"/>
    <path d="M48.1377 16.0235C47.2533 16.0235 46.4531 16.4868 45.9898 17.2449C45.5266 18.003 45.5266 18.9295 45.9898 19.6876C46.4531 20.4456 47.2533 20.9089 48.1377 20.9089C49.4854 20.8668 50.5383 19.8139 50.5383 18.4662C50.4962 17.1607 49.4433 16.0657 48.1377 16.0235Z" fill="#EC6519"/>
    <path d="M50.3698 22.7199C49.696 22.7199 49.0221 23.0568 48.6852 23.6464C48.3483 24.236 48.3483 24.9941 48.6852 25.5837C49.0221 26.1733 49.696 26.5524 50.3698 26.5102C51.4227 26.4681 52.2229 25.6258 52.2229 24.6151C52.2229 23.6043 51.4227 22.762 50.3698 22.7199Z" fill="#EC6519"/>
    <path d="M60.1827 28.2791C60.1827 30.0479 58.7507 31.4798 56.9819 31.4798C55.2131 31.4798 53.7811 30.0479 53.7811 28.2791C53.7811 26.5102 55.2131 25.0783 56.9819 25.0783C58.7507 25.1204 60.1827 26.5524 60.1827 28.2791Z" fill="#EC6519"/>
    <path d="M198.278 38.9341L193.309 30.4268C195.92 29.4161 197.605 27.563 197.605 24.1938V23.9411C197.605 18.5082 193.098 16.7394 188.171 16.7394C185.854 16.7394 182.275 16.9078 180.632 17.1605C180 17.2448 179.621 17.4975 179.621 18.1292V38.9762C179.621 39.3131 179.916 39.608 180.253 39.608H183.454C183.791 39.608 184.044 39.3131 184.044 38.9762V31.1007C184.759 31.1428 187.329 31.227 188.171 31.227H188.887L193.477 38.9341C193.646 39.2289 193.772 39.5658 194.109 39.5658H197.984C198.236 39.5658 198.363 39.3974 198.363 39.1868C198.363 39.1026 198.321 39.0183 198.278 38.9341ZM193.183 24.1938C193.183 26.9734 191.414 27.6051 188.129 27.6051C187.581 27.6051 184.507 27.5209 184.001 27.5209V20.6561C184.549 20.5719 187.455 20.5298 188.129 20.5298C191.329 20.5298 193.183 21.5405 193.183 23.9411V24.1938Z" fill="#404040"/>
    <path d="M217.778 33.2064C217.778 30.1741 216.051 28.5738 213.356 27.4788C211.25 26.6365 209.397 25.9205 207.965 25.3309C206.575 24.7834 205.354 23.8147 205.354 22.7619C205.354 21.3299 207.123 20.4876 209.481 20.4876C212.261 20.4876 214.451 20.8667 216.514 21.0773H216.599C216.936 21.0773 217.146 20.8246 217.146 20.4876V18.1292C217.146 17.8344 216.893 17.5817 216.557 17.5396C215.462 17.2869 212.682 16.6973 209.65 16.6973C203.753 16.6973 200.932 19.2242 200.932 22.7619C200.932 24.994 201.9 27.184 204.68 28.3211C207.46 29.4582 213.145 30.8059 213.145 33.1643C213.145 35.0174 212.303 36.0282 209.439 36.0282C206.491 36.0282 203.501 35.607 202.237 35.4385H202.153C201.816 35.4385 201.563 35.6912 201.563 36.0282V38.3024C201.563 38.6393 201.858 38.892 202.153 38.9341C203.669 39.271 206.533 39.7764 209.355 39.7764C215.798 39.8606 217.778 36.4072 217.778 33.2064Z" fill="#404040"/>
    <path d="M155.447 20.6561H149.088V38.9341C149.088 39.271 148.793 39.5658 148.456 39.5658H145.298C144.961 39.5658 144.666 39.271 144.666 38.9341V20.6561H138.306C137.969 20.6561 137.675 20.4455 137.675 20.0665V17.5396C137.675 17.2026 137.969 16.95 138.306 16.95H155.447C155.784 16.95 156.079 17.2026 156.079 17.5396V20.0665C156.079 20.4455 155.784 20.6561 155.447 20.6561Z" fill="#404040"/>
    <path d="M134.895 30.848V17.5817C134.895 17.2448 134.6 16.9921 134.263 16.9921H131.105C130.768 16.9921 130.473 17.2448 130.473 17.5817V30.8059C130.473 34.4278 128.788 36.1545 125.377 36.1545C121.966 36.1545 120.281 34.4278 120.281 30.8059V17.5817C120.281 17.2448 119.986 16.9921 119.649 16.9921H116.491C116.154 16.9921 115.859 17.2448 115.859 17.5817V30.8059C115.859 37.5864 120.281 39.8185 125.377 39.8185C130.473 39.8185 134.895 37.6285 134.895 30.848Z" fill="#404040"/>
    <path d="M163.407 29.753H173.599C173.936 29.753 174.231 29.4582 174.231 29.1213V26.8049C174.231 26.468 173.936 26.1732 173.599 26.1732H163.407V23.2672C163.407 20.614 163.491 20.5298 165.934 20.5298H173.978C174.315 20.5298 174.61 20.2349 174.61 19.898V17.8765C174.61 17.4132 174.441 17.2869 173.978 17.2026C172.967 17.0342 170.904 16.7394 167.113 16.7394C161.849 16.7394 159.027 16.6973 159.027 23.2672V33.3328C159.027 39.9028 161.849 39.8606 167.113 39.8606C170.904 39.8606 172.967 39.5658 173.978 39.3974C174.441 39.3553 174.61 39.1868 174.61 38.7235V36.702C174.61 36.3651 174.315 36.0703 173.978 36.0703H165.934C163.533 36.0703 163.407 35.986 163.407 33.3328V29.753Z" fill="#404040"/>
    <path d="M100.529 29.753H110.721C111.058 29.753 111.353 29.4582 111.353 29.1213V26.8049C111.353 26.468 111.058 26.1732 110.721 26.1732H100.529V23.2672C100.529 20.614 100.613 20.5298 103.056 20.5298H111.1C111.437 20.5298 111.732 20.2349 111.732 19.898V17.8765C111.732 17.4132 111.563 17.2869 111.1 17.2026C110.089 17.0342 108.026 16.7394 104.235 16.7394C98.9708 16.7394 96.1491 16.6973 96.1491 23.2672V33.3328C96.1491 39.9028 98.9708 39.8606 104.235 39.8606C108.026 39.8606 110.089 39.5658 111.1 39.3974C111.563 39.3553 111.732 39.1868 111.732 38.7235V36.702C111.732 36.3651 111.437 36.0703 111.1 36.0703H103.056C100.655 36.0703 100.529 35.986 100.529 33.3328V29.753Z" fill="#404040"/>
    <path d="M92.6956 38.9341L87.6839 30.4268C90.2951 29.4161 91.9797 27.563 91.9797 24.1938V23.9411C91.9797 18.5082 87.4733 16.7394 82.5459 16.7394C80.2295 16.7394 76.6497 16.9078 75.0072 17.1605C74.3755 17.2448 73.9965 17.4975 73.9965 18.1292V38.9762C73.9965 39.3131 74.2913 39.608 74.6282 39.608H77.8289C78.1659 39.608 78.4186 39.3131 78.4186 38.9762V31.1007C79.1345 31.1428 81.7035 31.227 82.5459 31.227H83.2618L87.8524 38.9341C88.0208 39.2289 88.1472 39.5658 88.4841 39.5658H92.3587C92.6114 39.5658 92.7377 39.3974 92.7377 39.1868C92.7377 39.1026 92.7377 39.0183 92.6956 38.9341ZM87.5997 24.1938C87.5997 26.9734 85.8308 27.6051 82.588 27.6051C82.0405 27.6051 78.9661 27.5209 78.4607 27.5209V20.6561C79.0082 20.5719 81.9141 20.5298 82.588 20.5298C85.7887 20.5298 87.5997 21.5405 87.5997 23.9411V24.1938Z" fill="#404040"/>
  </symbol>
  <symbol viewBox="0 0 296 56" id="deloitte">
    <path d="M206.235 42.8238C206.235 39.628 208.822 37.0352 212.007 37.0352C215.194 37.0352 217.778 39.628 217.778 42.8238C217.778 46.0196 215.194 48.6107 212.007 48.6107C208.822 48.6107 206.235 46.0196 206.235 42.8238Z" fill="#86BC24"/>
    <path d="M22.1532 27.4937C22.1532 23.8272 21.4468 21.1071 20.0338 19.335C18.6191 17.5646 16.4762 16.6802 13.5952 16.6802H10.5305V39.1012H12.8753C16.0753 39.1012 18.4203 38.1498 19.9134 36.2403C21.4048 34.3342 22.1532 31.4181 22.1532 27.4937ZM33.0826 27.1119C33.0826 33.7916 31.2922 38.9386 27.7113 42.5515C24.1305 46.166 19.0968 47.9733 12.6081 47.9733H0V7.94709H13.4882C19.7446 7.94709 24.5747 9.5902 27.9785 12.8748C31.3807 16.161 33.0826 20.9045 33.0826 27.1119Z" fill="#0F0B0B"/>
    <path d="M68.0069 47.9729H78.0397V7.77915H68.0069V47.9729Z" fill="#0F0B0B"/>
    <path d="M92.1336 32.9805C92.1336 35.5431 92.4676 37.4978 93.134 38.8411C93.8021 40.1861 94.921 40.8577 96.4942 40.8577C98.0508 40.8577 99.1515 40.1861 99.7928 38.8411C100.434 37.4978 100.753 35.5431 100.753 32.9805C100.753 30.4312 100.429 28.5083 99.7794 27.2102C99.1281 25.9088 98.0176 25.2572 96.4427 25.2572C94.9028 25.2572 93.8021 25.9055 93.134 27.1952C92.4676 28.4866 92.1336 30.4144 92.1336 32.9805ZM110.965 32.9805C110.965 37.8629 109.688 41.6718 107.13 44.4019C104.573 47.1338 100.994 48.5005 96.3925 48.5005C91.9799 48.5005 88.4674 47.1036 85.8603 44.3098C83.2499 41.516 81.9456 37.7407 81.9456 32.9805C81.9456 28.1131 83.2234 24.331 85.782 21.6343C88.3406 18.9376 91.9281 17.5893 96.5477 17.5893C99.4021 17.5893 101.927 18.2141 104.115 19.462C106.305 20.7098 107.995 22.497 109.183 24.8251C110.372 27.15 110.965 29.8701 110.965 32.9805Z" fill="#0F0B0B"/>
    <path d="M114.949 47.973H124.983V18.117H114.949V47.973Z" fill="#0F0B0B"/>
    <path d="M114.949 14.5056H124.983V7.77734H114.949V14.5056Z" fill="#0F0B0B"/>
    <path d="M145.312 40.3579C146.667 40.3579 148.28 40.0128 150.162 39.3278V46.8399C148.809 47.4362 147.523 47.8633 146.301 48.1162C145.078 48.3725 143.643 48.4998 142.002 48.4998C138.633 48.4998 136.205 47.6506 134.713 45.9555C133.228 44.2605 132.483 41.6576 132.483 38.1453V25.8377H128.97V18.1196H132.483V10.4952L142.595 8.73141V18.1196H148.997V25.8377H142.595V37.4585C142.595 39.3914 143.502 40.3579 145.312 40.3579Z" fill="#0F0B0B"/>
    <path d="M168.535 40.3579C169.89 40.3579 171.504 40.0128 173.386 39.3278V46.8399C172.035 47.4362 170.747 47.8633 169.524 48.1162C168.3 48.3725 166.87 48.4998 165.225 48.4998C161.856 48.4998 159.428 47.6506 157.94 45.9555C156.452 44.2605 155.707 41.6576 155.707 38.1453V25.8377H152.191V18.1196H155.707V10.3796L165.816 8.73141V18.1196H172.221V25.8377H165.816V37.4585C165.816 39.3914 166.723 40.3579 168.535 40.3579Z" fill="#0F0B0B"/>
    <path d="M186.046 29.3432C186.183 27.7084 186.65 26.5108 187.444 25.7454C188.243 24.9816 189.228 24.5997 190.407 24.5997C191.693 24.5997 192.715 25.0285 193.474 25.8927C194.237 26.752 194.634 27.9027 194.666 29.3432H186.046ZM200.196 21.1092C197.811 18.7642 194.427 17.59 190.05 17.59C185.449 17.59 181.908 18.9384 179.426 21.635C176.946 24.3317 175.705 28.2009 175.705 33.2425C175.705 38.125 177.046 41.8902 179.722 44.5333C182.399 47.1763 186.158 48.4996 191 48.4996C193.325 48.4996 195.326 48.3405 197.003 48.0239C198.67 47.7107 200.283 47.1445 201.848 46.3271L200.306 39.5989C199.169 40.0645 198.087 40.423 197.065 40.6591C195.588 41.0025 193.968 41.175 192.204 41.175C190.271 41.175 188.744 40.701 187.625 39.753C186.506 38.8033 185.91 37.4935 185.841 35.8253H203.775V31.2409C203.775 26.8307 202.583 23.4524 200.196 21.1092Z" fill="#0F0B0B"/>
    <path d="M46.3983 29.3432C46.5353 27.7084 47.0012 26.5108 47.7961 25.7454C48.5928 24.9816 49.5801 24.5997 50.761 24.5997C52.0437 24.5997 53.0657 25.0285 53.8256 25.8927C54.5888 26.752 54.9847 27.9027 55.0199 29.3432H46.3983ZM60.5497 21.1092C58.1631 18.7642 54.7808 17.59 50.4018 17.59C45.7987 17.59 42.2596 18.9384 39.7793 21.635C37.2992 24.3317 36.0567 28.2009 36.0567 33.2425C36.0567 38.125 37.3962 41.8902 40.0752 44.5333C42.7508 47.1763 46.5102 48.4996 51.352 48.4996C53.6769 48.4996 55.6777 48.3405 57.3545 48.0239C59.0213 47.7107 60.635 47.1445 62.2016 46.3271L60.6583 39.5989C59.5209 40.0645 58.4385 40.423 57.4181 40.6591C55.9384 41.0025 54.3199 41.175 52.5561 41.175C50.6237 41.175 49.0958 40.701 47.9768 39.753C46.8561 38.8033 46.2615 37.4935 46.1931 35.8253H64.1272V31.2409C64.1272 26.8307 62.9347 23.4524 60.5497 21.1092Z" fill="#0F0B0B"/>
  </symbol>
  <symbol viewBox="0 0 296 40" id="tradingview">
    <path d="M62.6872 28.8707H67.4872V10.064H73.7641V5.516H56.4513V10.064H62.6872V28.8707ZM73.7641 28.8707H78.2769V21.0039C78.2769 18.2587 79.6718 16.6197 81.8461 16.6197C82.5846 16.6197 83.2 16.7426 83.8974 16.9885V12.3995C83.4051 12.2766 82.8718 12.1946 82.3795 12.1946C80.5333 12.1946 78.8513 13.4238 78.2769 15.0218V12.3995H73.7641V28.8707ZM92.5538 29.2394C94.8102 29.2394 96.5333 28.0922 97.3128 27.0269V28.8707H101.826V12.4405H97.3128V14.2842C96.5743 13.2189 94.8513 12.0717 92.5538 12.0717C88.1641 12.0717 84.8 16.0051 84.8 20.6761C84.8 25.306 88.1641 29.2394 92.5538 29.2394ZM93.4974 25.1421C90.9949 25.1421 89.3538 23.2574 89.3538 20.6761C89.3538 18.0948 90.9949 16.21 93.4974 16.21C96 16.21 97.641 18.0948 97.641 20.6761C97.641 23.2574 96 25.1421 93.4974 25.1421ZM112.533 29.2394C114.79 29.2394 116.513 28.0922 117.292 27.0269V28.8707H121.805V4.20487H117.292V14.2842C116.554 13.2189 114.831 12.0717 112.533 12.0717C108.144 12.0717 104.779 16.0051 104.779 20.6761C104.82 25.306 108.144 29.2394 112.533 29.2394ZM113.518 25.1421C111.015 25.1421 109.374 23.2574 109.374 20.6761C109.374 18.0948 111.015 16.21 113.518 16.21C116.021 16.21 117.662 18.0948 117.662 20.6761C117.662 23.2574 116.021 25.1421 113.518 25.1421ZM128.082 9.9411C129.682 9.9411 130.995 8.67094 130.995 7.07298C130.995 5.47503 129.682 4.20487 128.082 4.20487C126.523 4.20487 125.21 5.47503 125.21 7.07298C125.251 8.62996 126.523 9.90013 128.082 9.9411ZM125.867 28.8707H130.379V12.6044H125.867V28.8707ZM134.359 28.8707H138.872V20.8399C138.872 17.685 140.431 16.169 142.523 16.169C144.41 16.169 145.436 17.6031 145.436 19.9795V28.8707H149.949V19.242C149.949 14.9808 147.569 12.0717 143.59 12.0717C141.456 12.0717 139.774 12.9731 138.872 14.3252V12.4405H134.359V28.8707ZM161.436 24.4866C159.179 24.4866 157.251 22.7657 157.251 20.2663C157.251 17.726 159.138 16.0461 161.436 16.0461C163.692 16.0461 165.62 17.726 165.62 20.2663C165.62 22.8067 163.733 24.4866 161.436 24.4866ZM160.903 36C165.949 36 169.764 33.4187 169.764 27.5186V12.3585H165.251V14.2023C164.349 12.9321 162.585 11.9898 160.492 11.9898C156.185 11.9898 152.738 15.6773 152.738 20.3073C152.738 24.8963 156.185 28.5839 160.492 28.5839C162.585 28.5839 164.39 27.6415 165.251 26.4123V27.5186C165.251 30.1409 163.487 32.0256 160.82 32.0256C158.974 32.0256 157.128 31.411 155.692 29.977L153.231 33.3367C155.118 35.1805 158.031 36 160.903 36ZM179.323 28.8707H183.59L193.272 5.516H188.02L181.497 21.7414L174.892 5.516H169.723L179.323 28.8707ZM197.374 9.73624C198.974 9.73624 200.246 8.46607 200.287 6.86812C200.287 5.27017 198.974 4 197.374 4C195.815 4 194.503 5.27017 194.503 6.86812C194.503 8.46607 195.856 9.73624 197.374 9.73624ZM195.159 28.8707H199.672V12.3995H195.159V28.8707ZM211.323 29.2394C214.769 29.2394 217.395 27.8054 218.954 25.5519L215.59 23.0525C214.851 24.1998 213.415 25.1421 211.323 25.1421C209.149 25.1421 207.22 23.9129 206.933 21.7004H219.241C219.323 21.0038 219.323 20.5531 219.323 20.1434C219.323 14.7759 215.549 12.0717 211.2 12.0717C206.195 12.0717 202.544 15.8003 202.544 20.6351C202.626 25.8387 206.441 29.2394 211.323 29.2394ZM207.138 18.6684C207.59 16.6607 209.436 15.8003 211.118 15.8003C212.8 15.8003 214.441 16.7017 214.851 18.6684H207.138ZM236.267 28.8707H240.738L246.154 12.3995H241.313L238.236 22.9296L234.872 12.3995H231.426L228.103 22.9296L224.985 12.3995H220.185L225.641 28.8707H230.113L233.19 19.5288L236.267 28.8707Z" fill="black"/>
    <path d="M18.2154 28.8707H9.10769V14.612H0V5.516H18.1744V28.8707H18.2154ZM36.4308 28.8707H26.0513L35.8154 5.516H46.1949L36.4308 28.8707ZM26.0103 5.516C28.882 5.516 31.2205 7.85147 31.2205 10.7196C31.2205 13.5877 28.882 15.9232 26.0103 15.9232C23.1385 15.9232 20.8 13.5877 20.8 10.7196C20.841 7.85147 23.1385 5.516 26.0103 5.516Z" fill="black"/>
  </symbol>
  <symbol viewBox="0 0 32 32" id="applemarket">
    <path d="M29.3893 24.9377C28.9054 26.0557 28.3326 27.0848 27.6689 28.031C26.7642 29.3208 26.0235 30.2136 25.4527 30.7094C24.5677 31.5232 23.6196 31.94 22.6043 31.9637C21.8755 31.9637 20.9965 31.7563 19.9733 31.3355C18.9468 30.9168 18.0034 30.7094 17.1408 30.7094C16.2361 30.7094 15.2659 30.9168 14.2281 31.3355C13.1887 31.7563 12.3514 31.9755 11.7112 31.9973C10.7376 32.0387 9.7672 31.6101 8.79854 30.7094C8.18029 30.1702 7.40698 29.2457 6.48059 27.9361C5.48664 26.5377 4.66948 24.916 4.0293 23.0672C3.34369 21.0702 3 19.1364 3 17.2643C3 15.1197 3.46339 13.2701 4.39156 11.7201C5.12102 10.4751 6.09146 9.49305 7.30604 8.77208C8.52062 8.05112 9.83298 7.68372 11.2463 7.66022C12.0196 7.66022 13.0337 7.89942 14.2939 8.36953C15.5505 8.84122 16.3574 9.08042 16.7112 9.08042C16.9757 9.08042 17.872 8.80072 19.3916 8.24311C20.8286 7.72599 22.0414 7.51187 23.0349 7.59622C25.7272 7.8135 27.7499 8.8748 29.095 10.7868C26.6872 12.2458 25.4961 14.2891 25.5198 16.9105C25.5415 18.9523 26.2823 20.6514 27.738 22.0005C28.3977 22.6267 29.1345 23.1106 29.9542 23.4543C29.7765 23.9698 29.5888 24.4637 29.3893 24.9377V24.9377ZM23.2147 0.640182C23.2147 2.24055 22.63 3.7348 21.4646 5.11787C20.0582 6.76207 18.3572 7.71216 16.5125 7.56224C16.489 7.37025 16.4753 7.16818 16.4753 6.95584C16.4753 5.41949 17.1442 3.7753 18.3319 2.43094C18.9248 1.75027 19.679 1.1843 20.5935 0.73282C21.5061 0.288073 22.3693 0.0421187 23.1811 0C23.2048 0.213944 23.2147 0.427901 23.2147 0.640161V0.640182Z" fill="black"/>
  </symbol>  
  <symbol viewBox="0 0 24 24" id="tiktok">
    <path d="M12.5311 0.02025C13.8398 0 15.1411 0.012 16.4408 0C16.5196 1.53075 17.0701 3.09 18.1906 4.17225C19.3088 5.2815 20.8906 5.78925 22.4296 5.961V9.98775C20.9873 9.9405 19.5383 9.6405 18.2296 9.0195C17.6596 8.7615 17.1286 8.42925 16.6088 8.0895C16.6021 11.0115 16.6208 13.9297 16.5901 16.8397C16.5121 18.2377 16.0508 19.629 15.2378 20.781C13.9298 22.6987 11.6596 23.949 9.32781 23.988C7.89756 24.0697 6.46881 23.6798 5.25006 22.9613C3.23031 21.7703 1.80906 19.59 1.60206 17.25C1.57806 16.7498 1.56981 16.2502 1.59006 15.762C1.77006 13.8593 2.71131 12.039 4.17231 10.8007C5.82831 9.3585 8.14806 8.6715 10.3201 9.078C10.3403 10.5592 10.2811 12.039 10.2811 13.5203C9.28881 13.1993 8.12931 13.2892 7.26231 13.8915C6.62931 14.3017 6.14856 14.9302 5.89806 15.6412C5.69106 16.1483 5.75031 16.7115 5.76231 17.25C6.00006 18.891 7.57806 20.2702 9.26256 20.121C10.3793 20.109 11.4496 19.461 12.0316 18.5123C12.2198 18.18 12.4306 17.8403 12.4418 17.4495C12.5401 15.6608 12.5011 13.8795 12.5131 12.0907C12.5213 8.0595 12.5011 4.0395 12.5318 0.021L12.5311 0.02025Z" fill="currentColor"></path>
  </symbol>
 
  <symbol viewBox="0 0 24 24" id="line_chartUp">
    <path d="M3 3V20C3 20.553 3.447 21 4 21H21V19H5V3H3Z" fill="currentColor"/>
    <path d="M14.7702 14.0984C15.15 14.4702 15.7638 14.4702 16.1436 14.0984L21 9.34443L19.6266 8L15.4569 12.0818L13.2298 9.90159C12.85 9.52983 12.2362 9.52983 11.8564 9.90159L7 14.6556L8.37339 16L12.5431 11.9182L14.7702 14.0984Z" fill="currentColor"/>
  </symbol>

   <symbol viewBox="0 0 24 24" id="user_plus">
    <path fill-rule="evenodd" clip-rule="evenodd" d="M12 8C12 10.2091 10.2091 12 8 12C5.79086 12 4 10.2091 4 8C4 5.79086 5.79086 4 8 4C10.2091 4 12 5.79086 12 8ZM10 8C10 9.10457 9.10457 10 8 10C6.89543 10 6 9.10457 6 8C6 6.89543 6.89543 6 8 6C9.10457 6 10 6.89543 10 8Z" fill="currentColor"/>
    <path d="M17 8H19V11H22V13H19V16H17V13H14V11H17V8Z" fill="currentColor"/>
    <path d="M12 19H14C14 15.6863 11.3137 13 8 13C4.68629 13 2 15.6863 2 19H4C4 16.7909 5.79086 15 8 15C10.2091 15 12 16.7909 12 19Z" fill="currentColor"/>
  </symbol>

   <symbol viewBox="0 0 24 24" id="credit_card">
    <path d="M20 4H4C2.897 4 2 4.897 2 6V18C2 19.103 2.897 20 4 20H20C21.103 20 22 19.103 22 18V6C22 4.897 21.103 4 20 4ZM4 6H20V8H4V6ZM4 18V12H20.001L20.002 18H4Z" fill="currentColor"/>
    <path d="M6 14H13V16H6V14Z" fill="currentColor"/>
  </symbol>
</svg>
