<svg xmlns="http://www.w3.org/2000/svg">
 
  <symbol fill="none" viewBox="0 0 32 32" id="line_chart_up">
    <path d="M4 4V26.6667C4 27.404 4.596 28 5.33333 28H28V25.3333H6.66667V4H4Z" fill="currentColor"></path>
    <path d="M19.6936 18.7979C20.2 19.2936 21.0185 19.2936 21.5248 18.7979L28 12.4592L26.1688 10.6667L20.6092 16.109L17.6397 13.2021C17.1333 12.7064 16.3149 12.7064 15.8085 13.2021L9.33333 19.5408L11.1645 21.3333L16.7241 15.891L19.6936 18.7979Z" fill="currentColor"></path>
  </symbol>
  
  <symbol fill="none" viewBox="0 0 24 24" id="settings_future">
    <path d="M12 1L21.5 6.5V17.5L12 23L2.5 17.5V6.5L12 1ZM12 3.311L4.5 7.653V16.347L12 20.689L19.5 16.347V7.653L12 3.311ZM12 16C10.9391 16 9.92172 15.5786 9.17157 14.8284C8.42143 14.0783 8 13.0609 8 12C8 10.9391 8.42143 9.92172 9.17157 9.17157C9.92172 8.42143 10.9391 8 12 8C13.0609 8 14.0783 8.42143 14.8284 9.17157C15.5786 9.92172 16 10.9391 16 12C16 13.0609 15.5786 14.0783 14.8284 14.8284C14.0783 15.5786 13.0609 16 12 16ZM12 14C12.5304 14 13.0391 13.7893 13.4142 13.4142C13.7893 13.0391 14 12.5304 14 12C14 11.4696 13.7893 10.9609 13.4142 10.5858C13.0391 10.2107 12.5304 10 12 10C11.4696 10 10.9609 10.2107 10.5858 10.5858C10.2107 10.9609 10 11.4696 10 12C10 12.5304 10.2107 13.0391 10.5858 13.4142C10.9609 13.7893 11.4696 14 12 14Z" fill="currentColor"></path>
  </symbol>
  
  <symbol fill="none" viewBox="0 0 24 24" id="user_check">
    <path fill-rule="evenodd" clip-rule="evenodd" d="M12 8C12 10.2091 10.2091 12 8 12C5.79086 12 4 10.2091 4 8C4 5.79086 5.79086 4 8 4C10.2091 4 12 5.79086 12 8ZM10 8C10 9.10457 9.10457 10 8 10C6.89543 10 6 9.10457 6 8C6 6.89543 6.89543 6 8 6C9.10457 6 10 6.89543 10 8Z" fill="currentColor"></path>
    <path d="M15.994 12.584L20.294 8.29199L21.706 9.70799L15.994 15.41L13.288 12.706L14.702 11.292L15.994 12.584Z" fill="currentColor"></path>
    <path d="M12 19H14C14 15.6863 11.3137 13 8 13C4.68629 13 2 15.6863 2 19H4C4 16.7909 5.79086 15 8 15C10.2091 15 12 16.7909 12 19Z" fill="currentColor"></path>
  </symbol>

   <symbol fill="none" viewBox="0 0 20 15" id="user-plus">
    <path fill-rule="evenodd" clip-rule="evenodd" d="M10 4C10 6.20914 8.20914 8 6 8C3.79086 8 2 6.20914 2 4C2 1.79086 3.79086 0 6 0C8.20914 0 10 1.79086 10 4ZM8 4C8 5.10457 7.10457 6 6 6C4.89543 6 4 5.10457 4 4C4 2.89543 4.89543 2 6 2C7.10457 2 8 2.89543 8 4Z" fill="currentColor"></path>
    <path d="M15 4H17V7H20V9H17V12H15V9H12V7H15V4Z" fill="currentColor"></path>
    <path d="M10 15H12C12 11.6863 9.31371 9 6 9C2.68629 9 0 11.6863 0 15H2C2 12.7909 3.79086 11 6 11C8.20914 11 10 12.7909 10 15Z" fill="currentColor"></path>
  </symbol>

   <symbol fill="none" viewBox="0 0 20 16" id="credit-card">
    <path d="M18 0H2C0.897 0 0 0.897 0 2V14C0 15.103 0.897 16 2 16H18C19.103 16 20 15.103 20 14V2C20 0.897 19.103 0 18 0ZM2 2H18V4H2V2ZM2 14V8H18.001L18.002 14H2Z" fill="currentColor"></path>
    <path d="M4 10H11V12H4V10Z" fill="currentColor"></path>
  </symbol>

  <symbol fill="none" viewBox="0 0 24 24" id="chart-arrow">
    <path d="M10 10.414L13.2929 13.7069C13.6834 14.0974 14.3166 14.0974 14.7071 13.7069L19.707 8.707L22 11V5H16L18.293 7.293L14 11.586L10.7071 8.29311C10.3166 7.90258 9.68345 7.90258 9.29292 8.29311L2.29303 15.293L3.70703 16.707L10 10.414Z" fill="white"/>
  </symbol>

  <symbol fill="none" viewBox="0 0 24 24" id="check">
    <path fill-rule="evenodd" clip-rule="evenodd" d="M2 12C2 17.5228 6.47715 22 12 22C17.5228 22 22 17.5228 22 12C22 6.47715 17.5228 2 12 2C6.47715 2 2 6.47715 2 12ZM20.1818 12C20.1818 16.5187 16.5187 20.1818 12 20.1818C7.48131 20.1818 3.81818 16.5187 3.81818 12C3.81818 7.48131 7.48131 3.81818 12 3.81818C16.5187 3.81818 20.1818 7.48131 20.1818 12Z" fill="white"/>
    <path fill-rule="evenodd" clip-rule="evenodd" d="M10.5 13.2322L15.7929 7.93934L17.2071 9.35355L10.5 16.0607L6.79289 12.3536L8.20711 10.9393L10.5 13.2322Z" fill="white"/>
  </symbol>

  <symbol fill="none" viewBox="0 0 24 24" id="clock">
    <path fill-rule="evenodd" clip-rule="evenodd" d="M22 12C22 17.5228 17.5228 22 12 22C6.47715 22 2 17.5228 2 12C2 6.47715 6.47715 2 12 2C17.5228 2 22 6.47715 22 12ZM18.056 17.2275C19.062 16.0631 19.7379 14.6054 19.9381 13H13.8284L18.056 17.2275ZM16.5683 18.5683C15.2731 19.4708 13.6983 20 12 20C7.58172 20 4 16.4183 4 12C4 7.92038 7.05369 4.55399 11 4.06189V12.3787C11 12.7765 11.158 13.158 11.4393 13.4393L16.5683 18.5683ZM13 11H19.9381C19.4869 7.38128 16.6187 4.51314 13 4.06189V11Z" fill="white"/>
  </symbol>


</svg>