<svg width="160" height="24" viewBox="0 0 160 24" fill="none" xmlns="http://www.w3.org/2000/svg">
    <path d="M16 1L18.9233 8.57018L27 9.02129L20.73 14.151L22.7984 22L16 17.6002L9.20163 22L11.27 14.151L5 9.02129L13.0767 8.57018L16 1Z" fill="currentColor"/>
    <path d="M48 1L50.9233 8.57018L59 9.02129L52.73 14.151L54.7984 22L48 17.6002L41.2016 22L43.27 14.151L37 9.02129L45.0767 8.57018L48 1Z" fill="currentColor"/>
    <path d="M80 1L82.9233 8.57018L91 9.02129L84.73 14.151L86.7984 22L80 17.6002L73.2016 22L75.27 14.151L69 9.02129L77.0767 8.57018L80 1Z" fill="currentColor"/>
    <path d="M112 1L114.923 8.57018L123 9.02129L116.73 14.151L118.798 22L112 17.6002L105.202 22L107.27 14.151L101 9.02129L109.077 8.57018L112 1Z" fill="currentColor"/>
    <path d="M144 1L146.923 8.57018L155 9.02129L148.73 14.151L150.798 22L144 17.6002L137.202 22L139.27 14.151L133 9.02129L141.077 8.57018L144 1Z" fill="currentColor"/>
</svg>
